<?xml version="1.0" encoding="utf-8"?>
<!-- Generator: Adobe Illustrator 22.0.0, SVG Export Plug-In . SVG Version: 6.00 Build 0)  -->
<svg version="1.1" id="Calque_1" xmlns="http://www.w3.org/2000/svg" xmlns:xlink="http://www.w3.org/1999/xlink" x="0px" y="0px"
	 viewBox="0 0 432 432" style="enable-background:new 0 0 432 432;" xml:space="preserve">
<style type="text/css">
	.st0{fill:#066938;}
	.st1{fill:#9F1E29;}
	.st2{fill:#571419;}
	.st3{fill:none;}
	.st4{fill:#C68448;}
	.st5{fill:#8C633A;}
	.st6{fill:#D79A5D;}
	.st7{fill:#A5C0DF;}
	.st8{fill:#36502D;}
	.st9{fill:#C8261D;}
	.st10{fill:#808181;}
	.st11{fill:#519C37;}
	.st12{fill:#FCEE69;}
	.st13{fill:#EC8C37;}
	.st14{fill:#5877B1;}
	.st15{fill:#7B1523;}
	.st16{fill:#4F0D1C;}
	.st17{fill:#BF333D;}
	.st18{fill:#E7373D;}
	.st19{fill:#972021;}
	.st20{fill:#F2F2F2;}
	.st21{fill:#F3D4AA;}
	.st22{fill:#A67D52;}
	.st23{fill:#B59063;}
	.st24{fill:#020203;}
	.st25{fill:#FFFFFF;}
	.st26{fill:#E7E6E6;}
	.st27{fill:#9A9999;}
	.st28{fill:#B4B4B4;}
	.st29{fill:#C9913E;}
	.st30{fill:#D6A14D;}
	.st31{fill:#E2A1BC;}
	.st32{fill:#C1292E;}
	.st33{fill:#82171C;}
	.st34{fill:#CDCCCC;}
	.st35{fill:#D06C5D;}
	.st36{fill:#79986F;}
	.st37{fill:#DAA405;}
	.st38{fill:#EDCBA9;}
	.st39{fill:#405045;}
	.st40{fill:#8B2F2F;}
	.st41{fill:#1D2E1C;}
	.st42{fill:#D4BB78;}
	.st43{fill:#3C1014;}
	.st44{fill:#731633;}
	.st45{fill:#3F0D26;}
	.st46{fill:#E3EBF8;}
	.st47{fill:#D2DFEF;}
	.st48{fill:#B88E5C;}
	.st49{fill:#A81735;}
	.st50{fill:#4AA8A8;}
	.st51{fill:#94B947;}
	.st52{fill:#A8C4D3;}
	.st53{fill:#9F1A18;}
	.st54{fill:#4F6325;}
	.st55{fill:#BAC463;}
	.st56{fill:#8C694B;}
	.st57{fill:#8A9A66;}
	.st58{fill:#DDDDC3;}
	.st59{fill:#3F668A;}
	.st60{fill:#1B1B1B;}
	.st61{fill:#FFF0BA;}
	.st62{fill:#C69C6C;}
	.st63{fill:#603914;}
	.st64{fill:#114923;}
	.st65{fill:#961F27;}
	.st66{fill:#BB870E;}
	.st67{fill:#C51720;}
	.st68{fill:#449494;}
	.st69{fill:#417675;}
	.st70{fill:#ABCFAF;}
	.st71{fill:#66B2B0;}
	.st72{fill:#F9B03D;}
	.st73{fill:#754D24;}
	.st74{fill:#F6F6F6;}
	.st75{fill:#BA181A;}
	.st76{fill:#AD191C;}
	.st77{fill:#161515;}
	.st78{fill:#1E1E1C;}
	.st79{fill:#0E472B;}
	.st80{fill:#D3C29D;}
	.st81{fill:#CC2717;}
	.st82{fill:#A81916;}
	.st83{fill:#805129;}
	.st84{fill:#F39323;}
	.st85{fill:#B56B20;}
	.st86{fill:#E52629;}
	.st87{fill:#7B9EC7;}
	.st88{fill:#48515A;}
	.st89{fill:#DED3C6;}
	.st90{fill:#3B444E;}
	.st91{fill:#6189B1;}
	.st92{fill:#97B8D7;}
	.st93{fill:#715038;}
	.st94{fill:#A3282E;}
	.st95{fill:#110506;}
	.st96{fill:#F3E4D4;}
	.st97{fill:#F4DCC9;}
	.st98{fill:#676767;}
	.st99{fill:#E0EDF3;}
	.st100{fill:#90443F;}
	.st101{fill:#989389;}
	.st102{fill:#F0DABE;}
	.st103{fill:#4F382A;}
	.st104{fill:#009245;}
	.st105{fill:#064928;}
</style>
<g>
	<g>
		<path class="st0" d="M152.7,100.5c0.2-0.6,0.4-1.2,0.6-1.7c0.5-1.7,1-3.4,1.6-5c0.5-1.2,1.1-2.4,1.8-3.6c0.8-1.3,2-2.1,3.6-2.2
			c0.9,0,1.8,0.2,2.7,0.4c2.3,0.7,4.4,1.8,6.5,3c0.4,0.2,0.8,0.4,1.2,0.7c0.2-0.3,0.4-0.6,0.5-0.8c0.8-1.4,1.6-2.8,2.4-4.2
			c0.6-1.1,1.6-1.8,2.8-2c0.9-0.1,1.7,0.1,2.4,0.4c0.8,0.4,1.5,0.8,2.3,1.2c0.5,0.3,0.8,0.2,1.2-0.1c1.1-0.7,2.2-1.4,3.4-2.1
			c1.7-1,3.5-1,5.3-0.2c1.6,0.7,3.2,1.5,4.6,2.4c1.4,0.9,2.6,0.7,3.8-0.2c0.9-0.6,1.8-1.3,2.6-2c1.7-1.3,3.5-1.4,5.4-0.3
			c0.6,0.3,1.1,0.7,1.7,1.2c0.4,0.3,0.7,0.3,1,0c0.6-0.5,1.2-0.9,1.8-1.4c2.2-2,4.3-4,6.4-6c0.6-0.6,1.2-1.1,1.9-1.6
			c0.4-0.3,0.8-0.6,1.2-0.8c1.6-0.9,3.4-0.4,4.3,1.2c0.4,0.7,0.6,1.4,0.8,2.1c0.4,1.4,0.8,2.9,1.3,4.3c0.2,0.7,0.6,1.4,0.9,2.2
			c0.5-0.4,0.9-0.6,1.2-0.9c2.6-2.2,5.2-4.4,7.8-6.6c1.9-1.6,3.9-3.2,5.9-4.8c0.6-0.5,1.2-0.9,1.9-1.2c1.8-0.9,3.6-0.1,4.1,1.9
			c0.2,1,0.3,2.1,0.3,3.2c0,2.5-0.2,5-0.3,7.4c0,1-0.1,2,0,3.1c0.5-0.1,0.9-0.2,1.2-0.3c2-0.8,3.9-1.5,5.9-2.3
			c0.5-0.2,1.1-0.4,1.7-0.6c1.7-0.5,3.1,0.1,4.2,1.3c0.3,0.3,0.5,0.7,0.7,1c0.4,0.5,0.7,1,1,1.5c0.4,0.7,1,1.1,1.8,1.1
			c1.3,0.1,2.6,0.3,3.9,0.5c0.6,0.1,1.3,0.2,1.9,0.4c1.3,0.4,2.3,1.1,3,2.3c0.4,0.6,0.7,1.3,1,2c0.4,1.1,1.2,1.9,2.3,2.3
			c1.7,0.6,3.3,1.2,5,1.8c0.9,0.3,1.7,0.7,2.6,1c1.7,0.7,3,2,3.6,3.7c0.5,1.3,1.4,2.1,2.7,2.4c1.6,0.4,3.1,0.8,4.6,1.2
			c0.4,0.1,0.7,0.2,1.1,0.3c2.3,0.8,3.5,2.4,3.6,4.8c0,0.4,0,0.8,0,1.2c0,0.8,0.4,1.3,1.1,1.6c1.2,0.5,2.4,0.8,3.7,0.8
			c2.9,0.1,5.7,0.1,8.6,0.1c1.1,0,2.1,0,3.2,0.3c1.5,0.3,2.5,1.3,2.7,2.8c0.1,0.6,0,1.3-0.2,1.8c-0.4,1.1-1,2.1-1.6,3.2
			c-0.2,0.5-0.5,0.9-0.8,1.4c-0.3,0.4-0.2,0.7,0.2,1c0.4,0.3,0.9,0.6,1.3,0.9c0.9,0.6,1.9,1.1,2.8,1.6c0.5,0.3,1,0.6,1.4,0.9
			c1.5,1.2,1.9,2.8,1.3,4.5c-0.2,0.5-0.4,1-0.7,1.5c-0.4,0.7-0.8,1.4-1.3,2.1c-0.5,0.8-0.5,0.9,0.2,1.6c0.5,0.4,1,0.8,1.5,1.2
			c0.5,0.4,1,0.8,1.4,1.2c1.5,1.4,2,3.1,1.4,5.1c-0.2,0.7-0.5,1.4-0.8,2.2c-0.2,0.4-0.3,0.8-0.5,1.2c0.2,0.2,0.4,0.3,0.6,0.4
			c0.5,0.3,1.1,0.5,1.7,0.8c1,0.6,2,1.1,2.8,1.8c1.1,0.8,1.6,2,1.8,3.4c0.3,1.7-0.1,3.4-0.3,5.1c-0.1,0.6-0.2,1.3-0.2,1.9
			c-0.1,1,0.1,1.9,0.6,2.7c0.5,0.9,1.1,1.7,1.6,2.5c0.8,1.2,1.1,2.6,1,4c-0.1,1.3-0.3,2.6-0.5,4c0,0.4-0.1,0.8-0.1,1.2
			c0.5,0.2,1,0.4,1.5,0.5c0.5,0.2,1.1,0.3,1.6,0.5c1.4,0.6,2.1,1.7,2,3.2c-0.1,0.9-0.3,1.7-0.5,2.6c-0.4,1.4-0.8,2.9-1.2,4.3
			c-0.1,0.3-0.1,0.6-0.2,0.9c1,0.2,1.8,0,2.7,0c1.3-0.1,2.7-0.2,4,0.1c2.3,0.5,3.3,2.1,2.9,4.4c-0.3,1.5-0.9,3-1.6,4.3
			c-1.6,3.1-3.3,6.2-5,9.3c-0.5,0.9-0.9,1.8-1.4,2.7c-0.3,0.5-0.5,1.1-0.7,1.6c-0.5,1.4-0.4,2.6,0.7,3.7c0.4,0.4,0.8,0.9,1.2,1.3
			c1.1,1.4,1.2,2.9,0.4,4.4c-0.3,0.6-0.7,1.1-1.2,1.7c-0.7,0.9-1.5,1.8-2.3,2.6c-0.9,1-1.1,2-0.7,3.3c0.3,1,0.6,2,0.9,3
			c0.2,0.5,0.3,1.1,0.4,1.6c0.2,1.5-0.2,2.8-1.3,3.8c-0.8,0.6-1.7,1.1-2.5,1.6c-1.1,0.6-2.2,1-3.3,1.6c-1.3,0.7-1.5,1-1,2.5
			c0.5,1.5,1.1,2.9,1.5,4.3c0.4,1.3,0.9,2.6,1.2,3.9c0.5,2.1-0.5,3.8-2.5,4.5c-1.3,0.4-2.6,0.6-4,0.9c-1.6,0.4-3.2,0.8-4.8,1.2
			c-0.3,0.1-0.6,0.2-1,0.4c0.2,0.7,0.4,1.3,0.6,1.9c0.8,2.3,1.7,4.6,2.5,6.9c0.7,2,1.2,4,1.4,6.1c0.1,0.6,0.1,1.3,0.1,1.9
			c-0.1,1.6-0.9,2.7-2.5,3.2c-1.3,0.4-2.6,0.3-4,0.2c-0.9-0.1-1.9-0.1-2.8-0.1c-0.7,0-0.9,0.2-0.9,0.9c0,1.2,0.1,2.3,0.1,3.5
			c0,1,0,2-0.2,2.9c-0.3,1.7-1.5,2.6-3.2,2.5c-0.8,0-1.6-0.2-2.4-0.5c-1.8-0.6-3.6-1.3-5.5-1.9c-0.6-0.2-1.3-0.4-1.9-0.5
			c-0.9-0.1-1,0-1.4,0.8c-0.2,0.4-0.3,0.8-0.4,1.2c-0.4,1.3-0.9,2.6-1.3,3.9c-0.1,0.2-0.2,0.4-0.3,0.7c-0.6,1.3-1.7,1.8-3.1,1.3
			c-0.4-0.2-0.8-0.4-1.3-0.7c-0.3-0.1-0.5-0.3-0.9-0.6c-0.1,0.6-0.2,1.1-0.3,1.6c-0.2,1.8-0.3,3.7-0.5,5.5c-0.1,0.7-0.2,1.4-0.4,2
			c-0.6,1.9-2.1,2.7-4,2.2c-0.5-0.1-1.1-0.3-1.7-0.6c-0.1,0.5-0.2,0.9-0.3,1.4c-0.3,1.1-0.5,2.3-0.9,3.4c-0.8,2.5-2.5,3.2-4.8,2.2
			c-1.1-0.5-2.2-1.1-3.3-1.6c-0.5-0.2-1-0.5-1.6-0.6c-0.7-0.2-1.3-0.1-1.8,0.5c-0.5,0.6-1,1.2-1.3,1.9c-0.8,1.8-1.6,3.7-2.3,5.6
			c-1.5,3.9-2.9,7.9-4.7,11.7c-0.5,1.1-1.1,2.2-1.8,3.2c-0.5,0.8-1.4,1.3-2.4,1.2c-0.7,0-1.3-0.3-1.8-0.9c-0.5-0.6-1.1-1.3-1.4-2
			c-0.7-1.5-1.3-3.1-1.8-4.6c-0.6-1.7-1.1-3.5-1.6-5.3c-0.1-0.3-0.2-0.6-0.3-1c-0.2,0.3-0.3,0.5-0.4,0.7c-0.5,1.2-1,2.5-1.6,3.6
			c-0.5,1-1.1,2-1.9,2.9c-1.6,1.9-3.7,2.3-5.9,1.1c-1.1-0.7-2.1-1.6-3.2-2.4c-0.4-0.3-0.8-0.7-1.3-1.1c-0.1,0.6-0.2,1-0.4,1.5
			c-0.1,0.3-0.1,0.6-0.3,0.9c-0.5,1.2-1.9,1.8-3.2,1.3c-0.6-0.2-1.1-0.5-1.6-0.9c-1.3-0.9-2.5-1.8-3.8-2.7c-0.4-0.3-0.9-0.6-1.4-0.9
			c-0.3,0.4-0.5,0.7-0.8,1c-0.4,0.5-0.7,1.1-1.1,1.6c-1.1,1.4-2.5,1.9-4.3,1.3c-1.1-0.3-2-1-2.8-1.8c-0.7-0.6-1.4-1.3-2.1-2
			c-0.2,0.2-0.4,0.3-0.6,0.5c-0.6,0.5-1.1,1-1.7,1.4c-1.7,1.1-3.4,1.1-5-0.1c-0.9-0.6-1.6-1.4-2.3-2.2c-0.9-1-1.8-2.2-2.6-3.2
			c-0.3-0.4-0.7-0.8-1.1-1.3c-0.4,0.7-0.8,1.2-1.2,1.8c-2,3.4-4.5,6.6-7.1,9.7c-0.3,0.3-0.6,0.7-0.9,0.9c-0.7,0.5-1.4,0.7-2.2,0.3
			c-0.7-0.4-1.1-1-1-1.8c0.1-1.1,0.2-2.2,0.3-3.4c0.1-0.9,0-1.8-0.2-2.7c-0.2-0.7-0.4-0.7-1-0.7c-1.1,0.1-2.2,0.4-3.2,0.9
			c-1.2,0.6-2.3,1.1-3.5,1.7c-4.4,2.2-8.8,4.4-13.5,6.1c-0.9,0.3-1.8,0.5-2.7,0.7c-2,0.3-3.5-0.7-3.8-2.6c-0.2-0.9-0.2-1.9-0.2-2.8
			c0-0.9,0.1-1.9,0.1-2.8c0-0.8-0.2-1.6-0.3-2.5c-0.2-0.9-0.7-1.5-1.6-1.7c-0.9-0.3-1.7-0.6-2.6-0.9c-0.4-0.1-0.8-0.3-1.1-0.5
			c-1-0.5-1.7-1.4-1.8-2.6c0-0.4,0-0.9-0.1-1.3c0-0.4,0-0.8-0.1-1.2c-0.1-0.8-0.3-1-1.1-0.9c-0.9,0.1-1.8,0.3-2.7,0.4
			c-0.8,0.1-1.6,0.2-2.4,0.2c-1.4,0.1-2.6-0.5-3.5-1.6c-0.3-0.4-0.7-0.6-1.2-0.5c-4.4,0.1-8.8,0.1-13.2,0.2c-0.5,0-1.1,0-1.6-0.2
			c-1.2-0.3-1.8-1.2-1.4-2.4c0.1-0.5,0.4-0.9,0.7-1.4c0.5-0.8,1-1.5,1.5-2.3c0.3-0.4,0.6-0.9,0.8-1.4c0.2-0.4,0.2-0.8-0.2-1.1
			c-0.4-0.3-0.8-0.6-1.2-0.9c-0.6-0.4-1.3-0.7-1.9-1.1c-0.4-0.2-0.7-0.4-1-0.7c-0.9-0.8-1.2-1.8-0.7-2.9c0.2-0.6,0.6-1.1,0.9-1.6
			c0.7-1.1,1.5-2.2,2.2-3.4c0.2-0.4,0.4-0.8,0.7-1.3c-0.6-0.3-1.2-0.6-1.8-0.9c-1.8-0.6-3.6-1.2-5.5-1.8c-2.9-0.9-5.9-1.8-8.8-2.7
			c-1.2-0.4-2.5-0.6-3.7-1c-0.7-0.2-1.4-0.5-2-0.8c-1.2-0.7-1.6-1.8-1.3-3.1c0.3-1,0.7-1.9,1.2-2.8c0.3-0.7,0.7-1.3,1-2.1
			c-0.6-0.3-1-0.6-1.5-0.8c-0.8-0.4-1.7-0.8-2.5-1.3c-1.1-0.7-2-1.6-2.2-2.9c-0.1-0.9-0.1-1.9,0-2.8c0.1-1,0.3-2,0.5-3.1
			c0.1-0.7,0.1-0.7-0.6-1c-0.6-0.2-1.2-0.4-1.7-0.6c-1.9-0.7-2.7-1.8-2.6-3.8c0.1-1.2,0.3-2.4,0.6-3.6c0.4-1.7,0.8-3.5,1.2-5.2
			c0-0.1,0-0.2,0.1-0.3c0.2-1,0.1-1.2-0.9-1.5c-1.4-0.3-2.8-0.6-4.2-0.8c-1.5-0.2-3.1-0.1-4.6-0.2c-0.9-0.1-1.9-0.2-2.8-0.5
			c-1.9-0.6-2.6-2.1-1.8-4c0.5-1.2,1.2-2.3,2-3.3c1.3-2,2.8-3.8,4.1-5.8c0.4-0.5,0.7-1.1,1-1.7c0.3-0.5,0.3-1.1-0.1-1.6
			c-0.4-0.5-0.8-1-1.3-1.4c-1.1-0.9-2.3-1.8-3.4-2.7c-0.7-0.5-1.4-1-2-1.6c-1.3-1.2-1.7-2.7-1.1-4.4c0.3-1,0.8-1.9,1.2-2.8
			c0.7-1.4,1.4-2.8,2-4.2c0.7-1.5,0.8-3.1,0.4-4.7c-0.3-1-0.6-2.1-0.8-3.2c-0.5-1.9-0.2-3.6,0.9-5.2c0.6-0.9,1.3-1.8,2-2.7
			c0.8-1.1,1.6-2.2,2.4-3.4c0.9-1.3,1.1-2.8,0.7-4.4c-0.3-0.9-0.6-1.9-0.8-2.8c-0.1-0.3-0.2-0.7-0.2-1c-0.3-1.3,0.1-2.4,1.1-3.3
			c0.6-0.5,1.3-1,1.9-1.5c0.9-0.8,1.8-1.5,2.7-2.3c0.8-0.8,1.1-1.8,0.9-3c-0.4-2.6-1.2-5.2-2.1-7.7c-0.9-2.5-1.9-5-2.8-7.5
			c-0.4-1-0.7-2-0.7-3.1c0-2.1,1-3.4,3-4c1.2-0.3,2.5-0.4,3.7-0.7c3.5-0.7,6.9-1.6,10.2-2.6c1.5-0.5,1.6-0.6,1.4-2.2
			c-0.1-1-0.4-2-0.6-3c-0.1-0.4-0.2-0.8-0.2-1.2c-0.1-1.4,0.5-2.5,1.8-2.9c0.8-0.3,1.7-0.4,2.6-0.6c0.8-0.1,0.9-0.1,0.9-0.9
			c0.1-1.1,0.1-2.3,0.2-3.5c0-0.7,0-1.4,0.1-2.1c0.2-1.5,0.9-2.7,2.4-3.3c0.7-0.3,1.5-0.6,2.2-0.9c0.7-0.3,1.5-0.6,2.2-0.9
			c0.6-0.2,0.9-0.6,1-1.2c0.2-1,0.3-2.1,0.5-3.1c0.1-0.9,0.2-1.8,0.4-2.7c0.3-1.7,1.4-2.9,3.1-3.3c1.1-0.2,2.2-0.3,3.2-0.5
			c0.6-0.1,1.3-0.2,1.9-0.3c1.3-0.2,2.1-1,2.3-2.3c0.3-1.4,0.5-2.8,0.8-4.3c0.5-3.2,1-6.4,1.6-9.6c0.1-0.6,0.3-1.3,0.6-1.9
			c0.9-2.1,2.6-2.8,4.7-2.1c0.7,0.3,1.3,0.6,2,1c1,0.6,1.9,1.2,2.9,1.7C151.7,100,152.2,100.2,152.7,100.5z M216.2,150.6
			c-0.6,0.5-1.2,1-1.8,1.5c-2.9,2.8-5.8,5.5-8.7,8.3c-0.6,0.6-1.4,1.2-2.1,1.6c-1.9,1.2-3.7,1.1-5.5-0.2c-0.5-0.3-0.9-0.7-1.3-1.1
			c-1.1-0.9-2.1-1.8-3.2-2.7c-0.2-0.2-0.5-0.4-0.8-0.6c-0.3,0.5-0.7,0.9-1,1.3c-0.5,0.7-0.9,1.5-1.4,2.3c-1,1.5-2.2,2.7-3.7,3.7
			c-0.7,0.4-1.3,0.8-2,1.2c-0.9,0.5-1.4,1.1-1.7,2.1c-0.2,0.6-0.4,1.1-0.5,1.7c-0.7,2.3-2.1,4.1-4.2,5.3c-0.2,0.1-0.4,0.3-0.7,0.4
			c-1.3,0.6-2,1.5-2.2,2.9c-0.3,1.7-1.2,3-2.7,4c-0.6,0.4-1.2,1-1.8,1.4c-1.5,1-2.1,2.4-1.9,4.3c0.2,1.5,0.1,3.1,0.1,4.6
			c0,1.6-0.6,3-1.7,4.2c-0.8,0.8-1.6,1.6-2.5,2.3c-0.8,0.7-1.7,1.3-2.5,2c-0.4,0.3-0.7,0.7-1.1,1c0.2,0.5,0.5,0.7,0.9,0.7
			c0.5,0.1,1,0.3,1.1,0.9c0.1,0.5,0.4,0.7,0.7,1c0.3,0.3,0.6,0.6,0.9,0.9c1.4,1.6,1.5,3.3,0.2,5c-0.4,0.6-0.5,1.1-0.2,1.7
			c0.3,0.5,0.5,1.1,0.8,1.6c0.2,0.4,0.4,0.9,0.5,1.3c0.3,1.4-0.3,2.6-1.7,3.1c-0.3,0.1-0.6,0.2-0.8,0.3c-0.2,0.1-0.3,0.2-0.6,0.3
			c1,0.7,2,1.3,2.9,1.8c0.5,0.3,1,0.6,1.4,0.9c1.4,1.1,1.3,2.8-0.3,3.7c-0.4,0.2-0.9,0.4-1.4,0.6c-0.4,0.2-0.8,0.4-1.4,0.7
			c0.5,0.2,0.7,0.3,1,0.4c1.1,0.4,2.2,0.8,3.2,1.3c2.6,1.3,3.6,3.2,3.4,6.1c-0.1,1.3-0.1,2.5-0.1,3.8c0,1,0.6,1.7,1.6,2
			c0.4,0.1,0.8,0.2,1.2,0.4c1.1,0.4,2.2,0.8,3.3,1.3c1.7,0.8,3,2.1,3.8,3.8c0.3,0.6,0.6,1.2,0.8,1.9c0.5,1.2,1.3,1.8,2.7,1.8
			c1.5,0,3,0,4.4,0c1.1,0,2.1,0.2,3,0.9c0.2,0.1,0.3,0.2,0.5,0.4c0.2-0.3,0.4-0.5,0.6-0.7c1.8-2.2,3.6-4.3,5.4-6.4
			c0.4-0.5,0.9-0.9,1.4-1.3c1.8-1.3,3.8-0.7,4.5,1.5c0.1,0.3,0.2,0.5,0.2,0.8c0.1,1,0.3,2,0.3,3c0.1,3,0.2,6.1,0.4,9.1
			c0.1,1.3,0.2,2.7,0.7,3.9c0.3,0.8,0.6,0.9,1.3,0.5c0.6-0.3,1.1-0.6,1.6-0.9c0.9-0.5,1.7-1,2.6-1.4c1.3-0.7,2.7-0.8,4.1-0.5
			c0.4,0.1,0.8,0.2,1.2,0.3c0.6,0.1,1.1,0,1.5-0.5c0.9-1.1,1.9-2.1,2.8-3.1c1.7-1.8,3.8-2.7,6.4-2.6c0.9,0,1.7,0.1,2.6,0.1
			c1.1,0.1,2.1-0.3,2.8-1.2c0.4-0.5,0.8-1,1.2-1.5c1.7-2.1,3.8-3.1,6.5-3c0.7,0,1.5,0,2.2,0c0.5,0,0.7-0.2,0.8-0.6
			c0.1-0.5,0.3-1,0.4-1.5c0.3-0.9,0.5-1.8,0.8-2.7c0.6-1.7,2-2.7,3.8-2.9c0.7-0.1,1.4-0.1,2.1-0.1c0.2,0,0.5,0,0.7-0.1
			c0.1-0.8,0.1-1.6,0.2-2.4c0.2-2.2,0.3-4.4,2.5-5.8c-0.1-0.4-0.3-0.7-0.4-1c-0.7-1.6-1.5-3.2-2.1-4.9c-0.9-2.3-1.8-4.6-2.6-7
			c-0.2-0.7-0.3-1.4-0.3-2.1c0-1.3,1.1-2.3,2.4-2.4c0.8,0,1.6,0.2,2.3,0.6c1.7,0.9,3.4,1.8,5.1,2.7c0.3,0.1,0.5,0.3,0.9,0.4
			c0-0.3,0-0.5-0.1-0.7c-0.1-1.2-0.4-2.5-0.4-3.7c-0.1-2.3,1-4.1,3.1-5.1c1-0.5,2.1-0.9,3.2-1.3c0.4-0.1,0.8-0.3,1.2-0.5
			c-0.1-0.3-0.2-0.6-0.3-0.9c-0.2-0.6-0.5-1.3-0.7-1.9c-0.5-1.3-0.6-2.7-0.2-4c0.3-1,0.7-1.9,1-2.9c0.1-0.3,0.2-0.6,0.3-1
			c-0.4,0-0.7,0.1-0.9,0.1c-1.7,0.1-3.3,0.3-5,0.3c-0.9,0-1.8-0.1-2.6-0.4c-2.1-0.7-2.6-2.8-1.3-4.5c0.4-0.5,0.9-1,1.4-1.4
			c2.1-1.8,4.2-3.5,6.3-5.2c0.3-0.3,0.7-0.6,1.1-0.9c-1.2-0.6-2.4-0.8-3.5-1.1c-0.9-0.2-1.8-0.5-2.7-0.8c-1.8-0.9-2.6-2.4-2.1-4.4
			c0.2-0.8,0.4-1.5,0.6-2.2c0.2-0.6,0.1-1-0.5-1.4c-0.4-0.2-0.8-0.5-1.2-0.8c-1.4-0.8-2.9-1.7-4.3-2.5c-1.8-1-3.4-2.3-4.5-4.1
			c-0.7-1.1-1.7-1.9-2.9-2.4c-0.9-0.4-1.7-0.8-2.6-1.2c-1.7-0.8-3.2-2-4.3-3.6c-0.4-0.6-0.8-0.9-1.5-1c-0.3-0.1-0.6-0.1-1-0.2
			c-2.3-0.4-4.5-1-6.2-2.7c-1.2-1.2-2.4-1.5-3.9-0.9c-0.1,0-0.1,0-0.2,0c-1.3,0.2-2.5,0.4-3.8,0.1c-1.5-0.3-2.7-1-3.8-1.9
			C217.3,151.5,216.8,151.1,216.2,150.6z"/>
	</g>
	<g>
		<g>
			<g>
				<path class="st8" d="M135,252.5c3.9,0,7.7-0.4,11.6-1.1c5-0.9,9.9-1.9,14.9-2.7c3.8-0.6,7.6-1.1,11.4-1.5
					c3.3-0.4,6.7-0.6,10-0.8c2.2-0.1,4.3-0.1,6.5,0.3c1,0.2,2,0.5,2.8,1c0.4,0.3,0.7,0.6,1,1c0.5,0.7,0.1,1.5-0.8,1.7
					c-0.3,0-0.5,0-0.8,0c-2.6-0.3-5.1-0.2-7.7,0.2c-4.1,0.5-8.3,1.1-12.4,1.7c-4.9,0.7-9.8,1.7-14.6,2.8c-4.5,1-9,2-13.6,2.5
					c-3.9,0.5-7.9,0.5-11.9,0.3c-5-0.2-9.8-0.9-14.6-2.4c-13.3-4.3-23.4-12.5-29.4-25.4c-2.2-4.8-3.3-9.8-3.7-15
					c-0.5-7.1,1-13.8,3.9-20.2c0.7-1.6,1.6-3,2.7-4.3c1-1.1,2.1-2,3.5-2.5c0.8-0.3,1.5-0.4,2.3-0.1c1.5,0.5,2,2,1.1,3.3
					c-0.3,0.4-0.6,0.7-1,0.9c-0.9,0.5-1.5,1.2-2,2.1c-1,1.7-1.8,3.5-2.5,5.4c-1.2,3.3-2,6.8-2.1,10.3c-0.2,3.7,0.1,7.3,0.9,10.9
					c2.6,11.1,9,19.5,18.9,25.3c4.6,2.7,9.5,4.6,14.8,5.5C127.7,252.3,131.3,252.5,135,252.5z"/>
				<path class="st8" d="M173,117.6c0,3.9,0.2,7.7,0.7,11.6c0.8,6.7,1.6,13.4,2.5,20.1c0.5,4,1.1,8,1.6,12c0.4,3.3,0.6,6.7,0.4,10
					c-0.2,3.6-0.8,7.1-2.3,10.3c-0.7,1.5-1.6,2.9-2.7,4c-0.8,0.8-1.8,1.4-3,1.5c-0.4,0-0.8,0-1.1-0.1c-0.9-0.2-1.2-1.1-0.7-1.9
					c0.2-0.2,0.4-0.5,0.6-0.6c1-0.8,1.6-1.8,2.1-2.9c0.8-1.7,1.2-3.6,1.4-5.5c0.5-3.7,0.3-7.4-0.1-11.1c-0.5-4.8-1.5-9.5-2.2-14.3
					c-0.7-4.3-1.4-8.6-1.9-13c-0.5-3.8-0.9-7.7-1.2-11.6c-0.4-4.8-0.4-9.5-0.1-14.3c0.4-5.3,1.4-10.4,3.4-15.3
					c1.2-2.9,2.5-5.6,4.5-8c4.1-5,9.3-7.9,15.7-8.7c2.8-0.3,5.3,0.4,7.5,2c0.3,0.2,0.7,0.4,1.1,0.6c0.7,0.3,1.1,0.8,1.3,1.5
					c0.6,1.9-0.3,3.5-2.1,3.9c-0.8,0.2-1.5,0-2.1-0.4c-0.4-0.2-0.8-0.5-1.2-0.7c-1.5-1.1-3.1-1.2-4.9-0.9c-5.2,0.9-9,3.8-11.7,8.2
					c-2,3.2-3.2,6.8-4,10.5C173.3,109,173,113.3,173,117.6z"/>
				<path class="st8" d="M270.2,326.6c-1.7,0-2.9-1.2-2.7-2.8c0.1-1,0.5-1.9,1-2.7c0.7-1.2,1.3-2.4,1.8-3.8c0.8-2.5,0.8-5.1,0.6-7.7
					c-0.5-6.5-2.4-12.7-4.5-18.8c-4.3-12.9-8.9-25.6-13.4-38.3c-1.2-3.3-2.4-6.6-3.2-9.9c-0.7-2.7-1-5.4-0.8-8.2
					c0.1-1.9,0.5-3.7,1.7-5.3c0.3-0.4,0.7-0.8,1.2-1.2c0.5-0.4,1.2-0.4,1.7,0c0.5,0.4,0.5,1,0.4,1.6c-0.3,1-0.6,2-0.7,3.1
					c-0.3,2.1,0.2,4.1,0.6,6.1c0.8,3.5,2.2,6.9,3.6,10.2c3,7.3,6,14.7,8.8,22.1c2,5.1,3.6,10.3,5.5,15.5c1.5,4.1,2.9,8.2,4,12.4
					c1.2,4.7,1.9,9.4,1.9,14.2c-0.1,4.2-1.4,8-3.8,11.3c-0.5,0.7-1.2,1.2-1.8,1.8C271.3,326.5,270.7,326.6,270.2,326.6z"/>
				<path class="st8" d="M333.7,151c0,1.7-1.5,2.8-3.2,2.5c-0.8-0.1-1.4-0.5-2.1-1c-1.5-1-2.9-2-4.5-2.9c-2-1.2-4.2-1.7-6.5-1.9
					c-2.9-0.3-5.7,0-8.6,0.3c-5.2,0.6-10.4,1.8-15.3,3.5c-4.1,1.4-8.1,3.2-12,5.1c-4.8,2.3-9.6,4.7-14.4,7.1c-3.2,1.6-6.5,3-9.9,4.1
					c-2.4,0.7-4.9,1.2-7.4,1c-3.2-0.2-6-1.2-8.2-3.6c-0.4-0.4-0.7-0.9-0.9-1.4c-0.3-0.6-0.3-1.2,0.2-1.6c0.5-0.5,1.1-0.5,1.6-0.2
					c0.7,0.4,1.4,0.8,2.1,1.3c1.6,1,3.3,1.4,5.2,1.2c1.2-0.1,2.4-0.3,3.6-0.6c2.9-0.7,5.6-2,8.2-3.4c4-2.1,7.9-4.3,11.9-6.4
					c5.1-2.8,10.3-5.4,15.8-7.4c5.7-2.1,11.6-3.6,17.7-4.4c2-0.3,3.9-0.5,5.9-0.6c3.4-0.2,6.9,0,10.2,1.1c3.4,1.1,6.4,3,9.2,5.3
					C333.3,149,333.7,150,333.7,151z"/>
			</g>
			<g>
				<g>
					<path class="st9" d="M164.5,114.5c-1.2,0.1-2.3,0-3.5-0.3c-0.9-0.3-1.7-0.6-2.7-1c-0.7-0.3-1.5-0.6-2.3-1
						c-1.5-0.7-3-1.5-4.4-2.4c-0.5-0.3-0.9-0.7-1.3-1.1c-0.9-1.1-0.5-2.7,0.5-3.4c0.4-0.3,0.9-0.5,1.4-0.7c0.7-0.3,1.4-0.4,2.1-0.7
						c2.3-0.9,4.8-1.2,7.2-1.3c1.1,0,2.2,0,3.3,0.3c1.4,0.3,2.3,1.1,2.8,2.4c0.1,0.4,0.3,0.7,0.3,1.1c0.2,0.9,0.3,1.9,0.2,2.9
						c-0.1,0.7-0.2,1.4-0.3,2.1c0,0.1-0.1,0.2-0.1,0.4C167.4,113.2,166.1,114.3,164.5,114.5z"/>
					<path class="st10" d="M173.3,112.3c-0.2,0.1-0.5,0.1-0.7,0.1c-1.4,0-2.8-0.3-4.3-0.5c-0.2,0-0.4-0.1-0.5-0.2
						c0-0.1,0.1-0.2,0.1-0.4c0.1-0.7,0.3-1.4,0.3-2.1c0.1-1,0-2-0.2-2.9c0.2-0.2,0.5-0.3,0.9-0.3c0.5,0,0.9,0,1.4,0c1,0,2,0,2.9,0.1
						c0.6,0,0.9,0.3,0.9,0.9c0.1,1.4,0.1,2.7-0.3,4c-0.1,0.2-0.1,0.5-0.1,0.7C173.7,112.1,173.6,112.3,173.3,112.3z"/>
				</g>
				<g>
					<path class="st11" d="M97.9,191.8c1.2,0.1,2.3,0.5,3.3,1.1c0.8,0.5,1.5,1,2.4,1.6c0.6,0.4,1.3,0.9,2,1.5c1.3,1,2.5,2.1,3.7,3.3
						c0.4,0.4,0.7,0.9,1,1.4c0.6,1.3-0.1,2.7-1.3,3.2c-0.5,0.2-1,0.3-1.5,0.4c-0.7,0.1-1.5,0.1-2.2,0.2c-2.5,0.3-4.9,0.1-7.3-0.4
						c-1.1-0.2-2.1-0.5-3.2-1c-1.3-0.6-2-1.6-2.2-3c-0.1-0.4-0.1-0.8-0.1-1.2c0-1,0.2-1.9,0.5-2.9c0.2-0.7,0.5-1.3,0.8-1.9
						c0.1-0.1,0.1-0.2,0.2-0.3C94.8,192.3,96.3,191.6,97.9,191.8z"/>
					<path class="st10" d="M88.8,191.8c0.2,0,0.5,0,0.7,0.1c1.4,0.3,2.7,0.9,4,1.5c0.2,0.1,0.4,0.2,0.5,0.3
						c-0.1,0.1-0.1,0.2-0.2,0.3c-0.3,0.6-0.6,1.3-0.8,1.9c-0.3,0.9-0.5,1.9-0.5,2.9c-0.2,0.1-0.6,0.2-1,0c-0.4-0.1-0.9-0.2-1.3-0.3
						c-0.9-0.3-1.9-0.5-2.8-0.8c-0.6-0.2-0.8-0.5-0.7-1.1c0.3-1.3,0.5-2.6,1.2-3.9c0.1-0.2,0.2-0.4,0.3-0.6
						C88.4,192,88.6,191.8,88.8,191.8z"/>
				</g>
				<g>
					<path class="st12" d="M146.3,249.1c-0.5-1.1-0.7-2.2-0.7-3.4c0-0.9,0.1-1.8,0.2-2.9c0.1-0.7,0.1-1.6,0.3-2.5
						c0.2-1.6,0.5-3.3,1-4.9c0.2-0.6,0.4-1.1,0.7-1.5c0.8-1.2,2.4-1.3,3.4-0.5c0.4,0.3,0.7,0.7,1.1,1.1c0.5,0.6,0.8,1.2,1.3,1.8
						c1.5,2,2.6,4.2,3.3,6.5c0.3,1.1,0.6,2.1,0.7,3.2c0.1,1.4-0.4,2.5-1.5,3.4c-0.3,0.2-0.6,0.5-1,0.6c-0.8,0.5-1.8,0.8-2.7,1
						c-0.7,0.2-1.4,0.2-2.1,0.3c-0.1,0-0.2,0-0.4,0C148.4,251.4,147,250.5,146.3,249.1z"/>
					<path class="st10" d="M151,256.9c-0.1-0.2-0.2-0.4-0.3-0.7c-0.4-1.4-0.6-2.8-0.8-4.2c0-0.2,0-0.4,0-0.6c0.1,0,0.2,0,0.4,0
						c0.7-0.1,1.4-0.1,2.1-0.3c1-0.2,1.9-0.5,2.7-1c0.2,0.1,0.4,0.4,0.5,0.8c0.1,0.4,0.3,0.9,0.4,1.3c0.3,0.9,0.5,1.9,0.8,2.8
						c0.2,0.6,0,0.9-0.6,1.1c-1.3,0.5-2.5,0.9-3.9,0.9c-0.2,0-0.5,0.1-0.7,0.1C151.3,257.2,151.1,257.1,151,256.9z"/>
				</g>
				<g>
					<path class="st13" d="M268.3,310.1c-1.1,0.4-2.3,0.5-3.5,0.4c-0.9-0.1-1.8-0.3-2.9-0.5c-0.7-0.1-1.6-0.3-2.5-0.5
						c-1.6-0.4-3.2-0.9-4.7-1.5c-0.5-0.2-1-0.5-1.5-0.9c-1.1-0.9-1-2.5-0.2-3.4c0.4-0.4,0.8-0.7,1.2-0.9c0.6-0.4,1.3-0.7,1.9-1.1
						c2.1-1.3,4.4-2.1,6.8-2.7c1.1-0.2,2.2-0.4,3.3-0.4c1.4,0,2.5,0.6,3.3,1.8c0.2,0.3,0.4,0.7,0.5,1c0.4,0.9,0.6,1.8,0.7,2.8
						c0.1,0.7,0.1,1.4,0.1,2.1c0,0.1,0,0.2,0,0.4C270.9,308.4,269.8,309.6,268.3,310.1z"/>
					<path class="st10" d="M276.5,306.3c-0.2,0.1-0.5,0.2-0.7,0.2c-1.4,0.3-2.8,0.3-4.3,0.4c-0.2,0-0.4,0-0.5-0.1c0-0.1,0-0.2,0-0.4
						c0-0.7,0-1.4-0.1-2.1c-0.1-1-0.3-1.9-0.7-2.8c0.2-0.2,0.5-0.4,0.9-0.4c0.5-0.1,0.9-0.2,1.4-0.3c1-0.2,1.9-0.3,2.9-0.5
						c0.6-0.1,0.9,0.1,1.1,0.7c0.3,1.3,0.6,2.6,0.5,4c0,0.2,0,0.5,0,0.7C276.9,306,276.8,306.2,276.5,306.3z"/>
				</g>
				<g>
					<path class="st9" d="M274.3,162.8c0.8,0.9,1.4,1.9,1.8,3c0.3,0.9,0.5,1.7,0.8,2.8c0.2,0.7,0.4,1.6,0.6,2.5
						c0.3,1.6,0.6,3.2,0.7,4.9c0,0.6,0,1.1-0.2,1.7c-0.4,1.4-1.9,2-3,1.6c-0.5-0.2-0.9-0.4-1.4-0.7c-0.6-0.4-1.2-0.9-1.8-1.3
						c-2.1-1.3-3.8-3.1-5.3-5c-0.7-0.9-1.3-1.8-1.8-2.8c-0.6-1.3-0.5-2.5,0.3-3.7c0.2-0.3,0.4-0.7,0.7-0.9c0.6-0.7,1.4-1.4,2.2-1.9
						c0.6-0.4,1.2-0.7,1.9-1c0.1,0,0.2-0.1,0.3-0.1C271.6,161.3,273.2,161.6,274.3,162.8z"/>
					<path class="st10" d="M267.3,157c0.2,0.2,0.4,0.3,0.5,0.5c0.8,1.2,1.5,2.4,2.1,3.7c0.1,0.2,0.1,0.4,0.1,0.5
						c-0.1,0-0.2,0.1-0.3,0.1c-0.6,0.3-1.3,0.6-1.9,1c-0.8,0.5-1.6,1.1-2.2,1.9c-0.3,0-0.5-0.2-0.8-0.6c-0.3-0.4-0.6-0.7-0.8-1.1
						c-0.6-0.8-1.1-1.6-1.7-2.4c-0.3-0.5-0.3-0.9,0.2-1.3c1-0.9,2.1-1.7,3.4-2.2c0.2-0.1,0.4-0.2,0.6-0.3
						C266.8,156.8,267.1,156.9,267.3,157z"/>
				</g>
				<g>
					<path class="st12" d="M263.7,257.7c0.9-0.7,2-1.2,3.2-1.4c0.9-0.2,1.8-0.3,2.9-0.5c0.7-0.1,1.6-0.2,2.5-0.3
						c1.6-0.1,3.3-0.2,5-0.1c0.6,0,1.1,0.1,1.7,0.4c1.3,0.5,1.8,2.1,1.2,3.2c-0.2,0.5-0.5,0.9-0.8,1.3c-0.5,0.6-1,1.1-1.5,1.7
						c-1.6,1.9-3.5,3.4-5.6,4.7c-0.9,0.6-1.9,1.1-3,1.4c-1.3,0.4-2.6,0.2-3.7-0.7c-0.3-0.2-0.6-0.5-0.8-0.8
						c-0.7-0.7-1.2-1.5-1.6-2.4c-0.3-0.6-0.5-1.3-0.8-2c0-0.1-0.1-0.2-0.1-0.4C261.9,260.2,262.4,258.7,263.7,257.7z"/>
					<path class="st10" d="M257.2,264c0.2-0.2,0.4-0.3,0.6-0.5c1.2-0.7,2.6-1.2,3.9-1.7c0.2-0.1,0.4-0.1,0.6-0.1
						c0,0.1,0.1,0.2,0.1,0.4c0.2,0.7,0.5,1.3,0.8,2c0.4,0.9,0.9,1.7,1.6,2.4c-0.1,0.3-0.3,0.5-0.7,0.7c-0.4,0.2-0.8,0.5-1.2,0.7
						c-0.9,0.5-1.7,0.9-2.6,1.4c-0.5,0.3-0.9,0.2-1.2-0.3c-0.7-1.1-1.4-2.3-1.8-3.6c-0.1-0.2-0.2-0.4-0.2-0.7
						C256.9,264.4,257,264.2,257.2,264z"/>
				</g>
				<g>
					<path class="st13" d="M179.6,159.7c1.1-0.5,2.2-0.7,3.4-0.7c0.9,0,1.8,0.1,2.9,0.2c0.7,0.1,1.6,0.2,2.5,0.3
						c1.6,0.2,3.3,0.6,4.9,1c0.6,0.2,1.1,0.4,1.5,0.7c1.2,0.8,1.2,2.4,0.5,3.4c-0.3,0.4-0.7,0.7-1.1,1c-0.6,0.4-1.2,0.8-1.8,1.3
						c-2,1.5-4.2,2.5-6.6,3.3c-1.1,0.3-2.1,0.6-3.2,0.7c-1.4,0.1-2.5-0.4-3.4-1.5c-0.2-0.3-0.5-0.6-0.6-1c-0.5-0.8-0.8-1.8-1-2.7
						c-0.1-0.7-0.2-1.4-0.3-2.1c0-0.1,0-0.2,0-0.4C177.2,161.7,178.1,160.3,179.6,159.7z"/>
					<path class="st10" d="M171.7,164.3c0.2-0.1,0.5-0.2,0.7-0.3c1.4-0.4,2.8-0.6,4.2-0.7c0.2,0,0.4,0,0.6,0c0,0.1,0,0.2,0,0.4
						c0.1,0.7,0.1,1.4,0.3,2.1c0.2,1,0.5,1.9,1,2.7c-0.1,0.2-0.4,0.4-0.8,0.5c-0.4,0.1-0.9,0.3-1.3,0.4c-0.9,0.2-1.9,0.5-2.8,0.7
						c-0.6,0.2-0.9,0-1.1-0.6c-0.4-1.3-0.9-2.6-0.9-3.9c0-0.2,0-0.5-0.1-0.7C171.4,164.6,171.5,164.4,171.7,164.3z"/>
				</g>
				<g>
					<path class="st14" d="M107.7,253.8c-0.3,1.2-0.7,2.2-1.5,3.2c-0.6,0.7-1.2,1.4-1.9,2.2c-0.5,0.5-1.1,1.2-1.7,1.9
						c-1.2,1.2-2.4,2.3-3.7,3.3c-0.5,0.4-0.9,0.6-1.5,0.8c-1.4,0.5-2.7-0.4-3-1.6c-0.1-0.5-0.2-1-0.2-1.5c0-0.7,0-1.5,0-2.2
						c-0.1-2.5,0.4-4.9,1.2-7.2c0.3-1.1,0.8-2.1,1.3-3c0.7-1.2,1.8-1.8,3.2-1.9c0.4,0,0.8,0,1.2,0.1c1,0.1,1.9,0.4,2.8,0.8
						c0.6,0.3,1.3,0.6,1.9,1c0.1,0.1,0.2,0.1,0.3,0.2C107.5,250.7,108,252.2,107.7,253.8z"/>
					<path class="st10" d="M108.6,244.8c0,0.2-0.1,0.5-0.2,0.7c-0.5,1.3-1.2,2.6-1.9,3.8c-0.1,0.2-0.2,0.3-0.4,0.4
						c-0.1-0.1-0.2-0.1-0.3-0.2c-0.6-0.4-1.2-0.7-1.9-1c-0.9-0.4-1.8-0.7-2.8-0.8c-0.1-0.2-0.1-0.6,0.1-1c0.2-0.4,0.3-0.9,0.5-1.3
						c0.4-0.9,0.7-1.8,1.1-2.7c0.2-0.6,0.6-0.7,1.1-0.6c1.3,0.4,2.6,0.8,3.7,1.6c0.2,0.1,0.4,0.2,0.6,0.4
						C108.5,244.3,108.6,244.5,108.6,244.8z"/>
				</g>
				<g>
					<path class="st11" d="M300,139.7c-0.3-1.2-0.3-2.3-0.1-3.5c0.2-0.9,0.4-1.8,0.7-2.8c0.2-0.7,0.4-1.6,0.7-2.4
						c0.5-1.6,1.1-3.1,1.8-4.6c0.3-0.5,0.6-1,1-1.4c1-1,2.6-0.8,3.4,0.1c0.3,0.4,0.6,0.8,0.8,1.3c0.3,0.7,0.6,1.4,1,2
						c1.2,2.2,1.8,4.6,2.1,7c0.2,1.1,0.2,2.2,0.1,3.3c-0.1,1.4-0.8,2.4-2.1,3.1c-0.3,0.2-0.7,0.3-1.1,0.5c-0.9,0.3-1.9,0.5-2.9,0.5
						c-0.7,0-1.4,0-2.1-0.1c-0.1,0-0.2,0-0.4-0.1C301.5,142.4,300.4,141.3,300,139.7z"/>
					<path class="st10" d="M303.1,148.2c-0.1-0.2-0.1-0.5-0.2-0.7c-0.2-1.4-0.1-2.9,0-4.3c0-0.2,0.1-0.4,0.1-0.5
						c0.1,0,0.2,0,0.4,0.1c0.7,0.1,1.4,0.1,2.1,0.1c1,0,1.9-0.2,2.9-0.5c0.2,0.2,0.3,0.5,0.4,0.9c0,0.5,0.1,0.9,0.2,1.4
						c0.1,1,0.2,1.9,0.2,2.9c0,0.6-0.2,0.9-0.8,1c-1.3,0.2-2.7,0.4-4,0.2c-0.2,0-0.5,0-0.7,0C303.4,148.6,303.2,148.5,303.1,148.2z"
						/>
				</g>
				<g>
					<path class="st14" d="M192.8,76.2c0.3-1.2,0.8-2.2,1.5-3.1c0.6-0.7,1.2-1.4,1.9-2.2c0.5-0.5,1.1-1.2,1.7-1.8
						c1.2-1.2,2.4-2.3,3.7-3.3c0.5-0.3,1-0.6,1.5-0.8c1.4-0.4,2.7,0.5,3,1.7c0.1,0.5,0.2,1,0.2,1.5c0,0.7-0.1,1.5-0.1,2.2
						c0,2.5-0.5,4.9-1.3,7.2c-0.4,1-0.8,2.1-1.4,3c-0.7,1.2-1.8,1.8-3.3,1.8c-0.4,0-0.8,0-1.2-0.1c-1-0.1-1.9-0.4-2.8-0.8
						c-0.6-0.3-1.2-0.7-1.8-1c-0.1-0.1-0.2-0.1-0.3-0.2C192.9,79.3,192.4,77.7,192.8,76.2z"/>
					<path class="st10" d="M191.7,85.2c0-0.2,0.1-0.5,0.2-0.7c0.5-1.3,1.2-2.6,1.9-3.8c0.1-0.2,0.2-0.3,0.4-0.4
						c0.1,0.1,0.2,0.2,0.3,0.2c0.6,0.4,1.2,0.7,1.8,1c0.9,0.4,1.8,0.7,2.8,0.8c0.1,0.2,0.1,0.6-0.1,1c-0.2,0.4-0.3,0.9-0.5,1.3
						c-0.4,0.9-0.7,1.8-1.1,2.7c-0.2,0.5-0.6,0.7-1.1,0.6c-1.3-0.4-2.6-0.8-3.7-1.6c-0.2-0.1-0.4-0.2-0.6-0.4
						C191.8,85.7,191.7,85.4,191.7,85.2z"/>
				</g>
			</g>
		</g>
		<g>
			<g>
				<path class="st15" d="M264.5,351.8c-1.1-4.4-3-10.3-4.4-12.8c-0.9-1.5-2.7-3.5-4.9-5.8c-1.4-1.5-2.9-3.1-4.3-4.7
					c-3.4-4-15.9-22.8-17.9-37.6c-0.6-5.1-1.2-15.8-1.3-18.8c3,5,9,9.5,12.9,10.5c0.5,0.1,1,0.2,1.4,0.2c0.6,0,1.1-0.1,1.5-0.4
					c2.9-2.1,6.4-9.4,7-12.2c0.4-1.9-4.3-5.4-8.5-8.4c-1.9-1.4-3.7-2.7-4.6-3.6l-0.1-0.1c0.1-0.5,0.3-0.9,0.4-1.3
					c0.6-2.3-0.9-4.3-1.7-5.3c2.4-1.1,5.3-1.2,7.5-1.2c0.4,0,0.8,0,1.1,0c2.1-0.1,8.4-0.8,10.1-2.9c0.4-0.5,0.5-1,0.5-1.5
					c0-0.2-0.1-0.4-0.1-0.5l0-0.1c0.2-2-3.3-14.8-3.4-15c-0.6-2.2-3.5-2.1-5-2.1c-0.2,0-0.4,0-0.5,0h-0.1c-1.4,0-3.8,0.3-7.6,1
					c-0.1-0.1-0.1-0.1-0.2-0.2c0.3-0.6,0.7-1.1,1-1.6c1.4-2.2,2.6-4.1,2.9-5.6c0.4-1.8,0.5-3.3-0.7-4.7c0,0,0-0.1-0.1-0.1l0-0.1l0,0
					c-0.9-0.6-1.5-1.3-2.2-2c-1-1-2-2-3.6-3c-2.5-1.7-5.3-3.3-9.3-3.8c-0.1,0-0.2,0-0.3,0c-3.7,0-7.2,10.5-7.6,13.2
					c-0.9,0-1.7,0.1-2.4,0.2c-1.9,0.3-1.9,4.7-1.8,8.2c0,0.4,0,0.9,0,1.2c-0.9,0.5-2,1.4-3.4,2.8c-1.6,1.7-2.3,4.4-3,7
					c-0.1,0.5-0.2,0.9-0.4,1.4l0,0.1c-1.2-0.1-2.6,0-3.7,0.2l-0.2,0c-1.2-0.2-6.5-7.7-8.3-11.8c-1.8-4.2-8.1-9.7-9.8-10.9
					c-0.4-0.3-0.9-0.6-1.3-1c-1.9-1.5-4.2-3.5-6.5-2.3c-2.8,1.5-8.7,8.2-11.3,12l0,0c-0.1,0.1-0.2,0.2-0.2,0.3
					c-0.3,0.9,1.2,2.3,1.6,2.7c1.4,1.2,7,6,8.5,6.5l0.1,0c0,0,0,0,0,0c0.1,0.1,0.1,0.2,0.2,0.3c0.5,1,1.3,1.7,1.9,2.1
					c-1.4-0.2-2.9-0.3-3.9-0.1l-0.4,0c-2.1-0.2-7.5,0.1-10.7,1.3c-0.5,0.2-0.9,0.3-1.3,0.5c-2.7,0.9-5,1.8-5.2,3.9
					c0,0.4-0.1,0.9-0.2,1.6c-0.5,3.7-1.3,10.6,1.5,12.4c0,0.2,0.1,0.3,0.2,0.4c0.4,0.5,1.4,0.6,2.8,0.6c0.8,0,1.7,0,2.7-0.1
					c0.5,0,1.1,0,1.7-0.1c5.1-0.2,5.9-0.7,8.3-2.1l0.2-0.1l0,0c0.1,0,0.1,0.1,0.2,0.1l0.1,0c0.2,0.2,0.4,0.4,0.6,0.5
					c0.4,0.1,1.2,0.2,2.1,0.2c-1.9,1.1-11,8.6-10.8,10.2c0,0.1,0,0.2,0.1,0.2v0c0.2,5.2,1.6,9.1,4.2,12.1c0.2,0.2,0.4,0.4,0.6,0.7
					c1,1.2,2.2,2.7,4,2.7c0.6,0,1.3-0.2,2.1-0.6c3.3-1.9,9.1-6,10.9-8.9c0.9,0.3,1.6,0.4,2.3,0.4c0.6,0,1.1-0.1,1.6-0.4
					c0.1,0,0.2,0,0.3,0c0.3,0,0.7-0.1,1-0.2c-2.5,7.4-8,27.1-8.5,30.5c-0.6,3.6-3.2,15.4-5.2,20.7c-0.6,1.7-1.2,3.1-1.8,4.4
					c-1.3,3-2.6,6.1-4.6,12.6c-2.5,8.3-4.5,13.7-6,16c-1.2,2-2.4,5.5-2.2,7.3c0,0.3,0.1,0.4,0.2,0.4c0,0,0,0,0.1,0
					c0.2,0,0.4-0.2,0.7-0.6c1-1.1,3.1-3.5,7.4-4c5.4-0.5,7.5-4.7,8.7-7.2c0.3-0.6,0.5-1,0.7-1.3c0.9,2.3,2.4,5,4,7.3
					c1.8,2.5,3.4,4.1,4.5,4.4c0.2,0.1,0.4,0,0.6-0.1c0.7-0.5,0.8-2.2,1-4.2c0.2-2.6,0.5-5.8,2-7.1l0.1-0.1l-0.1-0.1
					c-0.1,0-0.1-0.1-0.2-0.1c0.6,0.2,1.2,0.3,1.9,0.3c1.5,0,3.2-0.4,5.1-1.3c2.9-1.3,5.8-3.5,7.4-5.7c0.1-0.1,0.1-0.1,0.2-0.1h0
					c0.4,0,1.1,0.9,1.9,1.9c1.3,1.7,2.9,3.9,4.8,4.2c0.1,0,0.2,0,0.3-0.1c0.6-0.6,0.3-3.8-0.2-6.8c1.5,0.4,3.6,2.9,5.1,4.8
					c1.1,1.4,1.7,2.1,2,2.1c0,0,0,0,0,0c0.1,0,0.1-0.1,0.1-0.2c0.1-0.5,0.4-1.3,0.7-2.5c0.4-1.4,1-3.2,1.7-5.6
					c0.7,0.8,2.2,1.6,4,2.5c0.8,0.4,1.6,0.8,2.4,1.3c0.4,1.2,0.7,2.5,1.1,3.8c1.6,5.4,3.3,11,2.3,12.9l-0.1,0.3l0.3-0.2
					c0.4-0.3,0.9-0.7,1.4-1.1c2.8-2.2,6.3-4.9,6.8-6.9c3.3,2.3,7.2,3.4,10.6,4.3c2.4,0.6,4.6,1.3,6.3,2.2c0.2,0.1,0.4,0.1,0.5,0
					C266.5,363.6,265.8,356.8,264.5,351.8z M195.9,249L195.9,249C195.9,249,195.9,249,195.9,249C195.9,249,195.9,249,195.9,249z"/>
				<g>
					<g>
						<path class="st16" d="M233.5,270.5c0-1.5-2.6-3.2-3.8-3.9l-0.2-0.1c-0.5-0.3-2.7-2.1-4.9-3.8c-1.9-1.5-4-3.1-4.7-3.6
							c0,0-0.1,0.1-0.1,0.1c-0.1,0.1-0.2,0.2-0.3,0.3c0.9,0.8,2.8,2.8,4.9,4.8c2.7,2.7,5.5,5.5,6,5.9c0.3,0.2,0.5,0.4,0.7,0.6l0,0
							c0,0,0,0,0,0c0,0,0,0,0,0c0.3,0.2,0.6,0.3,0.8,0.3c0,0,0.1,0,0.1,0c1.5-0.1,1.5-0.4,1.5-0.4
							C233.5,270.6,233.5,270.5,233.5,270.5z"/>
						<path class="st16" d="M197.4,269.3c-2,1.5-3.1,2.6-1.1,5.9c0,0,0,0,0,0l0,0.1v0l-0.1,0c0,0,0,0,0,0c0.1,0,0.2,0,0.3,0
							c0.3,0,0.7-0.1,1-0.2c1.1-0.4,2.1-1.2,2.3-1.5c1.7-1.9,4.6-6.8,5.1-7.7c0.1-0.2,0.3-0.6,0.6-1.1c0.7-1.2,1.6-2.8,2-3.6
							c-0.2-0.2-0.5-0.3-0.7-0.6C205.6,262.1,199.2,267.9,197.4,269.3z"/>
						<path class="st16" d="M183.4,255.5c-0.7-0.1-1.3-0.1-1.7-0.2c-1.3-0.1-2.5-0.1-3.1,0.6c-0.4,0.5-0.4,1.3-0.1,2.4l0,0.1l-0.1,0
							c0.2,0.2,0.4,0.4,0.6,0.5c0.4,0.1,1.2,0.2,2.1,0.2c1.3,0,2.9-0.2,3.8-0.4c2.5-0.7,4.4-1.3,5.8-1.9c0,0,0,0,0,0
							c0.1-0.1,0.2-0.1,0.3-0.2c0,0,0,0,0,0c0,0,0,0,0,0c0,0,0,0,0,0c0,0,0,0,0,0c0.3-0.2,0.6-0.3,0.8-0.5c0.1,0,0.1-0.1,0.1-0.1
							l0.1,0c0,0-0.1,0-0.1,0C190.9,256.2,186.3,255.7,183.4,255.5z"/>
						<path class="st16" d="M192.4,255.9L192.4,255.9l-0.1,0C192.3,255.9,192.4,255.9,192.4,255.9z"/>
					</g>
					<g>
						<path class="st17" d="M178.3,258.3L178.3,258.3c-1.9-0.9-2.8-3.7-3.2-6.7c0-0.1,0-0.1,0-0.2c-1.8,0.2-5.3,0.8-6.9,1.1
							c-1.6,0.3-2.4,0.7-3.9,1.8c-1.3,1-1.5,2.3-1.8,4c0,0.2-0.1,0.4-0.1,0.7c0,0.3,0,0.5,0,0.7c0,0.2,0.1,0.3,0.2,0.4
							c0.4,0.5,1.4,0.6,2.8,0.6c0.8,0,1.7,0,2.7-0.1c0.5,0,1.1,0,1.7-0.1c5.1-0.2,5.9-0.7,8.3-2.1L178.3,258.3z"/>
						<path class="st17" d="M237,248.9l-0.1,0h0l0,0l0.2,0.1c0,0,0,0,0,0c0,0,0,0,0.1,0c1.1,0.4,1.6,0.9,2,1.3
							c0.1,0.1,0.2,0.3,0.4,0.4c0.1,0.1,0.3,0.3,0.6,0.6c2.4-1.1,5.3-1.2,7.5-1.2c0.4,0,0.8,0,1.1,0c2.1-0.1,8.4-0.8,10.1-2.9
							c0.4-0.5,0.5-1,0.5-1.5c0-0.2-0.1-0.4-0.1-0.5c-0.1-0.3-0.4-0.6-0.7-0.9c-1.8-1.3-6-0.3-8.3,0.3c-0.2,0.1-0.4,0.1-0.6,0.1
							c-1.7,0.4-5.7,1.8-9.1,3C239.1,248.1,237.9,248.5,237,248.9z"/>
						<path class="st17" d="M181.3,259.1c-1.9,1.1-11,8.6-10.8,10.2c0,0.1,0,0.2,0.1,0.2c0,0,0.1,0.1,0.2,0.1c0.1,0,0.1,0,0.2,0
							c1.3,0,5.1-2.1,6-2.7c0.9-0.6,8.7-6,12.4-8.7l0,0c0,0,0,0,0,0c0.2-0.2,0.4-0.4,0.5-0.6c0.3-0.3,0.6-0.6,1-0.9
							c-1.3,0.6-3.3,1.3-5.8,1.9C184.2,258.9,182.6,259.1,181.3,259.1z"/>
						<path class="st17" d="M244.4,244.4L244.4,244.4C244.4,244.4,244.4,244.4,244.4,244.4L244.4,244.4z"/>
						<path class="st17" d="M264.5,351.8c-1.1-4.4-3-10.3-4.4-12.8c-0.9-1.5-2.7-3.5-4.9-5.8c-1.4-1.5-2.9-3.1-4.3-4.7
							c-3.4-4-15.9-22.8-17.9-37.6c-0.6-5.1-1.2-15.8-1.3-18.8v-0.3l0,0c-0.2-0.3-0.3-0.6-0.6-0.9c0,0,0,0,0,0l0,0
							c-0.2-0.2-0.4-0.4-0.7-0.6c-0.5-0.4-3.3-3.2-6-5.9c-2.1-2.1-4-4-4.9-4.8c0.1-0.1,0.2-0.2,0.3-0.3c0,0,0.1-0.1,0.1-0.1
							c0.5-0.6,0.6-1.3,0.5-2.1c-0.1-0.9-0.9-5.1-1.5-7.9c0,0,0,0,0,0l0,0c0,0,0-0.1,0-0.1l0,0c4.3-2.1,13.3-6.2,15.7-6.6
							c0.7-0.1,1.5-0.3,2.4-0.5c2.2-0.5,4.8-1.2,6.2-0.6c1,0.4,1.7,1.5,1.6,2.4c0,0,0,0,0,0.1c0,0,0,0,0,0c0,0.2-0.1,0.4-0.2,0.6
							l0.4-0.5c1.7-1,0.7-4.1,0-6.4c-0.2-0.7-0.4-1.4-0.5-1.8c-0.4-3.2-0.9-5.3-1.6-6.3c-0.1-0.1-0.1-0.2-0.2-0.2
							c-0.1-0.1-0.1-0.1-0.2-0.2c-0.6-0.6-1.2-0.6-1.7-0.7c-0.1,0-0.2,0-0.2,0c-0.1,0-0.3,0-0.4-0.1c-1-0.1-1.9-0.2-4.8,0.4
							c0,0,0,0,0,0c0,0-0.1,0-0.1,0c0,0-0.1,0-0.1,0c0,0,0,0,0,0l0,0h0c-3,0.7-4.5,2.2-7.1,4.7c-0.3,0.3-0.5,0.5-0.8,0.8
							c0.8,0.7,1.7,1.5,2.2,2.3c1.5,2.3-0.2,4.1-1,4.9c-1.1,1-7.9,4.5-10.1,5.2c0,0,0-0.1-0.1-0.1c-0.6-1.8-1.7-3.9-2.9-3.9
							c-0.2,0-0.4,0-0.8-0.1c-0.7-0.1-1.8-0.2-2.9-0.2c-1.2-0.1-2.6,0-3.7,0.2c-0.9,0.2-1.7,0.5-2.2,1c-2.1-0.7-7.2-6.1-9.5-8.5
							c-0.3-0.3-0.6-0.6-0.8-0.8c-0.2-0.2-0.5-0.5-0.8-0.9c-1.9-2.1-5.5-6-7.6-5c-1.7,0.9-4.1,3-5.7,4.9c-0.5,0.7-0.9,1.3-1.2,1.8
							c-0.4,0.8-0.2,1.9,0.3,3c0,0,0,0,0,0c0.1,0.1,0.1,0.2,0.2,0.3c0.5,1,1.3,1.7,1.9,2.1c0.2,0.1,0.5,0.2,0.7,0.2
							c0.2,0,0.4,0.1,0.7,0.1c0.9,0.1,2.2,0.3,3.5,0.5c0.2,0,0.3,0.1,0.5,0.1c0.1-0.8,0.4-1.4,0.8-1.9c0.6-0.6,1.6-0.9,2.9-0.7
							c4.8,0.4,8.6,2.9,9.8,3.8c1.3,0.9,2.3,1.3,3.2,1.7c0.1,0.1,0.3,0.1,0.4,0.2c0,0,0,0,0,0.1c-1,3-0.5,6.7,0,10c0,0,0,0,0,0
							c0.1,0.8,0.3,1.6,0.4,2.4c0.1,0.7,0.3,1.4,0.4,2c0.1,1,0.5,1.7,1.1,2.3c0.2,0.2,0.5,0.4,0.7,0.6c0.5,0.3,1,0.5,1.4,0.6
							c0.1,0,0.2,0,0.2,0c0.2,0,0.3,0,0.5,0c0,0,0.1,0,0.1,0c0.4,0,1.5-0.1,2.7-0.3c0.7-0.1,1.5-0.3,2.3-0.4
							c0.3,4.8,1.1,17.5,2,23.7c0.9,6,11.6,35,16.1,43.7c4.5,8.8,7.8,18.9,7.5,23l0,0.1l-0.1-0.1c-1.2-1.1-2.6-2-4-2.8
							c0.4,1.2,0.7,2.5,1.1,3.8c1.6,5.4,3.3,11,2.3,12.9l-0.1,0.3l0.3-0.2c0.4-0.3,0.9-0.7,1.4-1.1c2.8-2.2,6.3-4.9,6.8-6.9
							c3.3,2.3,7.2,3.4,10.6,4.3c2.4,0.6,4.6,1.3,6.3,2.2c0.2,0.1,0.4,0.1,0.5,0C266.5,363.6,265.8,356.8,264.5,351.8z"/>
					</g>
					<g>
						<path class="st18" d="M174.7,244.4c0-0.3,0-0.6,0-0.8c-0.1-2.8,1.6-3.1,3.9-3.6c0.1,0,0.2,0,0.3,0l-0.4,0
							c-2.1-0.2-7.5,0.1-10.7,1.3c-0.5,0.2-0.9,0.3-1.3,0.5c-2.7,0.9-5,1.8-5.2,3.9c0,0.4-0.1,0.9-0.2,1.6
							c-0.5,3.7-1.3,10.6,1.5,12.4c-0.1-0.2-0.1-0.4,0-0.7c0-0.2,0.1-0.5,0.1-0.7c0.3-1.7,0.5-3,1.8-4c1.5-1.1,2.2-1.5,3.9-1.8
							c1.6-0.3,5.1-0.9,6.9-1.1C174.7,248.8,174.7,246,174.7,244.4z"/>
						<path class="st18" d="M172.4,227.8c0.1,0,0.2,0,0.3,0.1c0.3,0.1,0.5,0.2,0.8,0.3c0.1,0,0.2,0.1,0.3,0.1
							c0.4,0.2,0.8,0.4,1.2,0.6c0.2,0.1,0.4,0.2,0.6,0.3c2.2,1.2,4.6,2.8,5.6,3.5c0.1,0,0.1,0.1,0.1,0.1c0.1,0.1,0.1,0.1,0.2,0.1
							c1.5-1.9,3.9-4,5.7-4.9c2.1-1.1,5.7,2.9,7.6,5c0.3,0.3,0.6,0.6,0.8,0.9c0.2,0.2,0.4,0.5,0.8,0.8c2.2,2.4,7.4,7.9,9.5,8.5
							c0.5-0.5,1.3-0.8,2.2-1l-0.2,0c-1.2-0.2-6.5-7.7-8.3-11.8c-1.8-4.2-8.1-9.7-9.8-10.9c-0.4-0.3-0.9-0.6-1.3-1
							c-1.9-1.5-4.2-3.5-6.5-2.3c-2.8,1.5-8.7,8.2-11.3,12c0.2-0.2,0.5-0.3,0.9-0.4C171.7,227.6,172,227.7,172.4,227.8z"/>
						<path class="st18" d="M235.1,228.5L235.1,228.5C235.1,228.5,235.1,228.5,235.1,228.5l0,0.1l0,0l0.1-0.1l0,0c0,0,0,0,0.1-0.1
							c0,0,0,0,0,0s0,0,0,0c0,0,0,0,0,0c0,0-0.1,0-0.1,0C235.1,228.5,235.1,228.5,235.1,228.5z"/>
						<path class="st18" d="M229.2,222c2.7,1.1,4.9,3.4,6,6.3c0.5-0.6,1.2-1.8,2-3.1c0.7-1.1,1.4-2.3,1.8-3c1-1.4,4-3.6,6.3-5.4
							l0.2-0.1c-0.9-0.6-1.5-1.3-2.2-2c-1-1-2-2-3.6-3c-2.5-1.7-5.3-3.3-9.3-3.8c-0.1,0-0.2,0-0.3,0c-3.7,0-7.2,10.5-7.6,13.2
							C224.8,221.1,227.5,221.3,229.2,222z"/>
						<path class="st18" d="M255.8,230c-0.6-2.2-3.5-2.1-5-2.1c-0.2,0-0.4,0-0.5,0h-0.1c-1.4,0-3.8,0.3-7.6,1
							c0.1,0.1,0.1,0.2,0.2,0.2c0.7,1.1,1.3,3.2,1.6,6.3c0,0.4,0.2,1,0.5,1.8c0.7,2.3,1.7,5.3,0,6.4l-0.4,0.5c0,0.1-0.1,0.1-0.1,0.2
							c0,0,0,0,0,0c0,0,0,0,0,0c-0.5,0.6-1.6,1-3,1.1c-1.3,0.1-2.7,0.1-4.1,0.2c-3.2,0.1-6.4,0.2-9.3,0.8c-2.3,0.4-4.2,1.1-5.7,1.7
							c0,0-0.1,0-0.1,0c0.6-0.1,1.3-0.2,2.1-0.3c3.9-0.4,7.4,0.1,10.7,0.6c0.8,0.1,1.4,0.3,1.9,0.5h0l0.1,0c1-0.3,2.2-0.8,3.4-1.2
							c3.5-1.2,7.4-2.6,9.1-3c0.2,0,0.4-0.1,0.6-0.1c2.3-0.5,6.5-1.5,8.3-0.3c0.3,0.2,0.6,0.5,0.7,0.9l0-0.1
							C259.3,243,255.8,230.1,255.8,230z"/>
						<path class="st18" d="M231.1,270.8C231.1,270.8,231.1,270.8,231.1,270.8C231.1,270.8,231.1,270.8,231.1,270.8
							C231.1,270.8,231.1,270.8,231.1,270.8z"/>
						<path class="st18" d="M246.1,261.7c-1.9-1.4-3.7-2.7-4.6-3.6l-0.1-0.1c-0.8,2.8-1.7,6.4-1.8,7.5c-0.1,1.4-1.6,4.3-6.1,5.2
							c0,0.1,0,0.3-1.5,0.4c0,0-0.1,0-0.1,0c-0.2,0-0.4-0.1-0.8-0.3c0.3,0.3,0.5,0.6,0.6,0.9l0,0v0.3c3,5,9,9.5,12.9,10.5
							c0.5,0.1,1,0.2,1.4,0.2c0.6,0,1.1-0.1,1.5-0.4c2.9-2.1,6.4-9.4,7-12.2C254.9,268.2,250.2,264.7,246.1,261.7z"/>
						<path class="st18" d="M187.2,261c0.5-0.7,1.2-1.8,2.1-2.8c-3.7,2.7-11.5,8.1-12.4,8.7c-0.9,0.6-4.7,2.7-6,2.7
							c-0.1,0-0.1,0-0.2,0c-0.1,0-0.2-0.1-0.2-0.1v0c0.2,5.2,1.6,9.1,4.2,12.1c0.2,0.2,0.4,0.4,0.6,0.7c1,1.2,2.2,2.7,4,2.7
							c0.6,0,1.3-0.2,2.1-0.6c3.3-1.9,9.1-6,10.9-8.9c-0.9-0.3-2.1-0.7-3.5-1.2c-3.7-1.4-5.2-3.4-5-6.4
							C184,266.6,185.4,263.7,187.2,261z"/>
						<path class="st18" d="M216.9,285c-1-6.2-1.7-18.9-2-23.7c-0.8,0.2-1.6,0.3-2.3,0.4c0.5,3.1,2.7,21.2,3,26
							c0.3,4.9-0.6,12.9-1.2,18.7c-0.1,0.8-0.1,1.7-0.2,2.5c0,1,0.1,2.2,0.1,3.2c0.2,1.8,0.5,3.5,0.7,5.2c0.2,1.5,0.5,2.8,0.6,4.1
							c0.3,4,3.1,17.5,4,21.1c0.3,1.1,0.6,2.5,0.8,4c1.5,0.4,3.6,2.9,5.1,4.8c1.1,1.4,1.7,2.1,2,2.1c0,0,0,0,0,0
							c0.1,0,0.1-0.1,0.1-0.2c0.1-0.5,0.4-1.3,0.7-2.5c0.4-1.4,1-3.2,1.7-5.6c0.7,0.8,2.2,1.6,4,2.5c0.8,0.4,1.6,0.8,2.4,1.3
							c1.4,0.8,2.8,1.7,4,2.8l0.1,0.1l0-0.1c0.4-4.1-2.9-14.2-7.5-23C228.5,320,217.9,291,216.9,285z"/>
						<path class="st18" d="M205.7,265c-0.3,0.5-0.5,0.9-0.6,1.1c-0.5,0.8-3.4,5.8-5.1,7.7c-0.3,0.3-1.3,1.1-2.3,1.5
							c-2.5,7.4-8,27.1-8.5,30.5c-0.6,3.6-3.2,15.4-5.2,20.7c-0.6,1.7-1.2,3.1-1.8,4.4c-1.3,3-2.6,6.1-4.6,12.6
							c-2.5,8.3-4.5,13.7-6,16c-1.2,2-2.4,5.5-2.2,7.3c0,0.3,0.1,0.4,0.2,0.4c0,0,0,0,0.1,0c0.2,0,0.4-0.2,0.7-0.6
							c1-1.1,3.1-3.5,7.4-4c5.4-0.5,7.5-4.7,8.7-7.2c0.3-0.6,0.5-1,0.7-1.3c0.9,2.3,2.4,5,4,7.3c1.8,2.5,3.4,4.1,4.5,4.4
							c0.2,0.1,0.4,0,0.6-0.1c0.7-0.5,0.8-2.2,1-4.2c0.2-2.6,0.5-5.8,2-7.1l0.1-0.1l-0.1-0.1c-0.1,0-0.1-0.1-0.2-0.1
							c-0.4-0.1-0.8-0.3-1.2-0.5l0,0l0-0.1c0.1-0.4,0.3-1.5,0.7-3.3c0.4-1.5,0.9-3.4,1.4-5.9c0,0,0-0.1,0-0.1
							c0.2-1.1,0.4-2.3,0.6-3.3c0-0.1,0-0.1,0-0.2c0.5-3.1,1-6.9,1.4-11.3c0,0,0-0.1,0-0.1c0.1-1.6,0.3-3.5,0.4-5.6
							c0-0.2,0-0.3,0-0.5c0.2-2.9,0.3-6.3,0.5-9.8c0.4-7.8,0.7-15.8,1.2-18.9c0.9-6.4,2-13.5,3.5-17.8c0.8-2.4,0.8-4.5,0.9-7
							c0-2.2,0.1-4.6,0.6-7.7c-0.4-0.1-1-0.3-1.4-0.6C207.2,262.2,206.3,263.8,205.7,265z"/>
						<path class="st18" d="M192.5,255.9c0,0,0.1,0,0.1,0c0.1,0,0.1,0,0.2,0c0,0,0,0,0,0c0.1,0,0.2,0,0.3,0c1.3,0,3.4-0.4,5.6-0.8
							c0.1,0,0.3-0.1,0.4-0.1c0,0,0,0,0,0c0.7-0.1,1.4-0.3,2-0.4c1.3-0.2,2.6-0.4,3.7-0.5h0c0.1,0,0.1,0,0.2,0c0,0,0,0,0,0h0.1
							c0,0,0,0,0,0c0,0-0.1,0-0.1,0c-0.6-3.3-1-7,0-10c0,0,0,0,0-0.1c-0.1-0.1-0.3-0.1-0.4-0.2c-0.9-0.4-1.9-0.8-3.2-1.7
							c-1.2-0.8-5-3.4-9.8-3.8c-1.3-0.1-2.3,0.1-2.9,0.7c-0.5,0.4-0.7,1.1-0.8,1.9c-0.2,1.1-0.1,2.6-0.1,4.2c0,0.5,0.1,1.1,0.1,1.7
							c0,0.2,0,0.4,0,0.7c0,0.1,0,0.3,0,0.4c0,0.4,0.1,0.9,0.2,1.3c0.1,0.5,0.2,0.9,0.3,1.4c0,0.1,0.1,0.2,0.1,0.3c0,0,0,0,0,0.1
							c0.1,0.2,0.1,0.3,0.2,0.5c0,0,0,0.1,0,0.1c0.1,0.2,0.1,0.4,0.2,0.6c0,0,0,0.1,0,0.1c0.1,0.2,0.1,0.3,0.2,0.5
							c0.2,0.4,0.4,0.7,0.6,1.1c0,0.1,0.1,0.1,0.1,0.2c0.1,0.2,0.2,0.3,0.4,0.5c0.1,0.1,0.1,0.1,0.2,0.2c0.1,0.1,0.2,0.2,0.3,0.3
							c0.1,0.1,0.1,0.1,0.2,0.2c0.1,0.1,0.1,0.1,0.2,0.2c0.1,0.1,0.1,0.1,0.2,0.1c0.1,0.1,0.2,0.1,0.4,0.2c0,0,0.1,0,0.1,0.1
							c0,0,0.1,0,0.1,0.1c0.1,0,0.1,0.1,0.2,0.1C192.3,255.9,192.4,255.9,192.5,255.9C192.4,255.9,192.4,255.9,192.5,255.9
							L192.5,255.9C192.4,255.9,192.4,255.9,192.5,255.9z"/>
						<path class="st18" d="M215.3,242.3c1.2,0.1,2.3,2.1,2.9,3.9c0,0,0,0.1,0.1,0.1c2.3-0.7,9-4.2,10.1-5.2c0.8-0.7,2.4-2.6,1-4.9
							c-0.5-0.7-1.3-1.5-2.2-2.3c-0.6-0.5-1.1-0.9-1.5-1.2c-1.5-1.1-3.1-2.2-4-2.6c-0.4-0.2-1.4-0.5-3.3,0.6c-0.9,0.5-2,1.4-3.4,2.8
							c-1.6,1.7-2.3,4.4-3,7c-0.1,0.5-0.2,0.9-0.4,1.4l0,0.1c1.1,0,2.2,0.2,2.9,0.2C214.9,242.3,215.1,242.3,215.3,242.3z"/>
					</g>
				</g>
			</g>
		</g>
	</g>
</g>
</svg>
