<?xml version="1.0" encoding="utf-8"?>
<!-- Generator: Adobe Illustrator 22.0.0, SVG Export Plug-In . SVG Version: 6.00 Build 0)  -->
<svg version="1.1" id="Calque_1" xmlns="http://www.w3.org/2000/svg" xmlns:xlink="http://www.w3.org/1999/xlink" x="0px" y="0px"
	 viewBox="0 0 432 432" style="enable-background:new 0 0 432 432;" xml:space="preserve">
<style type="text/css">
	.st0{fill:#E0EDF3;}
	.st1{fill:#A5C0DF;}
	.st2{fill:#3F668A;}
	.st3{fill:#162740;}
	.st4{fill:#7B9EC7;}
	.st5{fill:#571419;}
	.st6{fill:#020203;}
	.st7{fill:#F39323;}
	.st8{fill:#8C633A;}
	.st9{fill:#6189B1;}
	.st10{fill:#A8C4D3;}
	.st11{fill:#989389;}
	.st12{fill:#DED3C6;}
	.st13{fill:#36502D;}
	.st14{fill:#DAA405;}
	.st15{fill:#DFE6ED;}
	.st16{fill:#D06C5D;}
	.st17{fill:#972021;}
	.st18{fill:#79986F;}
	.st19{fill:#FFF0BA;}
	.st20{fill:#C9D0D6;}
	.st21{fill:#E7E6E6;}
	.st22{fill:#CDCCCC;}
	.st23{fill:#B4B4B4;}
	.st24{fill:#FFFFFF;}
	.st25{fill:#9F1E29;}
	.st26{fill:#754D24;}
	.st27{fill:#A67D52;}
	.st28{fill:#CDE3EA;}
	.st29{fill:#F2F2F2;}
	.st30{fill:#C7B29A;}
	.st31{fill:#BCA48A;}
	.st32{fill:#D79A5D;}
	.st33{fill:#90443F;}
	.st34{fill:#D6A14D;}
	.st35{fill:#365461;}
	.st36{fill:#4C672C;}
	.st37{fill:#7D915E;}
	.st38{fill:#67302B;}
	.st39{fill:#96B8AA;}
	.st40{fill:#C5463F;}
	.st41{fill:#AFA453;}
	.st42{fill:#F1969D;}
	.st43{fill:#603914;}
	.st44{fill:#82171C;}
	.st45{fill:#066938;}
	.st46{fill:#9A9999;}
	.st47{fill:#C9913E;}
	.st48{fill:#E2A1BC;}
	.st49{fill:#808181;}
	.st50{fill:#C1292E;}
	.st51{fill:#EDCBA9;}
	.st52{fill:#699CBB;}
	.st53{fill:#4E4D4D;}
	.st54{fill:#C29245;}
	.st55{fill:#BB7E28;}
	.st56{fill:#C8904C;}
	.st57{fill:#BB7926;}
	.st58{fill:#A3282E;}
</style>
<g>
	<g>
		<path class="st13" d="M295.4,341.8c0.3,0.2,0.5,0.4,0.7,0.6c0.4,0.3,0.8,0.6,1.2,1c1,1.1,0.8,2.3-0.4,3.1c-0.5,0.3-1,0.6-1.6,0.7
			c-1.3,0.2-2.5,0.4-3.8,0.5c-4.8,0.1-9.4-0.8-13.8-2.5c-2.7-1-5.3-2.1-8-3.2c-0.2-0.1-0.5-0.2-0.9-0.3c0.2,0.5,0.4,0.8,0.5,1.1
			c0.4,0.8,0.8,1.6,0.8,2.6c0.1,1.4-0.5,2.4-1.7,3c-1.3,0.7-2.7,0.7-4.1,0.4c-1-0.2-2-0.4-3.1-0.7c0,0.3,0.1,0.6,0.1,0.8
			c0.2,1.7-0.7,2.8-2.4,3.1c-1.4,0.2-2.7,0-4-0.5c-1.6-0.5-3.2-1.1-4.8-1.6c-0.3-0.1-0.7-0.2-1-0.3c-0.1,0.1-0.1,0.2-0.2,0.3
			c-0.4,1.8-2,2.8-4.2,2.2c-1-0.3-1.8-0.8-2.7-1.4c-0.4-0.3-0.8-0.6-1.2-0.9c-0.1,1.2-0.2,2.2-0.3,3.3c-0.1,0.6-0.1,1.1-0.3,1.7
			c-0.6,1.6-2.1,2-3.4,1.4c-0.3-0.1-0.6-0.3-0.9-0.5c-1.5-1.1-2.9-2.3-4.1-3.6c-0.1-0.1-0.2-0.2-0.4-0.4c-0.1,0.5-0.2,1-0.2,1.4
			c-0.1,2.5-0.3,5.1-0.4,7.6c-0.1,1.7-0.2,3.4-0.3,5.1c-0.1,1.1-0.4,1.4-1.6,1.4c-1.4,0-2.7-0.1-4-0.5c-0.2-0.1-0.5-0.1-0.7-0.2
			c-0.8-0.3-1.2-0.8-1.2-1.7c0-0.8-0.1-1.5-0.1-2.3c0-3.1-0.1-6.1,0.2-9.2c0.1-0.9,0.1-1.9,0.2-2.9c-1.4,0.4-2.5,0.1-3.6-0.7
			c-0.3,0.3-0.5,0.7-0.7,0.9c-0.5,0.5-1,1.1-1.5,1.6c-1.9,1.4-4,0.9-4.9-1.3c-0.4-1-0.6-2.1-0.8-3.2c-0.2-0.9-0.2-1.8-0.4-2.8
			c-0.2,0.2-0.3,0.3-0.4,0.4c-0.6,0.8-1.2,1.7-1.8,2.4c-1.4,1.6-3.1,2.8-5.2,3.1c-1.5,0.2-2.9-0.1-4.1-1.1c-0.1-0.1-0.3-0.2-0.4-0.3
			c-0.7-0.7-1.5-0.9-2.5-0.7c-0.5,0.1-0.9,0.1-1.4,0.2c-1.5,0.2-2.4-0.3-3.1-1.6c-0.1-0.2-0.2-0.3-0.3-0.5c-0.4,0.1-0.7,0.3-1.1,0.4
			c-1.5,0.5-3,1.1-4.6,1.5c-0.6,0.2-1.2,0.2-1.9,0.1c-1.2-0.1-1.8-1.2-1.3-2.3c0.3-0.6,0.7-1.2,1.2-1.9c-0.9,0.1-1.7,0.1-2.5,0.2
			c-3.9,0.2-7.7,0.5-11.6-0.3c-1.4-0.3-2.8-0.7-4.2-1.2c-0.6-0.2-1.3-0.6-1.8-1.1c-1.1-0.9-1.1-2.2-0.1-3.1c0.7-0.6,1.4-1.2,2.2-1.7
			c2.2-1.4,4.5-2.8,6.8-4.1c0.2-0.1,0.3-0.2,0.6-0.4c-1.8,0.2-3.5,0.5-5.3,0.6c-1.1,0.1-2.2,0.1-3.3,0.1c-0.6,0-1.1-0.2-1.6-0.4
			c-1.3-0.7-1.8-2.1-1.1-3.4c0.2-0.4,0.5-0.8,0.8-1.1c0.9-1.1,2-2,3.2-2.8c0.3-0.2,0.5-0.4,0.8-0.7c-0.2,0-0.3,0-0.5,0.1
			c-1.8,0.4-3.6,0.8-5.4,1.1c-0.9,0.1-1.9,0.1-2.8-0.1c-0.6-0.1-1.3-0.4-1.8-0.8c-0.6-0.4-1.1-0.6-1.8-0.6c-0.8-0.1-1.7-0.2-2.5-0.4
			c-0.5-0.1-1-0.3-1.5-0.6c-1.4-0.8-1.9-2.3-1.4-3.8c0.1-0.3,0.2-0.5,0.3-0.9c-0.3-0.1-0.5-0.2-0.8-0.3c-1-0.3-2-0.5-3-0.8
			c-1-0.3-1.9-0.7-2.8-1.2c-0.5-0.2-0.9-0.6-1.2-1.1c-0.8-1-0.6-2.1,0.3-2.9c0.5-0.4,1.1-0.7,1.7-0.8c1.2-0.3,2.3-0.5,3.5-0.6
			c2.2-0.2,4.4-0.4,6.6-0.5c3.6-0.2,7.2-0.6,10.7-1.5c0.3-0.1,0.5-0.1,0.8-0.2c-0.1-0.2-0.2-0.3-0.3-0.5c-0.6-0.9-0.6-1.8,0-2.7
			c0.4-0.7,1-1.2,1.7-1.5c1.3-0.6,2.6-1.3,3.9-1.8c4.5-1.7,9-3.3,13.5-4.9c3.5-1.2,6.8-2.8,9.8-4.9c0.6-0.4,1.2-0.9,1.6-1.6
			c-1.1,0.2-2.2,0.5-3.2,0.1c-1-0.3-1.8-1.1-2.4-2c-0.4,0.1-0.8,0.2-1.1,0.4c-2.3,1-4.7,2-7,2.9c-3.4,1.3-7,2.2-10.6,2.5
			c-0.8,0.1-1.6,0.2-2.4,0.2c-0.5,0-1-0.1-1.5-0.3c-1.2-0.5-1.7-1.8-1.2-3c0.3-0.6,0.6-1.3,1.1-1.8c1.1-1.2,2.2-2.3,3.3-3.4
			c0.3-0.3,0.7-0.6,1.1-1c-2.2-0.8-3.2-2.2-2.5-4.6c-0.3,0.1-0.5,0.2-0.8,0.3c-3.8,1.6-7.6,3.1-11.6,4.2c-1.5,0.4-3.1,0.7-4.7,1
			c-0.9,0.1-1.7,0.2-2.6,0.1c-2.2-0.2-3.2-2.2-2-4c0.5-0.8,1.2-1.4,2-1.9c0.3-0.2,0.7-0.5,1.1-0.7c-0.8-0.7-1.5-1.4-1.7-2.4
			c-0.2-1,0.1-1.9,0.5-2.9c-1.3-0.3-2.4-0.5-3.6-0.7c-1.2-0.3-2.4-0.6-3.5-1c-0.6-0.2-1.2-0.6-1.8-1c-1.2-1-1.2-2.4-0.3-3.6
			c0.6-0.7,1.3-1.2,2.1-1.5c1.3-0.4,2.5-0.8,3.8-1.2c2.5-0.6,5-0.8,7.5-1.2c3.8-0.5,7.5-1.1,11.2-2.1c0.6-0.2,1.1-0.4,1.8-0.6
			c-0.5-0.2-0.7-0.3-1-0.5c-1.2-0.6-2.5-1.1-3.7-1.8c-0.7-0.4-1.3-0.8-1.8-1.5c-0.9-1.3-0.6-2.7,0.7-3.6c0.9-0.6,2-0.9,3.1-1
			c1.1-0.1,2.2-0.2,3.3-0.2c2.7-0.1,5.5,0,8.2-0.2c6.2-0.4,12.3-1.4,18.2-3.8c2-0.8,4.1-1.5,5.9-2.5c2.2-1.3,4.3-2.7,6.1-4.6
			c0.6-0.7,1.1-1.4,1.7-2.3c-0.5,0.2-0.7,0.2-1,0.3c-3,1.3-6.1,2.1-9.4,2.5c-1.3,0.2-2.6,0.1-3.9,0.1c-0.4,0-0.8-0.1-1.2-0.3
			c-1.8-0.7-2.7-2.3-2.4-4.2c0.1-0.5,0.2-1,0.3-1.6c-0.5-0.2-0.9-0.3-1.3-0.5c-0.5-0.2-1-0.4-1.5-0.7c-1.2-0.9-1.5-2.3-0.5-3.5
			c0.4-0.5,1-1,1.6-1.3c1.6-0.8,3.3-1.4,5-2.1c2.4-0.9,4.7-1.6,7.1-2.5c3.9-1.4,7.5-3.3,10.7-5.9c0.2-0.1,0.3-0.3,0.5-0.4
			c0,0,0-0.1,0.1-0.2c-0.2,0-0.4,0-0.6,0c-1.5,0.1-2.9,0.1-4.2-0.7c-0.3-0.2-0.8-0.1-1.3-0.1c-0.7,0-1.5,0.1-2.2,0.1
			c-0.7,0-1.3-0.3-1.7-0.8c-0.6-0.7-0.7-1.4-0.3-2.2c0.3-0.5,0.6-1,1-1.5c0.9-0.9,1.8-1.8,2.8-2.7c-0.3,0-0.4,0-0.6,0.1
			c-0.9,0.4-1.8,0.8-2.6,1.3c-2.9,1.7-5.7,3.3-8.5,5c-1,0.6-2.1,1.1-3.4,1.1c-1.2,0-2.1-0.4-2.8-1.3c-0.4-0.5-0.9-1-1.5-1.4
			c-0.7-0.4-1.1-1.1-1.4-1.9c-0.1-0.2-0.1-0.4-0.2-0.7c-0.8,0.1-1.5,0.2-2.2,0.2c-1,0.1-2,0.2-2.9,0.2c-0.7,0-1.5-0.2-2.1-0.4
			c-0.8-0.3-1.4-0.9-1.5-1.9c-0.1-0.9,0.4-1.6,1.1-2c1-0.7,2.1-1.1,3.3-1.4c2.8-0.8,5.7-1.6,8.4-2.6c0.7-0.3,1.4-0.6,2.1-0.9
			c0-0.1,0-0.1,0-0.2c-0.2,0-0.4,0-0.6,0c-1,0-1.9,0-2.9-0.1c-1.2-0.1-2.2-0.6-3-1.5c-0.5-0.5-1.1-0.8-1.8-1
			c-0.6-0.2-1.2-0.3-1.7-0.6c-0.5-0.2-0.9-0.5-1.3-0.8c-1.2-1-1-2.6,0.2-3.5c0.8-0.6,1.7-0.8,2.7-0.8c2-0.1,4.1-0.1,6.1-0.1
			c8.2,0,16.2-1.5,23.9-4.3c1.2-0.5,2.4-1,3.7-1.6c-0.5-0.4-0.9-0.7-1.2-1.1c-0.3-0.4-0.5-0.9-0.8-1.4c-0.4,0-0.8,0.1-1.2,0.1
			c-1.2,0.1-2.5,0.3-3.7,0.4c-1.1,0-2.1-0.3-2.8-1.2c-0.3-0.3-0.4-0.7-0.7-1.2c-0.4,0-0.8-0.1-1.3-0.2c-0.2,0-0.3,0-0.5-0.1
			c-1.2-0.2-2-1-2.2-2c-0.2-1.1,0.4-2,1.3-2.5c1-0.5,2-0.9,3-1.2c2-0.6,4-1.1,6-1.6c1.2-0.3,2.4-0.7,3.5-1.4
			c-0.4-0.5-0.9-0.9-1.3-1.5c-0.4-0.5-0.6-1.1-1-1.8c-0.3,0.1-0.6,0.1-1,0.3c-1.6,0.7-3.2,1.4-4.9,2.2c-1.8,0.8-3.5,1.6-5.5,2
			c-1.2,0.2-2.3,0.4-3.5,0.1c-1-0.2-1.8-0.7-2.1-1.7c-0.1-0.4-0.4-0.5-0.7-0.6c-0.5-0.1-1.1-0.2-1.6-0.4c-1.8-0.7-2.1-2.6-0.8-3.9
			c0.4-0.4,1-0.8,1.6-1c2.7-1.3,5.6-2.2,8.5-2.7c0.3,0,0.5-0.1,0.9-0.2c-1.5-0.1-2.8-0.3-4.2-0.4c-1.1,0-2.1,0.1-3.2,0.2
			c-1.1,0.1-2.3,0.1-3.4,0.1c-0.8,0-1.5-0.2-2.2-0.7c-1.4-0.9-1.5-2.6-0.1-3.5c0.5-0.4,1.1-0.6,1.7-0.8c1.7-0.4,3.5-0.8,5.3-1.1
			c5.3-1.1,10.6-2.1,15.7-3.9c1.3-0.5,2.5-1.1,3.7-1.6c0.2-0.1,0.3-0.2,0.5-0.4c-0.8,0.2-1.6,0.4-2.4,0.5c-0.7,0.1-1.4,0.1-2-0.1
			c-1.6-0.4-2-2-0.9-3.3c0.3-0.3,0.6-0.6,1-0.8c1-0.7,2-1.3,3-2c1.1-0.8,2.2-1.7,2.9-2.8c0.2-0.3,0.4-0.7,0.5-1.1
			c0,0-0.1-0.1-0.1-0.1c-0.3,0.2-0.7,0.3-1,0.5c-1.2,0.6-2.4,1.2-3.6,1.7c-0.7,0.3-1.4,0.4-2.1,0.4c-1.3,0.1-2.1-0.5-2.6-1.7
			c0-0.1-0.1-0.1-0.1-0.3c-0.5,0-0.9,0-1.4,0c-1.2,0-2.5,0-3.7-0.3c-0.4-0.1-0.8-0.3-1.2-0.5c-1.4-0.8-1.6-2.4-0.3-3.4
			c0.6-0.5,1.3-0.8,2-1.1c1.3-0.5,2.7-0.8,4.1-1.2c1.3-0.4,2.5-0.8,3.8-1.3c0.2-0.1,0.5-0.2,0.8-0.4c-0.2-0.2-0.4-0.3-0.5-0.4
			c-0.9-0.7-1-1.8-0.1-2.6c0.4-0.4,0.9-0.6,1.4-0.9c1.6-0.8,3-1.7,4.3-2.9c0.2-0.2,0.4-0.4,0.7-0.7c-0.6,0.1-1.1,0.3-1.5,0.3
			c-1.6,0.2-2.4-0.4-2.7-2c0,0-0.1-0.1-0.1-0.2c-0.3,0.1-0.7,0.1-1.1,0.2c-0.6,0-1.3,0.1-1.9,0.1c-0.7-0.1-1.3-0.4-1.6-1.2
			c-0.3-0.7,0-1.4,0.5-1.8c0.4-0.4,0.9-0.6,1.4-0.9c0.8-0.4,1.6-0.8,2.3-1.2c2.7-1.4,5.1-3.3,7.3-5.4c0.5-0.5,1-1.1,1.5-1.7
			c-0.6-0.5-1.1-1-1.7-1.5c-0.5,0-1,0.2-1.6,0.1c-1.2,0-2.1-1.1-1.8-2.3c0.1-0.5,0.3-1,0.5-1.4c0.9-1.7,1.8-3.4,2.7-5
			c2-3.8,3.4-7.8,4.1-12c0.4-2.5,0.7-5,0.6-7.5c0-0.9-0.2-1.8-0.2-2.7c0-0.5,0-1,0.1-1.5c0.1-0.3,0.3-0.6,0.5-0.8
			c0.6-0.8,1.5-0.7,1.9,0.2c0.3,0.6,0.6,1.2,0.7,1.9c0.3,1.4,0.5,2.9,0.6,4.4c0.3,3.2,0.8,6.4,2,9.5c0.7,1.9,1.6,3.7,2.4,5.6
			c0.4,0.9,0.9,1.8,1.2,2.8c0.6,1.5,0.3,2.6-1.1,3.4c-0.5,0.3-1,0.5-1.6,0.7c-0.8,0.4-0.9,0.5-0.7,1.4c0.2,0.8,0.6,1.5,1.2,2.1
			c1.2,1.2,2.4,2.4,3.7,3.6c0.3,0.3,0.7,0.7,0.9,1c0.7,1.1,0.5,2.4-0.6,3.1c-0.4,0.3-1,0.5-1.5,0.7c-0.2,0.1-0.5,0.2-0.8,0.3
			c0.2,0.2,0.4,0.3,0.6,0.4c1.9,1.1,3.9,2.2,5.8,3.3c0.3,0.2,0.6,0.4,0.9,0.7c1.2,1,1.1,2.5-0.1,3.5c-0.9,0.7-1.9,1-3,1.1
			c-0.8,0-1.6,0-2.4,0c-0.2,0-0.4,0-0.5,0c0,0.1,0,0.1-0.1,0.2c0.4,0.2,0.7,0.5,1.1,0.6c2.3,1,4.6,2.1,6.9,3.1
			c0.5,0.2,1.1,0.4,1.6,0.7c0.4,0.2,0.7,0.4,1,0.7c0.9,0.9,0.9,2.2-0.1,3c-0.6,0.6-1.3,0.8-2.1,0.8c-0.6,0-1.1,0-1.7,0
			c-0.4,0-0.8,0-1.2,0c0,0.1-0.1,0.2-0.1,0.2c0.1,1.5-0.5,2.3-2,2.4c-1.1,0.1-2.3,0-3.4,0c-0.2,0-0.4,0-0.7-0.1
			c0.2,0.4,0.4,0.6,0.6,0.9c1.2,1.5,2.6,2.7,4.3,3.6c1,0.6,2.1,1.1,3.2,1.7c0.5,0.3,1,0.6,1.5,1c1.3,1.3,0.9,3.1-0.9,3.5
			c-0.7,0.2-1.3,0.2-2,0.3c-0.5,0.1-1,0.1-1.4,0.1c0,0.1,0,0.1,0,0.2c0.4,0.2,0.8,0.4,1.3,0.5c1.9,0.5,3.8,0.9,5.7,1.3
			c2.8,0.6,5.7,0.9,8.4,1.7c0.4,0.1,0.8,0.2,1.2,0.4c1.7,0.7,2.1,2.5,0.7,3.8c-0.5,0.5-1.2,0.9-1.8,1.2c-1.4,0.7-2.9,1-4.4,1.3
			c-1,0.2-2.1,0.4-3.1,0.7c-0.3,0.1-0.5,0.2-0.8,0.3c0.2,0.4,0.4,0.7,0.5,1.1c0.2,0.5,0.5,1,0.7,1.5c0.4,1.3-0.4,2.5-1.8,2.6
			c-0.7,0-1.4-0.1-2-0.2c-0.6-0.1-1.2-0.2-1.8-0.3c0.2,0.1,0.4,0.3,0.7,0.4c1.5,0.8,3,1.7,4.3,2.8c0.4,0.3,0.8,0.7,1,1.1
			c0.7,1.1,0.4,2.3-0.7,2.9c-0.5,0.3-1.1,0.4-1.6,0.5c-1.2,0.1-2.5,0.1-3.7,0.1c-0.8,0-1.4,0.1-2,0.7c-0.4,0.4-1,0.6-1.5,0.8
			c-0.4,0.1-0.8,0.2-1.3,0.3c0.3,0.3,0.4,0.6,0.7,0.8c1,1,2.1,1.6,3.4,2.1c2.8,1.2,5.8,1.9,8.8,2.3c3.3,0.5,6.6,1,9.9,1.5
			c0.8,0.1,1.6,0.4,2.4,0.6c0.2,0,0.3,0.1,0.5,0.2c2,0.9,2.3,2.6,0.6,4c-0.7,0.6-1.5,1-2.4,1.2c-1.9,0.4-3.8,0.8-5.7,1.1
			c-0.4,0.1-0.8,0.1-1,0.5c-0.7,1.2-1.8,1.7-3.1,1.9c-0.1,0-0.2,0-0.4,0.1c0.3,0.1,0.5,0.2,0.7,0.2c3.3,0.7,6.7,1.2,10.1,1.5
			c1.7,0.2,3.4,0.4,5.1,0.6c0.4,0.1,0.9,0.2,1.2,0.4c1.4,0.6,1.6,2,0.5,3.1c-0.5,0.5-1.1,0.8-1.7,1.1c-0.6,0.3-1.3,0.6-1.9,0.8
			c-0.5,0.2-0.9,0.4-1.4,0.6c0.2,0.2,0.3,0.4,0.4,0.5c0.4,0.4,0.9,0.8,1.3,1.2c1,1.1,0.7,2.4-0.8,2.9c-1.1,0.4-2.2,0.5-3.3,0.4
			c-2.5-0.2-4.9-0.8-7.3-1.3c-0.3-0.1-0.6-0.1-1-0.1c0.3,0.2,0.5,0.3,0.8,0.5c1.4,0.7,2.9,1.4,4.3,2.1c1,0.5,2.1,1.1,3.1,1.7
			c0.3,0.2,0.6,0.4,0.8,0.6c1.1,1,0.8,2.3-0.6,2.8c-0.5,0.2-1,0.3-1.4,0.2c-1.1-0.1-2.2-0.2-3.2-0.4c-0.8-0.1-1.5-0.3-2.3-0.4
			c-0.3,0-0.6-0.1-0.8,0.1c-0.8,0.8-1.8,0.9-2.9,0.9c-2-0.1-3.9-0.5-5.8-1.3c-1.6-0.7-3.3-1.4-4.9-2.1c-0.3-0.1-0.6-0.2-1-0.2
			c0.3,0.3,0.6,0.7,1,0.9c1.7,1.3,3.3,2.6,5,4c0.4,0.4,0.9,0.7,1.3,1.2c0.5,0.6,0.8,1.3,0.5,2c-0.3,0.8-1,1.2-1.8,1.2
			c-0.7,0-1.4,0-2,0c-0.5,0-0.9,0-1.5,0c0.2,0.2,0.4,0.3,0.5,0.4c1.5,0.9,3,1.7,4.4,2.7c0.8,0.5,1.6,1.2,2.4,1.9
			c0.7,0.6,1.1,1.3,0.8,2.3c-0.3,1-1.2,1.4-2.1,1.4c-1.1,0-2.2-0.1-3.3-0.2c-0.5,0-1-0.1-1.5-0.1c0.4,0.2,0.8,0.5,1.3,0.6
			c2,0.9,4.2,1.4,6.3,2c3.4,0.9,6.8,1.3,10.2,1.8c2,0.3,4,0.6,5.9,1.3c0.7,0.2,1.4,0.5,2,0.9c1.6,1.1,1.4,2.9-0.4,3.7
			c-0.8,0.4-1.7,0.5-2.6,0.5c-2,0-3.9-0.1-5.9-0.2c-0.5,0-0.8,0-1.1,0.4c-0.4,0.5-1.1,0.8-1.8,0.9c-2.1,0.5-4.2,0.4-6.3,0.1
			c-2.4-0.4-4.8-0.8-7.3-1.2c-0.1,0-0.1,0-0.3,0c0.3,0.2,0.5,0.4,0.7,0.6c1.9,1.4,4,2.3,6.2,3.1c3.7,1.3,7.5,2.1,11.5,2.6
			c1.2,0.1,2.4,0.4,3.5,0.7c0.5,0.1,1.1,0.4,1.5,0.7c1,0.8,1,2.1-0.1,2.8c-0.5,0.3-1.1,0.5-1.6,0.7c-0.4,0.1-0.8,0.2-1.2,0.3
			c0,0.1,0,0.1,0,0.2c0.8,0.2,1.6,0.4,2.4,0.5c2.7,0.3,5.5,0.6,8.2,0.9c3.8,0.3,7.7,0.6,11.5,1.3c0.6,0.1,1.2,0.3,1.7,0.5
			c0.3,0.1,0.7,0.3,0.9,0.5c1.1,0.8,1.2,2.1,0.1,2.9c-0.4,0.4-1,0.7-1.6,0.8c-0.9,0.3-1.8,0.5-2.8,0.8c0.2,0.1,0.4,0.3,0.5,0.3
			c0.9,0.5,1.9,1,2.8,1.5c0.5,0.3,0.9,0.6,1.3,1c0.7,0.8,0.6,1.8-0.3,2.4c-0.4,0.3-0.9,0.5-1.4,0.8c0.2,0.1,0.4,0.2,0.5,0.3
			c0.6,0.3,1.3,0.6,1.9,1c0.3,0.2,0.6,0.4,0.9,0.6c1.1,1,1,2.2-0.2,3c-1.1,0.7-2.3,1-3.6,1.2c-1.4,0.2-2.7,0.1-4.1,0
			c-3.1-0.3-6.2-0.7-9.2-1.6c-2.4-0.7-4.9-1.4-7.3-2.1c-0.3-0.1-0.6-0.2-1.1-0.3c0.3,0.5,0.5,0.8,0.6,1.2c1,2-0.1,3.8-2.3,3.8
			c-1.2,0-2.3-0.3-3.5-0.4c-0.3,0-0.6-0.1-0.8,0c-1.2,0.4-2.3,0.2-3.4-0.2c-1.5-0.7-2.9-1.4-4.3-2.1c-0.2-0.1-0.5-0.2-0.8-0.3
			c0.3,0.3,0.5,0.6,0.8,0.9c2.8,3.1,6.2,5.6,9.9,7.6c3.2,1.7,6.5,3.3,9.7,4.9c1.9,1,3.9,1.9,5.8,2.9c0.4,0.2,0.9,0.5,1.2,0.8
			c0.9,0.9,0.6,2.1-0.6,2.5c-0.4,0.1-0.8,0.2-1.2,0.2c-1.3,0-2.7-0.1-4-0.2c-0.8,0-1.6-0.1-2.5-0.2c0.1,0.3,0.2,0.6,0.3,0.9
			c0.5,1.3-0.1,2.3-1.5,2.5c-1.1,0.2-2.2,0-3.2-0.4c-0.4-0.1-0.7-0.3-1.1-0.4c1,0.8,2.1,1.5,3.3,1.9c2.8,1,5.6,1.7,8.6,2
			c3.6,0.4,7.2,0.8,10.6,1.8c0.7,0.2,1.4,0.4,2,0.8c1.6,0.9,1.8,2.5,0.5,3.7c-0.3,0.3-0.6,0.5-1,0.9c0.2,0.2,0.4,0.4,0.6,0.6
			c1.3,1.3,1,2.9-0.7,3.7c-1.2,0.5-2.4,0.8-3.7,0.9c-4,0.4-7.9,0.5-11.9-0.3c-0.2,0-0.4,0-0.5,0c-0.1,0.1-0.1,0.1-0.2,0.1
			c-1.2,2.1-3.1,2.4-5.2,2c-1.5-0.2-2.9-0.9-4.1-1.7c-1.4-0.8-2.7-1.7-4.1-2.6c-0.2-0.1-0.4-0.2-0.6-0.3c-1.4,1.5-3.2,1.8-5.2,1.6
			c0.3,0.1,0.5,0.3,0.8,0.4c3.1,1.4,6.3,2.4,9.6,3.1c3,0.6,6.1,1.2,9.1,1.8c1.8,0.4,3.6,0.8,5.4,1.3c0.6,0.2,1.2,0.4,1.8,0.8
			c1.3,0.8,1.4,2.3,0.1,3.2c-0.8,0.6-1.7,1-2.7,1.2c-1.1,0.2-2.2,0.5-3.4,0.7c0.2,0.2,0.3,0.3,0.4,0.5c0.4,0.4,0.8,0.7,1.2,1.1
			c0.3,0.3,0.6,0.7,0.8,1c0.7,1.3,0.3,2.5-0.9,3.2c-0.4,0.2-0.7,0.3-1.1,0.5c-0.4,0.1-0.7,0.2-1.3,0.3c0.4,0.1,0.6,0.2,0.8,0.3
			c6.7,1.6,13.4,3,20.2,4.3c1.3,0.3,2.7,0.6,4,1c0.7,0.2,1.4,0.6,2,0.9c0.6,0.3,1.1,0.9,1.4,1.5c0.6,1.1,0.3,2.3-0.7,3.1
			c-0.5,0.4-1.1,0.7-1.8,0.9c-1.1,0.3-2.2,0.6-3.3,0.8C295.8,341.7,295.6,341.7,295.4,341.8z"/>
		<g>
			<path class="st14" d="M223.5,73.2c0.6-1.5,1.1-2.9,1.8-4.4c0.3-0.8,0.7-1.5,1.1-2.2c0.2-0.3,0.4-0.6,0.6-0.9
				c1.4-1.7,3.6-1,4.4,0.3c0.5,0.8,0.9,1.6,1.3,2.4c0.6,1.2,1.1,2.4,1.6,3.6c0.2,0.4,0.5,0.8,0.8,1.1c0.1,0.1,0.3,0.1,0.5,0.1
				c1,0,1.9-0.1,2.9-0.2c0.8,0,1.6-0.1,2.4,0c1.4,0.1,2,1.2,1.5,2.5c-0.2,0.4-0.4,0.7-0.6,1c-0.2,0.3-0.5,0.6-0.8,0.9
				c-0.9,0.8-1.7,1.6-2.6,2.4c-0.7,0.5-0.8,1.1-0.6,1.9c0.3,1.5,0.7,3,1.2,4.4c0.2,0.6,0.4,1.2,0.6,1.8c0,0.1,0.1,0.2,0.1,0.4
				c0.3,1.7-0.8,2.9-2.5,2.7c-0.8-0.1-1.5-0.4-2.1-0.7c-1.7-0.8-3.2-1.9-4.7-3c-0.2-0.1-0.4-0.3-0.6-0.4c-0.5-0.4-0.9-0.4-1.5-0.1
				c-0.8,0.4-1.6,0.8-2.4,1.2c-1.5,0.7-3,1.5-4.5,2.2c-0.3,0.2-0.7,0.3-1,0.3c-0.9,0.1-1.6-0.4-1.8-1.3c-0.1-0.4,0-0.9,0-1.3
				c0.2-1.3,0.7-2.4,1.4-3.6c0.4-0.6,0.7-1.2,1.1-1.9c-0.3-0.2-0.6-0.4-0.9-0.6c-1.6-1-3.1-2-4.7-3c-0.4-0.2-0.7-0.5-1-0.8
				c-0.7-0.7-0.7-1.7,0-2.4c0.4-0.4,0.8-0.7,1.3-0.9c1.6-0.7,3.4-1.1,5.2-1.3C221.7,73.4,222.6,73.3,223.5,73.2z"/>
			<g>
				<g>
					<path class="st15" d="M227.8,326.3c2.7-0.1,5.5-0.2,8.2,0.2c1.6,0.2,3.1,0.7,4.5,1.5c0.6,0.4,1.2,0.8,1.6,1.3
						c0.8,1,0.5,2.1-0.6,2.7c-0.4,0.2-0.8,0.3-1.2,0.5c-1.3,0.5-2.6,0.9-3.9,1.3c-2.4,0.8-4.2,2.4-5.4,4.7c-0.4,0.7-0.7,1.3-1.1,1.9
						c-0.7,1.1-1.7,2.1-2.9,2.8c-1.5,0.9-3.1,1-4.7,0.3c-0.4-0.2-0.9-0.4-1.3-0.7c-1.4-0.8-2.8-1.3-4.4-1.5
						c-1.6-0.2-3.1-0.6-4.5-1.1c-4-1.5-7.8-3.3-11.6-5.1c-2-0.9-3.7-2.1-5.2-3.6c-0.9-0.9-1.8-1.8-2.7-2.7c-1.7-1.6-3.7-2.8-5.9-3.6
						c-1.1-0.4-2.3-0.6-3.5-0.5c-1.5,0.1-2.3,0.8-2.6,2.3c-0.4,1.7-0.4,3.4-0.3,5.2c0.1,2.9,0.2,5.8-0.4,8.6
						c-0.3,1.3-0.6,2.6-1.3,3.7c-0.3,0.4-0.6,0.9-1,1.2c-0.9,0.8-2.1,0.6-2.8-0.4c-0.4-0.5-0.7-1.1-0.8-1.7
						c-0.4-1.8-0.8-3.5-1.2-5.3c-0.5-2.1-0.9-4.3-1.3-6.4c-0.4-1.6-1-3.1-1.9-4.5c-1.9-3.1-2.6-6.5-2.5-10.1c0-1,0.1-2,0.1-3
						c0-1-0.4-1.8-0.8-2.7c-0.5-1.1-1.1-2.1-1.5-3.3c-0.6-1.4-0.9-2.9-0.8-4.4c0.1-0.8,0.3-1.5,0.6-2.2c1.3-2.4,3.3-3.9,6.1-4.1
						c3.2-0.2,6.3-0.5,9.5-0.9c0.6-0.1,1.1-0.1,1.7-0.1c1.7,0.1,2.5,0.9,2.5,2.6c0,1.6-0.1,3.1-0.1,4.7c0,0.5,0,1.1,0,1.6
						c0,0.5,0.2,1,0.5,1.4c0.6,0.7,1.4,1.3,2.2,1.8c0.9,0.4,1.8,0.8,2.7,1.2c0.6,0.3,1.3,0.5,1.9,0.7c2.3,0.8,4.3,2.2,5.8,4.1
						c0.6,0.8,1.3,1.5,1.9,2.2c2,2.3,4.4,4,7.2,5.1c3.9,1.6,7.9,2.9,12.1,3.7C221.8,326.3,224.8,326.4,227.8,326.3z"/>
					<path class="st15" d="M178.5,246.2c1.6,0.1,3.8,0.3,6,0.5c4.1,0.3,8.1,0.4,12.2-0.3c2.5-0.4,5-0.9,7.5-1.3
						c1.1-0.2,2.3-0.4,3.4-0.1c1.2,0.3,2.3,0.8,3.3,1.6c1.4,1.1,1.5,2.6,0.4,3.9c-0.3,0.4-0.7,0.7-1.1,1.1c-0.9,0.8-1.9,1.5-2.9,2.3
						c-0.6,0.5-1.2,1.2-1.8,1.8c-1,1-1.4,2.3-1.4,3.7c0,0.4,0,0.8-0.1,1.3c-0.1,1.1-0.5,1.9-1.2,2.7c-1.1,1.2-2.3,2.3-3.6,3.2
						c-1.6,1.2-3.3,2.4-4.9,3.7c-2.4,2-4.2,4.4-5.1,7.4c-0.4,1.2-0.6,2.4-1,3.6c-0.4,1.2-0.7,2.5-1.2,3.6c-0.3,0.8-0.8,1.4-1.3,2.1
						c-0.3,0.3-0.6,0.6-1,0.8c-0.8,0.4-1.5,0.3-2-0.5c-0.5-0.6-0.7-1.4-0.8-2.1c-0.2-1.5,0-3.1,0.2-4.6c0.3-2.2,0.6-4.5,0.4-6.8
						c-0.1-1.2-0.2-2.3-0.6-3.4c-0.2-0.4-0.3-0.9-0.6-1.3c-0.7-1.3-1.8-2.1-3.4-2.4c-0.8-0.1-1.7-0.3-2.5-0.5
						c-1.8-0.5-3-1.6-3.6-3.3c-0.3-0.7-0.5-1.4-0.7-2.1c-0.4-1.3-1.2-2.4-2.4-3.1c-0.3-0.2-0.6-0.4-0.8-0.6c-3-2.2-2.5-5.7-0.6-7.7
						c1-1,2.2-1.7,3.5-2.2C173.2,246.5,175.5,246.2,178.5,246.2z"/>
					<path class="st15" d="M207.6,189.1c2.3,0,4.2,0.5,6.1,0.8c3.7,0.6,7.5,1.3,11.2,1.9c1.6,0.3,3.3,0.1,4.9-0.2
						c3.3-0.5,6.5-1,9.8-1.4c4.3-0.5,8.5-0.3,12.6,0.9c2.2,0.6,4.2,1.7,6,3.2c0.5,0.5,1,1,1.4,1.6c0.7,1,0.8,2.1,0.1,3.1
						c-0.4,0.6-0.8,1.1-1.3,1.7c-0.7,0.7-1.5,1.4-2.2,2.1c-0.4,0.4-0.9,0.9-1.3,1.4c-1.8,2-2.3,4.3-1.8,6.9c0.4,2,0.8,4,1.1,5.9
						c0.4,2.4,0.6,4.8,0.4,7.2c-0.1,1.5-0.4,3-1,4.4c-0.2,0.5-0.6,1.1-1,1.5c-0.9,0.9-2.1,0.9-2.9,0c-0.5-0.5-0.9-1.1-1.1-1.8
						c-0.5-1.2-1-2.5-1.5-3.8c-0.3-0.8-0.6-1.5-0.9-2.3c-0.6-1.2-1.5-2.1-2.8-2.5c-0.3-0.1-0.5-0.2-0.8-0.3
						c-2.7-0.8-4.6-2.5-6.1-4.9c-0.4-0.6-0.7-1.3-1.1-1.9c-0.4-0.5-0.8-1-1.3-1.5c-0.7-0.7-1.6-0.7-2.4-0.1
						c-0.7,0.5-1.4,1.1-2.1,1.6c-0.9,0.7-1.8,1.3-2.8,1.7c-0.7,0.3-1.5,0.5-2.3,0.4c-1.3-0.1-2.3-0.6-2.9-1.8
						c-0.4-0.8-0.7-1.6-0.9-2.4c-0.2-0.6-0.3-1.2-0.5-1.7c-0.6-1.7-1.7-3-3.3-3.7c-0.3-0.2-0.6-0.3-1-0.4c-1.5-0.6-2.8-1.4-4-2.5
						c-0.1-0.1-0.3-0.2-0.4-0.3c-1-1.1-2.3-1.6-3.8-1.7c-1.1-0.1-2.2-0.3-3.3-0.5c-1.3-0.3-2.5-0.9-3.6-1.7
						c-0.8-0.6-1.4-1.4-1.8-2.4c-0.4-1-0.3-2,0.2-3c0.6-1.2,1.6-2,2.8-2.5C204,189.4,205.9,189.1,207.6,189.1z"/>
					<path class="st15" d="M222.3,167c-0.7,0.5-0.8,1.1-1,1.7c-0.3,1-0.5,2.1-0.8,3.2c-0.2,0.8-0.6,1.5-0.9,2.3
						c-0.5,1-1.5,1.1-2.1,0.2c-0.3-0.4-0.5-1-0.7-1.5c-0.2-0.8-0.3-1.7-0.3-2.6c-0.1-1.2,0-2.3,0-3.5c0-1.4-0.4-2.6-1.5-3.6
						c-1.3-1.1-2.2-2.4-2.7-4c-0.6-1.8-0.1-3.6,1.4-4.8c0.8-0.6,1.6-1,2.6-1.2c0.2,0,0.3-0.1,0.5-0.1c1.6-0.6,3.2-0.3,4.8,0.4
						c1.1,0.5,2.1,1,3.1,1.7c1.9,1.2,4.1,1.9,6.3,2.3c1.4,0.2,2.9,0.1,4.3-0.2c2.4-0.5,4.7-1,7-1.5c2.2-0.5,4.5-0.9,6.7-1.3
						c1.4-0.2,2.7-0.2,4,0.4c0.7,0.3,1.3,0.8,1.8,1.4c0.8,1,0.8,1.9-0.1,2.8c-0.6,0.7-1.3,1-2.1,1.4c-0.8,0.4-1.7,0.8-2.4,1.4
						c-1.2,0.8-2.1,1.9-2.8,3.2c-0.2,0.4-0.5,0.9-0.7,1.3c-0.7,1.3-1.7,2.3-3.1,2.8c-0.8,0.3-1.6,0.6-2.5,0.9
						c-1.5,0.5-2.5,1.5-2.7,3.1c-0.2,1.6-0.4,3.2-0.6,4.9c-0.2,1.4-0.4,2.7-0.7,4.1c-0.1,0.5-0.3,0.9-0.5,1.4
						c-0.5,0.7-1.3,0.8-1.8,0.2c-0.4-0.4-0.7-0.9-0.8-1.5c-0.4-1.4-0.7-2.7-1-4.1c-0.2-1.1-0.3-2.2-0.5-3.3
						c-0.2-0.7-0.5-1.4-0.8-2.1c-0.3-0.6-0.9-0.8-1.6-0.8c-0.8,0.1-1.5,0.2-2.3,0.3c-1.5,0.1-2.7-0.5-3.5-1.7
						c-0.5-0.7-0.9-1.4-1.3-2.2C222.8,167.7,222.6,167.4,222.3,167z"/>
				</g>
				<g>
					<g>
						<path class="st16" d="M203.3,276.1c0-1.4,0.6-2.6,1.7-3.6c0.9-0.7,1.8-1.3,2.9-1.6c1.5-0.4,2.9-0.1,4.1,0.8
							c1.2,0.8,2,1.8,2.3,3.2c0.1,0.5,0.3,0.9,0.3,1.4c0.2,1.8-0.5,3.2-1.9,4.3c-1,0.8-2.2,1.3-3.5,1.3c-2.4,0.1-4.4-1.1-5.5-3.3
							C203.5,277.9,203.3,277.1,203.3,276.1z"/>
						<path class="st16" d="M155.1,316.9c0-0.9,0.4-1.8,1.2-2.4c0.6-0.5,1.2-0.9,2-1.1c1-0.3,2,0,2.8,0.5c0.8,0.5,1.3,1.3,1.6,2.2
							c0.1,0.3,0.2,0.6,0.2,1c0.1,1.2-0.3,2.2-1.3,3c-0.7,0.5-1.5,0.9-2.4,0.9c-1.7,0.1-3-0.7-3.7-2.3
							C155.2,318.1,155.1,317.5,155.1,316.9z"/>
					</g>
					<g>
						<path class="st17" d="M235.4,256.4c0.1-1.8,0.6-3.1,2-4c0.5-0.4,1.1-0.7,1.7-0.9c1.2-0.5,2.5-0.4,3.7,0.1
							c2.1,1,3.2,2.7,3.4,4.9c0.1,1.4-0.4,2.7-1.4,3.8c-1.7,1.8-4.4,2.3-6.6,0.9c-1.3-0.8-2-2-2.4-3.4
							C235.5,257.2,235.4,256.7,235.4,256.4z"/>
						<path class="st17" d="M155.1,271.7c0.1-1.8,0.6-3.1,2-4c0.5-0.4,1.1-0.7,1.7-0.9c1.2-0.5,2.5-0.4,3.7,0.1
							c2.1,1,3.2,2.7,3.4,4.9c0.1,1.4-0.4,2.7-1.4,3.8c-1.7,1.8-4.4,2.3-6.6,0.9c-1.3-0.8-2-2-2.4-3.4
							C155.2,272.6,155.2,272,155.1,271.7z"/>
						<path class="st17" d="M208.2,313.1c0-1.3,0.4-2.2,1.4-2.8c0.4-0.3,0.7-0.5,1.2-0.6c0.9-0.3,1.7-0.3,2.6,0.1
							c1.4,0.7,2.3,1.9,2.4,3.5c0.1,1-0.3,1.9-1,2.7c-1.2,1.3-3.1,1.6-4.6,0.6c-0.9-0.6-1.4-1.4-1.7-2.4
							C208.3,313.8,208.3,313.4,208.2,313.1z"/>
						<path class="st17" d="M224.2,137.9c0.1-1.8,0.6-3.1,2-4c0.5-0.4,1.1-0.7,1.7-0.9c1.2-0.5,2.5-0.4,3.7,0.1
							c2.1,1,3.2,2.7,3.4,4.9c0.1,1.4-0.4,2.7-1.4,3.8c-1.7,1.8-4.4,2.3-6.6,0.9c-1.3-0.8-2-2-2.4-3.4
							C224.4,138.8,224.3,138.2,224.2,137.9z"/>
					</g>
					<g>
						<path class="st18" d="M215.7,229.9c0.1-1.7,0.6-3,1.9-3.9c0.5-0.3,1-0.7,1.6-0.9c1.2-0.5,2.4-0.4,3.5,0.1c2,1,3.1,2.6,3.3,4.8
							c0.1,1.4-0.4,2.6-1.4,3.7c-1.6,1.8-4.3,2.2-6.4,0.9c-1.2-0.8-2-1.9-2.3-3.3C215.8,230.7,215.8,230.2,215.7,229.9z"/>
						<path class="st18" d="M275.4,265.4c0-1.2,0.4-2,1.3-2.6c0.3-0.2,0.7-0.5,1.1-0.6c0.8-0.3,1.6-0.3,2.4,0.1
							c1.4,0.7,2.1,1.8,2.2,3.2c0.1,0.9-0.3,1.8-0.9,2.5c-1.1,1.2-2.9,1.5-4.3,0.6c-0.8-0.5-1.3-1.3-1.6-2.2
							C275.5,266,275.4,265.6,275.4,265.4z"/>
						<path class="st18" d="M220.7,181.2c0-1.2,0.4-2,1.3-2.6c0.3-0.2,0.7-0.5,1.1-0.6c0.8-0.3,1.6-0.3,2.4,0.1
							c1.4,0.7,2.1,1.8,2.2,3.2c0.1,0.9-0.3,1.8-0.9,2.5c-1.1,1.2-2.9,1.5-4.3,0.6c-0.8-0.5-1.3-1.3-1.6-2.2
							C220.8,181.8,220.8,181.4,220.7,181.2z"/>
						<path class="st18" d="M226.7,121.5c0-1.2,0.4-2,1.3-2.7c0.3-0.2,0.7-0.5,1.1-0.6c0.8-0.3,1.6-0.3,2.4,0.1
							c1.4,0.7,2.1,1.8,2.2,3.3c0.1,0.9-0.3,1.8-0.9,2.5c-1.1,1.2-2.9,1.5-4.3,0.6c-0.8-0.5-1.3-1.3-1.6-2.3
							C226.7,122.1,226.7,121.7,226.7,121.5z"/>
						<path class="st18" d="M250.3,338.2c0.1-1.7,0.6-3,1.9-3.9c0.5-0.3,1-0.7,1.6-0.9c1.2-0.5,2.4-0.4,3.5,0.1c2,1,3.1,2.6,3.3,4.8
							c0.1,1.4-0.4,2.6-1.4,3.7c-1.6,1.8-4.3,2.2-6.4,0.9c-1.2-0.8-2-1.9-2.3-3.3C250.4,339.1,250.3,338.5,250.3,338.2z"/>
					</g>
					<g>
						<path class="st19" d="M226.1,305c0.1-2.1,0.7-3.6,2.3-4.7c0.6-0.4,1.2-0.8,1.9-1.1c1.4-0.6,2.9-0.5,4.3,0.2
							c2.4,1.2,3.7,3.1,3.9,5.8c0.1,1.7-0.5,3.2-1.6,4.4c-2,2.2-5.2,2.6-7.7,1.1c-1.5-0.9-2.4-2.3-2.8-4
							C226.2,306,226.1,305.3,226.1,305z"/>
						<path class="st19" d="M281,339.3c0.1-1.7,0.6-3,1.9-3.9c0.5-0.3,1-0.7,1.6-0.9c1.2-0.5,2.4-0.4,3.5,0.1c2,0.9,3.1,2.6,3.2,4.7
							c0.1,1.4-0.4,2.6-1.3,3.6c-1.6,1.8-4.2,2.1-6.3,0.9c-1.2-0.8-1.9-1.9-2.3-3.3C281.1,340.1,281.1,339.6,281,339.3z"/>
						<path class="st19" d="M192.7,207.2c0-1.4,0.5-2.5,1.6-3.2c0.4-0.3,0.8-0.5,1.3-0.7c1-0.4,1.9-0.3,2.9,0.1
							c1.6,0.8,2.5,2.1,2.7,3.9c0.1,1.1-0.3,2.1-1.1,3c-1.3,1.5-3.5,1.8-5.2,0.7c-1-0.6-1.6-1.6-1.9-2.7
							C192.8,207.9,192.7,207.5,192.7,207.2z"/>
					</g>
					<g>
						<path class="st17" d="M208.6,290.6c-0.4,0.1-0.6,0.2-0.9,0.3c-0.5,0.3-0.9,0.7-1.3,1.3c-0.3,0.5-0.7,1-1,1.5
							c-0.5,0.8-1.2,1-2.1,0.7c-0.2-0.1-0.4-0.3-0.5-0.5c-0.3-0.7-0.3-1.3,0.1-2c0.5-0.9,1.1-1.8,1.9-2.5c0.5-0.5,1.1-1,1.8-1.4
							c2.4-1.5,4.8,0.3,5.3,2.2c0.2,0.6,0.2,1.2,0.1,1.8c-0.1,0.8-0.3,1.7-0.6,2.5c-1,2.6-2.2,5.1-3.6,7.6c-1.3,2.3-2.6,4.5-3.8,6.7
							c-0.1,0.1-0.1,0.2-0.2,0.4c-0.4,0.6-1,0.8-1.6,0.6c-0.6-0.2-1.1-0.8-1-1.5c0-0.3,0.1-0.6,0.3-0.9c0.8-1.9,1.8-3.8,2.8-5.6
							c1.5-2.6,2.8-5.2,3.8-8c0.3-0.9,0.5-1.8,0.5-2.7C208.6,291.1,208.6,290.9,208.6,290.6z"/>
						<path class="st17" d="M211.7,165.5c0,0.3,0.1,0.4,0.1,0.6c0,0.4-0.2,0.8-0.4,1.2c-0.2,0.4-0.4,0.7-0.6,1.1
							c-0.3,0.6-0.3,1.1,0.2,1.5c0.1,0.1,0.3,0.2,0.5,0.2c0.5,0,0.9-0.2,1.2-0.7c0.4-0.6,0.7-1.2,0.9-1.9c0.1-0.5,0.3-1,0.3-1.5
							c0.1-2-1.8-2.8-3.2-2.5c-0.4,0.1-0.9,0.3-1.2,0.5c-0.5,0.3-1,0.7-1.4,1.2c-1.4,1.4-2.5,3-3.6,4.6c-1,1.5-2,3-3,4.5
							c-0.1,0.1-0.1,0.2-0.2,0.2c-0.2,0.4-0.2,0.9,0.2,1.2c0.4,0.3,0.9,0.4,1.3,0.1c0.2-0.1,0.4-0.3,0.5-0.5
							c0.9-1.1,1.8-2.3,2.6-3.5c1.1-1.7,2.4-3.4,3.8-4.9c0.4-0.5,0.9-0.9,1.5-1.2C211.3,165.6,211.4,165.6,211.7,165.5z"/>
						<path class="st17" d="M234.6,225.1c0.3,0.2,0.5,0.2,0.7,0.4c0.4,0.3,0.7,0.7,0.9,1.2c0.2,0.5,0.4,0.9,0.7,1.4
							c0.4,0.7,0.9,1,1.7,0.8c0.2,0,0.4-0.2,0.5-0.4c0.3-0.5,0.4-1.1,0.2-1.7c-0.3-0.8-0.7-1.6-1.3-2.3c-0.4-0.5-0.8-1-1.3-1.4
							c-1.9-1.5-4.1-0.1-4.8,1.5c-0.2,0.5-0.3,1.1-0.4,1.6c0,0.7,0,1.5,0.2,2.2c0.5,2.4,1.2,4.7,2.1,6.9c0.8,2.1,1.6,4.1,2.4,6.2
							c0,0.1,0.1,0.2,0.1,0.3c0.3,0.5,0.8,0.8,1.3,0.7c0.6-0.1,1-0.6,1.1-1.2c0-0.3,0-0.6-0.1-0.8c-0.5-1.7-1.1-3.4-1.7-5.1
							c-0.9-2.4-1.8-4.8-2.3-7.3c-0.2-0.8-0.2-1.6-0.1-2.4C234.4,225.5,234.5,225.3,234.6,225.1z"/>
					</g>
					<g>
						<path class="st18" d="M218.4,255.8c-0.1,0.5-0.3,0.8-0.4,1.2c-0.1,0.8,0,1.6,0.3,2.4c0.3,0.8,0.5,1.5,0.8,2.3
							c0.4,1.2,0.1,2.2-1,2.8c-0.2,0.2-0.6,0.2-0.9,0.1c-0.9-0.3-1.7-0.8-2-1.7c-0.5-1.3-0.9-2.7-1-4.1c-0.1-1-0.1-2.1,0-3.1
							c0.5-3.8,4.4-4.8,6.8-3.7c0.8,0.3,1.5,0.8,2.1,1.4c0.8,0.8,1.6,1.8,2.2,2.8c2,3.3,3.6,6.7,5.1,10.3c1.3,3.3,2.6,6.5,3.9,9.8
							c0.1,0.2,0.1,0.4,0.2,0.5c0.3,0.9,0,1.7-0.7,2.2c-0.8,0.5-1.8,0.4-2.5-0.2c-0.3-0.3-0.5-0.7-0.7-1.1c-1.3-2.5-2.5-5.1-3.5-7.7
							c-1.5-3.7-3.2-7.4-5.3-10.9c-0.7-1.1-1.4-2.1-2.4-2.9C219,256.2,218.8,256,218.4,255.8z"/>
						<path class="st18" d="M252.3,317.9c0.3,0,0.6-0.1,0.8-0.1c0.5,0,1,0.2,1.5,0.4c0.4,0.3,0.9,0.5,1.3,0.8
							c0.7,0.4,1.3,0.3,1.9-0.3c0.1-0.1,0.2-0.4,0.2-0.6c0-0.6-0.3-1.2-0.8-1.5c-0.8-0.5-1.5-0.9-2.4-1.2c-0.6-0.2-1.3-0.3-1.9-0.4
							c-2.4-0.2-3.5,2.2-3.1,4c0.1,0.5,0.3,1.1,0.6,1.5c0.4,0.6,0.9,1.2,1.4,1.7c1.8,1.7,3.7,3.1,5.7,4.5c1.8,1.2,3.7,2.5,5.5,3.7
							c0.1,0.1,0.2,0.1,0.3,0.2c0.5,0.3,1.1,0.2,1.5-0.2c0.4-0.4,0.5-1.1,0.2-1.6c-0.1-0.2-0.4-0.4-0.6-0.6
							c-1.4-1.1-2.8-2.2-4.3-3.2c-2.1-1.4-4.2-2.9-6-4.7c-0.6-0.6-1.1-1.2-1.5-1.9C252.4,318.3,252.4,318.2,252.3,317.9z"/>
					</g>
				</g>
			</g>
		</g>
	</g>
	<g>
		<path class="st20" d="M307.5,229.5c-2.6-1.5-5.2-2.9-7.8-4.3c0,0,0,0,0,0.1c0.1,0.1,0.2,0.2,0.2,0.3c0.7,0.7,1.4,1.5,2.1,2.2
			c0.1,0.1,0.2,0.3,0.4,0.4c0.2,0.3,0.2,0.5,0,0.7c-0.2,0.2-0.5,0.2-0.7-0.1c-0.4-0.4-0.9-0.8-1.3-1.2c-0.7-0.7-1.4-1.5-2.2-2.2
			c-0.1-0.1-0.2-0.1-0.3-0.2c0.3,0.7,0.6,1.4,0.9,2.1c0.3,0.7,0.6,1.4,0.9,2.2c0.1,0.3,0.2,0.4,0.5,0.5c0.7,0.3,1,0.8,0.9,1.4
			c0,0.6-0.5,1.2-1.1,1.4c-0.9,0.3-2-0.5-1.9-1.5c0-0.4,0.2-0.8,0.3-1.2c-0.9-2-1.8-4-2.7-6.1c0,0-0.1,0-0.1,0c0,0.2,0,0.4,0,0.5
			c0.2,1.9,0.4,3.8,0.5,5.7c0,0.2,0,0.4,0,0.6c0,0.3-0.2,0.5-0.5,0.5c-0.3,0-0.5-0.1-0.6-0.5c0-0.2-0.1-0.3-0.1-0.5
			c-0.1-1.3-0.3-2.6-0.4-3.9c0-0.2-0.1-0.4-0.1-0.7c0,0-0.1,0-0.1,0c-0.7,3.5-1.4,6.9-2,10.3c0.3,0.4,0.6,0.7,0.9,1.1
			c0.6,0.8,0.3,1.8-0.2,2.4c-1,1.1-2.9,1-3.8-0.3c-0.7-1-0.2-2.7,1-3.2c0.6-0.2,0.7-0.5,0.8-1c0.7-3.7,1.5-7.4,2.2-11.1
			c0-0.1,0-0.2,0-0.3c-1.1,1.5-2.3,2.9-3.4,4.4c0.1,0.1,0.1,0.2,0.2,0.3c0.5,0.8,0,1.8-0.8,2.2c0,0-0.1,0-0.1,0
			c-0.8,0.3-1.4,0.2-1.8-0.3c-0.4-0.4-0.4-1.3,0-1.9c0.2-0.4,0.6-0.7,1-0.8c0.1,0,0.3-0.1,0.4-0.2c0.7-0.9,1.4-1.8,2-2.7
			c0.1-0.1,0.1-0.2,0.1-0.4c-0.1,0.1-0.3,0.1-0.4,0.2c-1,0.5-2.1,1.1-3.1,1.6c-0.2,0.1-0.4,0.2-0.7,0.2c-0.1,0-0.3,0-0.3-0.1
			c0-0.1,0-0.3,0.1-0.4c0.2-0.2,0.4-0.4,0.6-0.5c1-0.6,2-1.2,2.9-1.8c0.6-0.4,1.2-0.8,1.8-1.2c-1.7,0.4-8.4,3-9.2,3.6
			c0,0,0,0.1,0,0.2c0.4,1.1-0.4,2.7-1.9,3.1c-1,0.3-1.8-0.2-2.4-0.9c-0.6-0.7-0.7-1.6-0.3-2.4c0.4-0.9,1.1-1.3,2-1.4
			c0.5,0,1,0.1,1.5,0.3c0.2,0.1,0.5,0.1,0.7,0c2.3-1.3,4.7-2.3,7.2-3.2c0.1,0,0.1-0.1,0.3-0.2c-0.2,0-0.4-0.1-0.5-0.1
			c-1.8-0.2-3.5-0.3-5.3-0.5c-0.3,0-0.5,0.1-0.7,0.2c-0.8,0.7-2,0.4-2.3-0.6c-0.3-0.9,0.3-1.7,1.2-1.7c0.5,0,1,0.3,1.3,0.6
			c0.2,0.1,0.3,0.2,0.5,0.2c1.7,0.1,3.3,0.2,5,0.3c0.1,0,0.1,0,0.3-0.1c-0.1-0.1-0.2-0.1-0.4-0.2c-1-0.4-2-0.7-3.1-1.1
			c-0.2-0.1-0.3-0.1-0.5-0.2c-0.1-0.1-0.2-0.2-0.1-0.3c0-0.1,0.2-0.2,0.3-0.2c0.2,0,0.4,0,0.6,0.1c0.7,0.2,1.5,0.4,2.2,0.7
			c0.2,0.1,0.4,0.1,0.7,0.1c-0.1-0.1-0.2-0.2-0.3-0.2c-1-0.5-1.9-1.1-2.9-1.6c-1.9-1-3.7-2-5.5-3.2c-0.3,0.1-0.5,0.1-0.7,0.2
			c-0.9,0.2-1.9-0.1-2.3-0.8c-0.5-0.8-0.5-1.8,0.2-2.6c0.6-0.8,1.5-1,2.5-0.7c0.7,0.3,1.2,0.7,1.5,1.4c0.1,0.3,0.1,0.6,0.1,0.9
			c0,0.2-0.1,0.3-0.2,0.6c3,1.9,6.4,3.2,9.5,4.9c-0.6-0.7-1.2-1.4-1.8-2.1c-0.3-0.3-0.5-0.6-0.8-0.9c-0.1-0.1-0.2-0.3-0.2-0.4
			c0-0.2,0-0.4,0.1-0.5c0.1-0.1,0.3-0.1,0.5-0.1c0.2,0.1,0.3,0.2,0.5,0.4c1.2,1.3,2.5,2.6,3.7,3.9c0.1,0.1,0.3,0.3,0.5,0.4
			c-0.2-0.5-0.4-1-0.7-1.4c-1-2-1.9-4-2.9-6c-0.1-0.3-0.3-0.5-0.5-0.6c-0.2-0.1-0.3-0.2-0.4-0.4c-0.4-0.4-0.5-0.9-0.3-1.4
			c0.2-0.5,0.6-0.9,1.2-0.9c0.6,0,1,0.2,1.3,0.7c0.4,0.6,0.4,1.2-0.2,2c0.9,1.7,1.7,3.4,2.6,5c0,0,0,0,0.1,0c0-0.1,0-0.3,0-0.4
			c-0.1-1.3-0.2-2.5-0.3-3.8c0-0.2,0-0.4,0-0.6c0-0.4,0.2-0.6,0.5-0.6c0.3,0,0.4,0.2,0.5,0.5c0.1,0.3,0.1,0.6,0.2,1
			c0.2,1.6,0.4,3.2,0.6,4.8c0,0.2,0.1,0.4,0.2,0.6c0.1-0.3,0.2-0.7,0.2-1c0.7-3.5,1.5-7.1,2.2-10.6c0.1-0.4,0-0.6-0.2-0.9
			c-0.6-0.6-0.8-1.4-0.6-2.2c0.1-0.3,0.1-0.5,0.2-0.8c0.2-0.6,0.6-0.9,1.1-1c0.8-0.2,1.6-0.1,2.3,0.3c1,0.6,1.2,1.5,0.9,2.5
			c-0.4,1.2-1.2,1.9-2.5,1.9c-0.8,4-1.5,8-2.3,12c0.1-0.1,0.2-0.2,0.3-0.3c1-1.4,1.9-2.7,2.9-4.1c0.1-0.1,0.1-0.3,0.1-0.5
			c0.1-0.3,0.1-0.6,0.2-0.8c0.2-0.5,0.6-0.9,1.2-1c0.6-0.1,1,0.3,1.4,0.7c0.1,0.2,0.2,0.4,0.2,0.6c0,0.9-1,1.7-1.9,1.6
			c-0.1,0-0.2,0-0.3-0.1c-1,1.5-2,3-3,4.5c0,0,0.1,0,0.1,0.1c0.6-0.5,1.1-0.9,1.7-1.4c0.8-0.6,1.6-1.3,2.5-1.9
			c0.2-0.1,0.3-0.3,0.5-0.3c0.2,0,0.4,0,0.5,0.1c0.1,0.1,0.1,0.4,0,0.5c0,0.2-0.2,0.3-0.3,0.4c-0.4,0.4-0.8,0.8-1.2,1.2
			c2.4-0.9,4.7-2.1,7-3.2c0-0.2,0.1-0.4,0.1-0.6c0.3-1.2,1.3-1.8,2.5-1.4c1.1,0.3,1.7,1.2,1.7,2.2c0,1-0.7,1.9-1.7,2.2
			c-0.6,0.2-1.2,0-1.7-0.4c-0.1-0.1-0.3-0.3-0.4-0.4c-3.2,1.5-6.3,2.9-9.5,4.4c0,0,0,0,0,0c1.1-0.3,2.2-0.6,3.2-0.9
			c0.1,0,0.3-0.1,0.5-0.1c0.2,0,0.4,0,0.5,0.2c0.1,0.2,0,0.4-0.3,0.5c-0.5,0.2-0.9,0.4-1.4,0.5c-0.9,0.3-1.9,0.6-2.8,0.8
			c-0.1,0-0.1,0-0.2,0.2c2.5,0.2,4.9,0.3,7.4,0.5c0.1-0.1,0.1-0.1,0.2-0.2c0.4-0.5,0.9-0.6,1.4-0.5c0.6,0.1,0.9,0.6,1,1.1
			c0.1,0.5,0,0.9-0.5,1.2c-0.5,0.3-1,0.5-1.5,0.1c-0.4-0.3-0.9-0.3-1.4-0.3c-1.1,0-2.2,0-3.5-0.1c0.2,0.1,0.3,0.2,0.5,0.2
			c0.9,0.2,1.8,0.5,2.7,0.7c0.1,0,0.3,0.1,0.4,0.1c0.2,0.1,0.3,0.2,0.2,0.4c0,0.2-0.2,0.3-0.4,0.3c-0.2,0-0.3,0-0.5-0.1
			c-1.5-0.4-3-0.8-4.5-1.1c-0.2-0.1-0.4-0.1-0.7-0.1c0.1,0.1,0.2,0.2,0.3,0.2c2.7,1.5,5.4,2.9,8.1,4.4c0.3,0.2,0.6,0.2,0.9,0
			c0.3-0.2,0.7-0.2,1.1-0.1c0.9,0.2,1.5,0.9,1.8,1.7c0.1,0.4,0.1,0.8-0.1,1.1c-0.3,0.8-0.9,1.2-1.7,1.3c-0.9,0.1-1.7,0-2.2-0.8
			C307.5,230.6,307.4,230.1,307.5,229.5z"/>
		<path class="st20" d="M124.2,197.5c-1.2,0.7-2.4,1.4-3.5,2.1c-0.1,0.1-0.2,0.2-0.3,0.4c-0.3,0.5-0.7,0.8-1.3,0.8
			c-0.2,0-0.4,0-0.5,0.1c-1.1,0.6-2.2,1.2-3.3,1.9c-0.1,0-0.1,0.1-0.2,0.1c0.1,0.1,0.2,0.1,0.3,0.2c1,0.4,2,0.8,3,1.1
			c0.3,0.1,0.5,0.1,0.8,0c0.7-0.3,1.3-0.1,1.7,0.6c0.1,0.3,0.3,0.4,0.6,0.5c0.9,0.3,1.9,0.6,2.8,1c0.2,0.1,0.4,0.1,0.6-0.1
			c0.6-0.5,1.3-0.5,1.9-0.1c0.7,0.4,0.9,1,0.9,1.7c0,0.7-0.5,1.3-1.3,1.4c-0.3,0-0.7,0.1-1,0.1c-0.8,0-1.1-0.3-1.2-1.1
			c0-0.1,0-0.1,0-0.2c-0.3-0.1-0.5-0.2-0.8-0.3c-0.7-0.2-1.4-0.5-2.1-0.7c-0.5-0.2-0.9-0.3-1.4,0c-0.4,0.2-0.9,0-1.3,0
			c-0.3,0-0.5-0.3-0.5-0.6c0-0.2,0-0.3-0.1-0.5c-1.4-0.6-2.9-1.2-4.4-1.8c0.1,0.2,0.1,0.4,0.2,0.5c0.6,1.3,1.1,2.6,1.7,3.9
			c0.1,0.2,0.2,0.4,0.4,0.5c1,0.3,1.4,1,1,2c-0.1,0.4-0.1,0.7,0.1,1c0.4,0.8,0.8,1.7,1.2,2.6c0.1,0,0.2,0,0.3,0c0.7,0,1.1,0.4,1.4,1
			c0.1,0.3,0.2,0.6,0.3,0.9c0.1,1.1-0.5,1.9-1.4,2c-1.1,0.1-2.1-0.6-2.2-1.6c-0.1-0.6,0.1-1.1,0.4-1.6c-0.5-1-1-2-1.5-3
			c-0.1-0.2-0.3-0.3-0.5-0.4c-0.6-0.3-0.9-0.8-1-1.3c-0.1-0.2,0-0.5,0.1-0.8c0.1-0.2,0.1-0.4,0-0.6c-0.7-1.5-1.3-3.1-2-4.6
			c-0.4,0-0.6,0.2-0.7,0.5c-0.4,1.1-0.8,2.1-1.2,3.2c-0.1,0.2-0.1,0.4,0,0.6c0.2,0.5,0.1,1-0.1,1.5c-0.1,0.3-0.3,0.6-0.7,0.7
			c-0.2,0.1-0.4,0.2-0.4,0.5c-0.3,0.9-0.5,1.8-0.8,2.6c-0.1,0.3-0.1,0.5,0.1,0.7c0,0,0.1,0.1,0.1,0.1c0.5,0.8,0.4,1.9-0.3,2.3
			c-0.8,0.5-1.9,0.4-2.5-0.3c-0.4-0.5-0.6-1-0.4-1.6c0.2-0.5,0.4-0.9,0.9-1c0.3-0.1,0.4-0.3,0.5-0.6c0.3-1,0.5-1.9,0.8-2.9
			c0.1-0.2,0.1-0.5,0-0.7c-0.4-0.9-0.2-1.6,0.7-2c0.2-0.1,0.4-0.2,0.4-0.5c0.2-0.5,0.4-1,0.6-1.6c-0.2,0.1-0.4,0.1-0.5,0.2
			c-0.5,0.3-1,0.5-1.5,0.8c-0.3,0.1-0.5,0.3-0.6,0.6c-0.3,0.7-0.6,0.9-1.4,0.7c-0.2-0.1-0.4,0-0.7,0.1c-0.4,0.2-0.7,0.4-1.1,0.5
			c-0.6,0.2-1,0.5-1.4,1c-0.8,1-1.9,1-2.8,0c-0.1-0.1-0.1-0.1-0.2-0.2c-0.6-0.8-0.5-1.9,0.2-2.4c0.7-0.6,1.8-0.5,2.5,0.2
			c0.1,0.1,0.2,0.2,0.4,0.4c0.6-0.3,1.2-0.6,1.8-1c0.1-0.1,0.2-0.2,0.2-0.3c0.5-1.3,1-1.5,2.3-1c1.1-0.6,2.2-1.1,3.3-1.7
			c0.4-0.2,0.5-0.6,0.6-1c-0.3-0.1-0.5-0.2-0.7-0.3c-0.7-0.3-1.5-0.6-2.2-0.9c-0.3-0.1-0.6-0.2-0.9,0c-0.3,0.2-0.6,0.3-0.9,0.3
			c-0.6,0-1.1-0.2-1.2-1.2c0-0.2,0-0.4-0.3-0.6c-1-0.5-2-1-3.1-1.6c-0.4,0.4-0.8,0.6-1.4,0.6c-0.8,0-1.4-0.4-1.8-1
			c-0.5-0.8-0.1-1.8,0.7-2.2c1-0.4,2-0.1,2.5,0.9c0.1,0.2,0.3,0.4,0.5,0.5c1,0.5,2.1,1,3.1,1.5c0.3,0.1,0.5,0.2,0.8,0.1
			c0.9-0.3,1.5,0,1.9,0.9c0.1,0.2,0.3,0.3,0.4,0.4c0.9,0.4,1.8,0.7,2.7,1c0-0.2-0.1-0.3-0.1-0.4c-0.4-1.1-0.9-2.2-1.3-3.3
			c-0.1-0.2-0.3-0.4-0.4-0.6c-0.5-0.4-0.7-0.9-0.5-1.6c0-0.2,0-0.3,0-0.5c-0.3-0.8-0.6-1.6-0.9-2.4c-0.2,0-0.4,0-0.6-0.1
			c-1-0.2-1.7-1.1-1.6-2.1c0-0.2,0.1-0.4,0.1-0.6c0.1-0.8,0.5-1.3,1.4-1.4c0.8-0.1,1.5,0.2,1.9,0.9c0.5,0.8,0.5,1.6,0.1,2.5
			c-0.1,0.1-0.1,0.2-0.2,0.3c0.3,0.8,0.6,1.5,1,2.3c0.1,0.1,0.2,0.3,0.4,0.3c0.8,0.4,1.1,1,0.8,1.9c-0.1,0.2-0.1,0.4,0,0.5
			c0.3,0.8,0.7,1.6,1,2.4c0,0.1,0.1,0.1,0.1,0.1c0.1-0.1,0.1-0.1,0.1-0.1c0.4-1.1,0.9-2.2,1.3-3.3c0.1-0.1,0-0.3,0-0.5
			c-0.2-0.7,0-1.2,0.7-1.6c0.2-0.1,0.4-0.3,0.5-0.5c0.4-1,0.8-1.9,1.3-2.9c0.1-0.3,0-0.5-0.1-0.7c-0.4-0.8-0.2-1.6,0.5-2
			c0.8-0.5,1.7-0.5,2.3,0.1c0.5,0.5,0.6,1.2,0.4,1.9c-0.2,0.6-0.6,1-1.2,1.1c-0.4,0.1-0.6,0.3-0.7,0.6c-0.3,0.9-0.7,1.7-1,2.6
			c-0.1,0.2-0.1,0.4,0,0.6c0.3,0.6,0,1.1-0.6,1.6c-0.2,0.1-0.4,0.3-0.4,0.5c-0.6,1.6-1.2,3.2-1.8,4.7c0,0.1,0,0.1,0,0.2
			c0.2,0.2,0.5,0.2,0.7,0.1c1.4-0.8,2.9-1.6,4.3-2.3c0.2-0.1,0.3-0.2,0.3-0.4c0.1-0.9,0.7-1.2,1.5-1c0.3,0.1,0.6,0,0.9-0.1
			c0.9-0.5,1.8-1,2.7-1.5c0.4-0.2,0.8-0.5,0.9-1c0.1-0.4,0.3-0.7,0.6-0.9c0.7-0.5,1.5-0.4,2,0.2c0.5,0.5,0.6,1.6,0.3,2.2
			c-0.4,0.8-1.3,1.1-2.1,0.7C124.5,197.7,124.4,197.6,124.2,197.5z"/>
		<path class="st20" d="M145.1,233.1c-0.5-0.3-1-0.5-1.5-0.7c-0.9-0.4-1.8-0.6-2.6-1c-1.3-0.6-1.6-1.9-0.4-2.8
			c0.7-0.6,1.5-1.1,2.4-1.5c1-0.5,2-0.9,3.1-1.3c0-0.9,0-1.8,0-2.7c0-0.4,0-0.7,0-1.1c0-0.6,0.2-1.1,0.8-1.3
			c0.6-0.3,1.2-0.1,1.6,0.4c0.5,0.5,1,1.1,1.5,1.7c1.5,1.9,1.1,2,3.8,1.3c0.9-0.2,1.7-0.5,2.6-0.8c0.7-0.2,1.3-0.3,1.9,0.3
			c0.5,0.5,0.5,1.1,0.3,1.8c-0.3,0.8-0.6,1.6-0.9,2.3c-0.3,0.7-0.8,1.3-1.3,2.1c0.3,0.5,0.7,1.1,1.1,1.6c0.5,0.7,1,1.3,1.4,2
			c0.9,1.4,0.2,2.8-1.5,2.8c-1.3,0-2.6-0.1-3.9-0.4c-1.1-0.2-1.9-0.1-2.8,0.7c-0.8,0.8-1.8,1.4-2.8,2c-0.3,0.2-0.7,0.4-1,0.5
			c-1.3,0.4-2.3-0.4-2.2-1.7c0.1-0.9,0.3-1.9,0.4-2.8C145,233.9,145,233.5,145.1,233.1z"/>
		<path class="st20" d="M263.1,123.8c-0.5,0.3-0.8,0.6-1.1,0.8c-1,0.8-2,1.6-3,2.3c-0.3,0.2-0.7,0.4-1,0.5c-0.4,0.1-0.9,0-1.1-0.4
			c-0.3-0.4-0.2-0.8,0.1-1.2c0.3-0.3,0.6-0.6,0.9-0.9c1.1-1,2.3-1.9,3.4-2.9c0.2-0.1,0.4-0.3,0.8-0.6c-1.2-0.3-2.1-0.4-3-0.7
			c-0.8-0.2-1.5-0.4-2.2-0.7c-0.7-0.3-1-0.8-0.8-1.2c0.1-0.5,0.6-0.7,1.4-0.6c1.6,0.3,3.3,0.5,4.9,0.8c0.2,0,0.4,0,0.7,0
			c-0.7-1.2-1.3-2.3-2-3.4c-0.3-0.6-0.6-1.2-0.9-1.8c-0.2-0.6-0.1-1.1,0.4-1.3c0.5-0.3,0.9,0,1.2,0.4c0.5,0.6,0.9,1.3,1.4,1.9
			c0.4,0.6,0.8,1.2,1.3,1.9c0.2-0.6,0.3-0.9,0.4-1.3c0.3-1.5,0.6-3,0.9-4.5c0.1-0.3,0.2-0.6,0.3-0.9c0.2-0.5,0.6-0.7,1.2-0.6
			c0.5,0.1,0.7,0.5,0.7,0.9c0,0.7,0,1.4-0.2,2.1c-0.2,1.5-0.5,2.9-0.8,4.4c0,0.3,0,0.5,0,1c0.7-0.5,1.3-0.9,1.9-1.3c1-0.7,2-1.4,3-2
			c0.2-0.2,0.5-0.4,0.7-0.4c0.3,0,0.7,0,0.9,0.2c0.2,0.2,0.3,0.7,0.2,0.9c-0.2,0.4-0.6,0.8-1,1.2c-1.4,1.1-2.7,2.1-4.1,3.1
			c-0.2,0.2-0.4,0.3-0.7,0.6c0.3,0.1,0.6,0.2,0.8,0.3c1.2,0.3,2.4,0.6,3.5,0.9c0.4,0.1,0.8,0.2,1.2,0.4c0.6,0.3,0.9,0.7,0.7,1.2
			c-0.2,0.6-0.7,0.8-1.2,0.7c-0.9-0.1-1.9-0.3-2.8-0.5c-0.4-0.1-0.8-0.1-1.5-0.2c0.3,0.5,0.5,0.9,0.7,1.2c0.6,1,1.3,2.1,1.9,3.1
			c0.3,0.5,0.3,1-0.2,1.4c-0.4,0.3-1,0.3-1.5-0.3c-0.6-0.7-1.1-1.5-1.7-2.3c-0.6-0.9-1.2-1.7-1.9-2.7c-0.1,0.5-0.3,0.8-0.3,1.1
			c-0.3,1.5-0.6,2.9-0.9,4.4c-0.1,0.3-0.1,0.5-0.2,0.8c-0.2,0.6-0.7,0.8-1.2,0.7c-0.5-0.1-0.8-0.5-0.7-1.1c0.1-1.1,0.2-2.2,0.3-3.3
			C262.9,125.5,263,124.7,263.1,123.8z"/>
		<g>
			<path class="st20" d="M287,177.3c-0.8,0-1.4,0-2.1,0c-0.3,0-0.7-0.1-1-0.2c-0.3-0.1-0.6-0.4-0.5-0.8c0-0.4,0.3-0.5,0.7-0.6
				c0.7-0.1,1.5-0.2,2.2-0.3c0.5,0,0.8-0.2,1-0.6c0.6-1.2,1.3-2.4,1.8-3.7c0.9-2.2,0.1-4.2-2.1-5.3c-0.7-0.4-1.6-0.6-2.4-0.7
				c-1.1-0.2-2.3-0.2-3.5-0.4c-0.2,0.6-0.4,1.3-0.7,1.9c-0.1,0.3-0.2,0.7-0.4,0.9c-0.2,0.3-0.5,0.4-0.9,0.3
				c-0.4-0.1-0.5-0.4-0.5-0.8c0-0.4,0.1-0.8,0.2-1.2c0.2-0.6,0.4-1.3,0.5-1.9c0.2-0.7,0.2-0.7-0.5-1.1c-0.2-0.1-0.4-0.3-0.6-0.4
				c-0.3-0.2-0.5-0.5-0.3-0.9c0.1-0.4,0.5-0.6,0.8-0.5c0.6,0.2,1.1,0.4,1.7,0.6c0.3,0.1,0.5,0.3,0.7,0.5c1.7-0.6,3.2-1.3,4.7-2.3
				c1.3-0.9,1.9-2.2,1.5-3.8c-0.1-0.4-0.2-0.8-0.3-1.2c-0.3-0.9-0.7-1.7-1.5-2.3c-0.9-0.6-1.8-1.4-2.7-2.2c-0.5,0.2-1,0.4-1.5,0.6
				c-0.7,0.3-1.2,0.2-1.4-0.2c-0.2-0.4,0-0.8,0.6-1.3c0.2-0.2,0.5-0.4,0.7-0.5c0.7-0.3,0.9-0.8,0.9-1.5c0-0.9,0.1-1.7,0.1-2.6
				c0-0.5,0.4-0.8,0.9-0.6c0.5,0.2,0.7,0.6,0.7,1.2c0,0.9,0.1,1.9,0.1,2.8c0,0.2,0,0.3,0,0.4c2.2,0.8,4.4,1.6,6.6,2.4
				c0.6,0.2,1.2,0.3,1.7,0.4c1,0.2,1.5,0,1.9-0.9c0.4-0.9,0.8-1.9,1-2.9c0.3-1.7,0.5-3.5,0.7-5.3c0-0.2,0-0.4,0-0.4
				c-0.8-0.6-1.5-1.1-2.2-1.7c-0.4-0.3-0.5-0.7-0.3-1c0.2-0.4,0.6-0.4,1-0.3c0.5,0.2,1,0.5,1.5,0.8c0.6-0.6,1.3-1.2,2-1.7
				c0.3-0.3,0.6-0.6,1-0.8c0.2-0.1,0.5-0.2,0.7-0.3c0.3,0,0.6,0.1,0.8,0.5c0.1,0.3,0,0.5-0.2,0.8c-0.6,0.6-1.2,1.2-1.8,1.8
				c-0.2,0.2-0.5,0.5-0.8,0.7c0.9,2.6,1.8,5.1,2.7,7.6c0.2,0.6,0.5,1.2,0.8,1.7c0.3,0.6,0.6,0.7,1.2,0.5c0.5-0.1,0.9-0.3,1.3-0.6
				c1.5-1,2.9-2.1,4.4-3.1c0.6-0.5,1.2-0.9,1.8-1.5c0.5-0.5,1-1.1,1.4-1.6c0.2-0.2,0.2-0.4,0.1-0.7c-0.2-0.8-0.4-1.7-0.6-2.5
				c0-0.2-0.1-0.3-0.1-0.5c0-0.4,0.1-0.7,0.5-0.9c0.4-0.2,0.7-0.1,0.9,0.2c0.2,0.3,0.4,0.6,0.5,0.9c0.2,0.7,0.4,1.4,0.6,2
				c0.9,0,1.7,0,2.6,0c0.4,0,0.7,0,1.1,0.1c0.4,0.1,0.7,0.3,0.7,0.8c0,0.4-0.2,0.7-0.6,0.8c-0.6,0.1-1.1,0.2-1.7,0.2
				c-0.4,0-0.8,0.1-1.2,0.1c-0.1,1.2-0.8,2.2-1.3,3.3c-0.6,1.2-1.3,2.3-1.9,3.5c-0.3,0.7-0.6,1.4-0.8,2.2c-0.2,0.9,0.1,1.4,1,1.6
				c0.7,0.2,1.4,0.3,2.2,0.5c1.9,0.3,3.8,0.6,5.8,0.9c0.3,0,0.6,0,0.9,0.1c0.2-1.2,1.1-2,1.8-2.9c0.3-0.4,0.8-0.5,1.1-0.3
				c0.4,0.2,0.5,0.6,0.3,1.1c-0.1,0.3-0.3,0.7-0.5,1c-0.2,0.3-0.3,0.5-0.5,0.8c0.6,0.7,1.1,1.4,1.7,2.1c0.2,0.2,0.4,0.5,0.5,0.7
				c0.3,0.5,0.2,0.9-0.1,1.2c-0.3,0.3-0.8,0.3-1.2,0c-0.3-0.2-0.5-0.5-0.8-0.8c-0.3-0.3-0.6-0.6-0.8-0.9c-1.7,0.4-3.3,0.7-4.9,1.2
				c-0.9,0.3-1.8,0.6-2.7,1.1c-0.5,0.2-0.8,0.7-1.2,1.1c-0.7,0.9-0.8,1.9-0.2,2.9c0.4,0.7,0.8,1.4,1.3,1.9c1,1.1,2,2.1,3,3.2
				c0.1,0.1,0.2,0.2,0.3,0.3c0.6-0.3,1.1-0.6,1.7-0.8c0.2-0.1,0.4-0.2,0.6-0.3c0.5-0.1,0.9,0,1.1,0.4c0.2,0.4,0.1,0.8-0.3,1.1
				c-0.5,0.4-1.1,0.7-1.7,1.1c0,0.5,0.1,1,0.1,1.5c0,0.7,0.1,1.3,0.1,2c0,0.6-0.3,0.9-0.7,1c-0.5,0-0.8-0.2-1-0.8
				c-0.1-0.7-0.3-1.4-0.3-2.1c0-0.4-0.2-0.6-0.6-0.8c-2-1.2-3.9-2.3-5.9-3.5c-0.6-0.4-1.1-0.4-1.7-0.1c-0.4,0.3-0.9,0.6-1.2,0.9
				c-0.7,0.7-1.1,1.6-1.5,2.6c-0.7,2.1-1.3,4.3-1.7,6.5c-0.1,0.8-0.1,0.8,0.6,1.2c0.8,0.5,1.6,1.1,2.3,1.6c0.2,0.1,0.3,0.2,0.5,0.4
				c0.4,0.4,0.4,0.9,0.1,1.2c-0.3,0.4-0.8,0.5-1.2,0.2c-0.2-0.1-0.4-0.3-0.6-0.4c-0.8-0.5-1.7-1.1-2.6-1.7c-0.3,0.5-0.5,0.8-0.8,1.2
				c-0.2,0.3-0.4,0.6-0.6,0.9c-0.2,0.3-0.6,0.3-0.9,0.2c-0.3-0.2-0.4-0.5-0.4-0.8c0.1-0.4,0.2-0.8,0.5-1.2c0.6-0.8,0.6-1.7,0.1-2.6
				c-0.7-1.5-1.3-3-2-4.5c-0.3-0.6-0.7-1.1-1.3-1.3c-0.6-0.2-1.2-0.3-1.8-0.2c-2.4,0.4-4.4,1.4-6.4,2.8c-0.4,0.3-0.5,0.6-0.4,1
				c0.1,0.7,0.2,1.4,0.3,2c0,0.6-0.2,1-0.6,1.1c-0.4,0.1-0.8-0.2-1-0.7C287.5,179,287.3,178.2,287,177.3z M300.9,163.3
				c0,1.6,1.4,9.8,1.9,10.7c0.7-2.7,1.6-5.2,4.1-6.8C304.9,165.9,303,164.6,300.9,163.3z M291.9,169.1c1.8-2.3,3.6-4.5,5.4-6.8
				c-3.4,0.4-6.7,0.7-10,1.1c1.1,0.5,2.2,1.2,3,2.2C291.1,166.6,291.6,167.7,291.9,169.1z M298.4,165.1c-0.1,0-0.1,0-0.2-0.1
				c-1.8,2.2-3.5,4.5-5.2,6.9c2.1-0.5,4.2-1.1,6.4,0.2C299.1,169.6,298.8,167.4,298.4,165.1z M288.3,161c2.6-0.2,5.2-0.5,7.7-1
				c-2-1.4-4-2.8-6.1-4.2C290.2,157.9,289.6,159.6,288.3,161z M310.3,160.5c-1.6,0.1-6.6,0.8-7.4,1.1c2.3,1.4,4.5,2.9,6.7,4.3
				c-0.2-1-0.5-1.9-0.3-2.8C309.6,162.2,309.9,161.4,310.3,160.5z M290.7,153.5c0,0.1,0,0.1-0.1,0.2c2.3,1.5,4.5,3,7,4.5
				c-0.3-2.7-0.5-5.2-0.8-7.7c-0.4,0.6-0.7,1.2-1,1.8c-0.6,1.1-1.4,1.6-2.6,1.6c-0.5,0-1-0.1-1.4-0.1
				C291.4,153.7,291.1,153.6,290.7,153.5z M307.3,153.4c-1.5,1.6-4,5-4.2,5.6c2.4-0.4,4.8-0.7,7.1-1.1
				C308.2,157.1,307,155.9,307.3,153.4z M300.2,158.3c0.1,0,0.1,0,0.2,0c1.5-2,3.1-3.9,4.6-6c-0.6,0.1-1,0.4-1.5,0.5
				c-1.3,0.4-2.6,0.5-3.7-0.5c0,0-0.1,0-0.2,0C299.7,154.5,300,156.4,300.2,158.3z"/>
			<path class="st20" d="M323.1,174c0,0.6-0.9,1.6-1.6,1.7c-0.8,0.1-1.6-0.5-1.8-1.4c-0.2-0.7,0.3-1.4,1.1-1.7
				C322,172.2,323.1,172.9,323.1,174z"/>
			<path class="st20" d="M278.9,145.5c0.9,0,1.6,0.8,1.6,1.7c0,0.9-0.8,1.7-1.6,1.6c-0.9,0-1.6-0.8-1.6-1.7
				C277.2,146.3,278,145.5,278.9,145.5z"/>
			<path class="st20" d="M286.2,179.5c0,0.9-0.8,1.9-1.5,1.9c-0.7,0-1.6-0.9-1.6-1.6c0-0.8,0.8-1.6,1.7-1.6
				C285.6,178.1,286.2,178.7,286.2,179.5z"/>
			<path class="st20" d="M303.5,184.1c0.7,0,1.5,0.9,1.5,1.7c0,0.8-0.8,1.5-1.6,1.5c-0.8,0-1.6-0.9-1.5-1.8
				C302,184.9,302.8,184.1,303.5,184.1z"/>
			<path class="st20" d="M277.6,164.5c0,0.8-0.5,1.5-1.3,1.5c-0.8,0-1.8-0.8-1.8-1.7c0-0.7,0.7-1.4,1.5-1.4
				C276.8,162.9,277.6,163.6,277.6,164.5z"/>
			<path class="st20" d="M295.6,138c-0.8,0-1.6-0.8-1.6-1.6c0-0.7,0.7-1.4,1.6-1.4c0.8,0,1.5,0.6,1.5,1.5
				C297,137.3,296.4,138,295.6,138z"/>
			<path class="st20" d="M325.8,154.7c0.8,0,1.5,0.7,1.5,1.5c0,0.8-0.7,1.5-1.6,1.5c-0.8,0-1.5-0.7-1.5-1.5
				C324.3,155.4,324.9,154.7,325.8,154.7z"/>
			<path class="st20" d="M314.5,139.6c0-0.9,0.7-1.6,1.5-1.6c0.9,0,1.4,0.5,1.4,1.4c0,0.9-0.7,1.5-1.6,1.5
				C315,141,314.5,140.5,314.5,139.6z"/>
		</g>
		<g>
			<path class="st20" d="M163.3,177.7c1.2-0.2,2.2-0.3,3.2-0.5c0.6-0.1,1.1-0.1,1.6-0.5c0.1-0.1,0.5-0.1,0.6,0
				c0.2,0.2,0.2,0.5,0.2,0.7c-0.1,0.5-0.5,0.7-0.9,0.8c-0.8,0.2-1.7,0.3-2.5,0.5c-0.3,0-0.5,0.1-0.9,0.2c0.5,0.6,0.9,1,1.4,1.5
				c0.1,0.1,0.4,0.1,0.6,0.1c1.1-0.1,2.2-0.3,3.3-0.4c0.3,0,0.7-0.1,0.8,0.3c0.1,0.3-0.1,0.7-0.5,0.8c-0.5,0.2-1,0.2-1.5,0.3
				c-0.4,0.1-0.9,0.1-1.5,0.2c0.2,0.3,0.4,0.5,0.6,0.7c0.4,0.4,0.8,0.9,1.2,1.3c0.3,0.4,0.3,0.7,0.1,0.9c-0.3,0.3-0.6,0.3-1,0
				c-0.2-0.2-0.4-0.4-0.6-0.6c-0.2-0.2-0.3-0.3-0.5-0.5c0,0-0.1,0-0.2-0.1c0,0.2,0,0.4,0,0.5c0,0.3-0.1,0.5-0.3,0.6
				c-0.3,0.1-0.5-0.1-0.6-0.4c-0.1-0.2-0.2-0.5-0.2-0.7c0.1-1.5-0.9-2.3-1.9-3.3c-0.1,0.2-0.2,0.4-0.2,0.5c-0.1,0.2-0.1,0.5-0.2,0.7
				c-0.2,0.4-0.4,0.6-0.7,0.5c-0.4-0.1-0.4-0.4-0.4-0.7c0.1-0.5,0.1-1.1,0.2-1.6c0.1-0.4,0.1-0.7-0.3-1.1c-1.3-1.2-2.5-2.4-3.8-3.5
				c-0.2-0.2-0.4-0.3-0.7-0.5c0,0.3,0,0.5,0,0.7c0.2,2.1,0.4,4.2,0.5,6.3c0.1,2.5,0.1,4.9-0.3,7.4c-0.1,0.6-0.3,1.2-0.5,1.9
				c-0.1,0.3-0.2,0.5-0.3,0.7c-0.6,0.9-1.7,1-2.2,0c-0.4-0.8-0.7-1.7-0.8-2.6c-0.4-2.5-0.3-4.9-0.1-7.4c0.2-2.4,0.7-4.8,1.4-7.1
				c0-0.1,0.1-0.3,0.2-0.6c-0.3,0.1-0.4,0.2-0.5,0.3c-1,1.1-2,2.2-3.1,3.3c-0.2,0.2-0.3,0.5-0.1,0.8c0.3,0.7,0.5,1.4,0.8,2.1
				c0.2,0.6,0.2,0.9-0.1,1.1c-0.4,0.2-0.8,0-1.1-0.6c-0.2-0.5-0.4-0.9-0.6-1.4c0-0.1-0.1-0.2-0.2-0.4c-0.5,0.5-0.9,0.9-1.3,1.4
				c-0.1,0.1-0.1,0.4-0.1,0.7c0.2,0.7,0.4,1.4,0.6,2.2c0.1,0.4,0.2,0.7-0.2,0.9c-0.3,0.2-0.8,0-1-0.5c-0.2-0.4-0.3-0.9-0.5-1.4
				c0-0.1-0.1-0.2-0.1-0.4c-0.5,0.4-0.8,0.9-1.2,1.4c-0.1,0.1-0.1,0.3-0.2,0.4c-0.2,0.3-0.5,0.3-0.8,0.1c-0.3-0.2-0.4-0.4-0.3-0.7
				c0.1-0.3,0.2-0.5,0.4-0.8c0.5-0.7,1-1.3,1.5-2c-0.1-0.5-0.5-0.6-0.9-0.7c-0.4,0-0.7,0-1.1,0c-0.3,0-0.5-0.1-0.8-0.2
				c-0.2-0.1-0.4-0.4-0.3-0.6c0.1-0.1,0.3-0.3,0.5-0.3c0.3-0.1,0.7-0.1,1-0.1c0.9-0.1,1.8-0.1,2.5,0.7c0.6-0.6,1.1-1.2,1.8-2
				c-0.4-0.1-0.7-0.1-0.9-0.1c-0.3,0-0.7,0.1-1,0.1c-0.2,0-0.5,0-0.7-0.2c-0.2-0.1-0.3-0.3-0.3-0.5c0-0.2,0.3-0.4,0.4-0.4
				c0.5-0.1,1-0.1,1.5-0.2c0.7-0.1,1.3-0.1,1.9,0.3c0.6-0.6,1.1-1.2,1.8-1.9c-0.6,0.1-1.1,0.2-1.5,0.2c-1.9,0.2-3.8,0.4-5.7-0.1
				c-0.6-0.2-1.3-0.4-1.8-0.8c-1.2-0.8-1.2-2.1,0-2.9c0.5-0.3,1-0.6,1.6-0.7c2.6-0.6,5.1-0.3,7.6,0.4c0.4,0.1,0.9,0.3,1.4,0.3
				c-0.9-0.9-1.8-1.8-2.7-2.7c-1,0.9-2.2,0.6-3.3,0.6c-0.3,0-0.6-0.2-0.6-0.6c0-0.3,0.2-0.5,0.5-0.5c0.4-0.1,0.9-0.1,1.3-0.2
				c0.3,0,0.5-0.1,0.9-0.2c-0.3-0.7-0.9-1-1.3-1.4c-0.9,0.8-1.9,0.8-2.9,0.5c-0.2-0.1-0.4-0.1-0.5-0.3c-0.1-0.1-0.2-0.4-0.2-0.6
				c0-0.1,0.3-0.2,0.4-0.2c0.3,0,0.6,0.1,0.9,0.1c0.6,0.1,0.7,0,1.3-0.5c-0.3-0.3-0.7-0.7-1-1c-0.2-0.2-0.4-0.4-0.5-0.6
				c-0.2-0.2-0.3-0.5,0-0.7c0.2-0.3,0.5-0.2,0.8,0c0.2,0.1,0.4,0.3,0.6,0.5c0.3,0.2,0.5,0.5,0.8,0.8c0.3-0.7,0.6-1.2,0.8-1.8
				c0.1-0.1,0.1-0.3,0.2-0.4c0.1-0.3,0.3-0.5,0.7-0.4c0.3,0.1,0.4,0.4,0.3,0.7c-0.1,0.3-0.2,0.6-0.3,0.8c-0.2,0.6-0.5,1.3-0.8,2
				c0.4,0.4,0.8,0.7,1.3,1.2c0.2-0.8,0.4-1.4,0.7-2.1c0.1-0.3,0.3-0.7,0.5-1c0.2-0.2,0.5-0.4,0.8-0.2c0.3,0.2,0.3,0.5,0.2,0.8
				c-0.3,1.1-0.6,2.1-1,3.2c0,0.1-0.1,0.2-0.1,0.4c0.9,0.9,1.7,1.8,2.6,2.7c0,0,0.1,0,0.1,0c-0.1-0.9-0.3-1.8-0.4-2.7
				c-0.3-3-0.4-5.9,0.2-8.8c0.1-0.6,0.4-1.3,0.7-1.9c0.2-0.5,0.6-0.8,1.1-0.8c0.6,0,0.9,0.4,1.1,1c0.2,0.8,0.4,1.7,0.4,2.5
				c0,2.2-0.1,4.5-0.2,6.7c-0.1,1.4-0.2,2.7-0.2,4c0.1,0,0.1,0,0.2,0.1c0.7-1,1.5-2.1,2.3-3.2c-0.7-1.1-0.6-2.4-0.7-3.6
				c0-0.3,0.1-0.6,0.4-0.7c0.4-0.1,0.6,0.2,0.6,0.6c0.1,0.4,0.2,0.9,0.3,1.3c0.1,0.3,0.1,0.6,0.2,1c0.4-0.6,0.7-1.1,1.1-1.6
				c-0.6-0.8-0.5-1.8-0.6-2.7c0-0.2,0-0.4,0.1-0.6c0-0.3,0.2-0.5,0.5-0.5c0.3,0,0.5,0.2,0.6,0.5c0.1,0.4,0.1,0.7,0.2,1.1
				c0,0.2,0.1,0.5,0.1,0.8c0.2-0.2,0.3-0.3,0.4-0.4c0.4-0.5,0.7-1,1.1-1.4c0.3-0.4,0.7-0.5,0.9-0.3c0.3,0.2,0.3,0.5,0,1
				c-0.4,0.6-0.8,1.2-1.3,2c0.4,0.1,0.8,0.2,1.2,0.3c0.4,0.1,0.8,0.2,1.2,0.3c0.3,0.1,0.5,0.3,0.4,0.6c0,0.3-0.3,0.4-0.6,0.4
				c-0.2,0-0.4,0-0.6,0c-0.6-0.1-1.2-0.2-1.8-0.3c-0.2,0-0.4,0-0.7-0.1c-0.4,0.6-0.7,1.1-1.2,1.7c0.9,0.3,1.5,0.9,2.4,0.8
				c0.3,0,0.5,0.1,0.5,0.3c0,0.2-0.1,0.5-0.2,0.7c-0.3,0.3-0.7,0.3-1,0.2c-0.6-0.2-1.1-0.4-1.7-0.6c-0.3-0.1-0.5-0.2-0.8-0.3
				c-0.9,1.2-1.9,2.5-2.9,3.9c0.6-0.2,1-0.3,1.5-0.5c1.7-0.5,3.4-1,5.3-0.9c1.4,0.1,2.8,0.4,4.1,1.1c0.5,0.3,1,0.7,1.4,1.2
				c0.5,0.6,0.4,1.3-0.2,1.8c-0.3,0.3-0.8,0.5-1.2,0.6c-2.3,0.6-4.6,0.8-6.9,0.6c-0.5-0.1-1-0.1-1.7-0.2
				C161.3,175.8,162.3,176.8,163.3,177.7z M158.9,172.6c3.2,0.7,6.4,0.9,9.7-0.1c-0.4-0.2-0.6-0.4-0.8-0.5c-0.9-0.4-1.8-0.6-2.8-0.7
				C162.9,171.2,160.9,171.9,158.9,172.6z M155.7,189.9c1.1-2.1,0.9-10.1,0.3-12.6C155.1,181.6,154.7,185.7,155.7,189.9z
				 M153.2,172.4c-1.5-0.8-3.1-1.1-4.8-1.2c-1.1,0-2.1,0.1-3.2,0.1c-0.5,0-0.9,0.2-1.2,0.7c0.4,0.6,1.1,0.6,1.6,0.7
				c1.8,0.3,3.5,0.1,5.3-0.1C151.7,172.7,152.5,172.5,153.2,172.4z M155.8,169.2c0-0.5,0.1-0.9,0.1-1.4c0.1-1.6,0.2-3.2,0.3-4.8
				c0.1-1.7,0.1-3.5,0.1-5.2c0-0.3-0.1-0.7-0.1-1c-0.1,0-0.2,0-0.2,0C154.5,161,155.1,165.1,155.8,169.2z"/>
			<path class="st20" d="M173.1,174.5c-0.9,0-1.4-0.6-1.4-1.6c0-0.8,0.5-1.2,1.5-1.2c0.8,0,1.4,0.5,1.4,1.4
				C174.7,174,174.2,174.5,173.1,174.5z"/>
			<path class="st20" d="M155.6,196.2c-0.8,0-1.4-0.6-1.4-1.3c0-0.7,0.8-1.5,1.5-1.5c0.8,0,1.4,0.7,1.4,1.5
				C157.1,195.7,156.5,196.3,155.6,196.2z"/>
			<path class="st20" d="M156.5,151.5c0.6,0,1.3,0.6,1.3,1.2c0,0.6-0.6,1.3-1.1,1.3c-0.7,0-1.4-0.6-1.5-1.3
				C155.2,152.1,155.8,151.5,156.5,151.5z"/>
			<path class="st20" d="M139.8,170.5c0.7,0,1.3,0.6,1.3,1.3c0,0.6-0.6,1.2-1.3,1.2c-0.6,0-1.3-0.7-1.3-1.3
				C138.6,171,139.1,170.5,139.8,170.5z"/>
		</g>
		<g>
			<path class="st20" d="M119.1,311.4c0,1.1,0,2,0,2.9c0,0.9-0.7,1.3-1.5,1.1c-0.5-0.2-0.8-0.5-0.8-1c-0.1-0.6-0.1-1.2-0.2-2.1
				c-0.4,0.4-0.7,0.7-0.9,1c-0.5,0.5-1.1,1.1-1.6,1.6c-0.3,0.2-0.6,0.3-0.9,0.1c-0.3-0.2-0.3-0.6-0.1-0.9c0.1-0.3,0.3-0.5,0.5-0.7
				c0.8-0.9,1.6-1.9,2.4-2.8c0.4-0.5,0.6-1,0.6-1.7c-0.1-2.4-0.1-4.7-0.1-7.1c0-0.4,0-0.7-0.1-1.1c-0.7,0.2-1.4,0.3-2,0.6
				c-0.2,0.1-0.4,0.3-0.4,0.5c-0.1,0.3-0.1,0.6-0.1,0.9c-0.2,1.4-0.3,2.8-0.5,4.2c-0.1,1.2-0.8,2.1-1.9,2.7c-1.8,1-3.6,2.1-5.4,3.1
				c-0.3,0.2-0.7,0.4-1,0.6c-0.8,0.5-1.5,0.2-1.7-0.7c-0.1-0.5-0.1-1,0.1-1.5c0.8-2.6,1.6-5.2,2.4-7.8c0.4-1.4,1.4-2.3,2.9-2.5
				c0.6-0.1,1.3-0.2,1.9-0.4c0.6-0.1,1.2-0.2,1.8-0.3c0.1-0.6,0.3-1.2,0.4-1.9c-0.5,0-1-0.1-1.4-0.1c-1.6-0.1-3.2-0.1-4.8-0.2
				c-0.6,0-0.9,0.1-1.2,0.6c-0.8,1.1-1.7,2.2-2.6,3.2c-0.2,0.3-0.4,0.5-0.7,0.7c-0.3,0.2-0.7,0.2-1,0c-0.3-0.3-0.3-0.6-0.1-1
				c0.2-0.3,0.4-0.6,0.6-0.9c0.7-0.9,1.3-1.8,2.1-2.8c-0.8-0.1-1.4-0.2-2-0.3c-0.4-0.1-0.8-0.2-1.3-0.3c-0.4-0.1-0.8-0.3-0.8-0.7
				c0-0.5,0.5-0.7,0.9-0.8c0.6-0.1,1.2-0.1,1.9-0.1c0.7,0,1.4,0,2,0.1c0-0.1,0.1-0.1,0.1-0.2c-0.7-0.7-1.4-1.4-2.1-2.1
				c-0.5-0.5-1-1-1.4-1.5c-0.2-0.2-0.5-0.5-0.2-0.9c0.3-0.4,0.6-0.3,1-0.1c0,0,0.1,0,0.1,0c1.9,1.4,3.6,2.9,5.2,4.8
				c1.9,0,4,0.1,6.1,0.1c0-0.5,0.1-0.9,0.1-1.3c-1.4-0.7-2.8-1.4-4.3-2.2c-0.6-0.3-1.2-0.7-1.8-1c-1.5-0.8-2.2-2.1-2.4-3.7
				c0-0.4-0.1-0.9-0.1-1.3c0.1-1,0.1-2,0.2-3c0.1-1,0.7-1.3,1.6-0.8c0.7,0.5,1.4,1,2.1,1.5c1.3,0.8,2.6,1.5,4,2.1
				c1.2,0.5,1.7,1.3,1.6,2.6c-0.1,1.1,0.1,2.2,0.1,3.4c0.6,0.1,1.2,0.2,1.9,0.3c0-0.3,0.1-0.6,0.1-0.9c0-2.1,0-4.3,0.1-6.4
				c0-0.5-0.2-0.9-0.5-1.2c-0.7-0.6-1.3-1.2-2-1.8c-0.5-0.5-0.6-0.9-0.3-1.2c0.3-0.3,0.7-0.3,1.2,0.1c0.5,0.4,1.1,0.7,1.8,1.2
				c0.1-0.7,0.1-1.2,0.1-1.7c0-0.4,0.1-0.8,0.2-1.2c0.1-0.6,0.5-0.9,1-0.8c0.5,0.1,0.8,0.4,0.8,0.9c0,0.6,0,1.2,0.1,1.8
				c0,0.4,0,0.8,0,1.3c0.9-0.6,1.6-1.2,2.3-1.7c0.4-0.3,0.7-0.5,1.2-0.7c0.6-0.3,1.3,0,1.4,0.5c0.2,0.6-0.2,1.1-0.8,1.3
				c-0.3,0.1-0.6,0.3-0.8,0.4c-1,0.7-1.9,1.4-2.9,2.1c-0.3,0.2-0.4,0.4-0.4,0.7c0,2.4,0,4.7,0,7.2c0.6-0.1,1.1-0.1,1.6-0.2
				c0.2-1.7,0.5-3.3,0.6-4.9c0.1-1.2,0.6-2.1,1.6-2.8c2.7-1.8,5.5-3.4,8.4-4.7c1.2-0.5,2,0.1,2.1,1.3c0,0.5-0.1,1-0.2,1.5
				c-0.4,1.6-0.8,3.1-1.2,4.7c-0.2,1.1-0.9,1.8-1.9,2.1c-1.8,0.6-3.6,1.3-5.5,2c-0.3,0.1-0.6,0.2-0.8,0.4c-0.7,0.4-1.3,0.9-1.1,1.9
				c0.1,0.6,0,1.2,0.1,1.9c0.9,0,1.8-0.1,2.7-0.1c1.5-0.1,3-0.1,4.5-0.2c0.5,0,0.8-0.2,1.1-0.5c0.5-0.7,1.1-1.3,1.7-1.9
				c0.2-0.2,0.3-0.4,0.5-0.6c0.5-0.4,0.9-0.5,1.2-0.2c0.3,0.3,0.3,0.6-0.1,1.1c-0.5,0.6-0.9,1.2-1.4,1.9c1.1,0.1,2,0.2,3,0.3
				c0.3,0,0.7,0,1,0.1c0.5,0.1,0.8,0.5,0.8,1c0,0.5-0.2,0.9-0.7,1c-0.3,0.1-0.6,0.1-1,0.1c-0.8,0-1.7,0-2.7,0.1
				c0.3,0.3,0.4,0.5,0.6,0.6c0.7,0.7,1.5,1.3,2.2,2c0.3,0.3,0.5,0.6,0.7,0.9c0.2,0.4,0,1-0.4,1.2c-0.4,0.2-0.7,0.2-1.1-0.2
				c-1-0.9-2-1.9-3.1-2.8c-0.3-0.3-0.7-0.5-1-0.8c-0.7-0.8-1.5-0.9-2.4-0.9c-2.1,0.2-4.3,0.2-6.5,0.3c-0.2,0.5-0.3,1-0.5,1.6
				c1.8,0.9,3.5,1.7,5.3,2.6c0.8,0.4,1.7,0.9,2.4,1.5c0.7,0.5,1.1,1.2,0.9,2c-0.2,1.8,0.1,3.6,0.5,5.4c0,0.2,0.1,0.3,0.1,0.5
				c0.1,0.9-0.5,1.4-1.4,1.3c-0.2,0-0.4-0.1-0.6-0.2c-2.3-1.2-4.7-2.3-6.8-3.9c-0.5-0.4-1-0.8-1.4-1.2c-0.8-0.7-1.1-1.6-0.9-2.7
				c0.1-0.8,0.3-1.7,0.4-2.5c0-0.3,0.1-0.6,0.1-1c-0.4-0.1-0.8-0.2-1.4-0.4c0,0.8,0,1.5,0,2.1c0,1.8,0.1,3.6,0.1,5.4
				c0,0.4,0.2,0.6,0.5,0.9c1.2,1.1,2.3,2.2,3.4,3.2c0.1,0.1,0.3,0.3,0.4,0.5c0.2,0.4,0.1,0.9-0.1,1.2c-0.4,0.3-0.7,0.1-1.1-0.2
				c-0.7-0.6-1.4-1.2-2.1-1.8C119.8,312,119.6,311.8,119.1,311.4z M128.1,283.7c-0.2-0.1-0.3-0.1-0.3-0.1c-1.5,0.8-2.9,1.6-4.3,2.5
				c-0.3,0.2-0.6,0.7-0.7,1.1c-0.2,0.8-0.4,1.6-0.5,2.4c0,0,0.1,0.1,0.1,0.1C124.3,287.7,126.2,285.8,128.1,283.7z M106.4,307.6
				c0,0,0.1,0,0.1,0.1c1.5-1.8,3-3.7,4.5-5.5c-0.7,0-1.2,0.1-1.8,0.2c-0.7,0.1-1.1,0.5-1.4,1.2C107.4,304.9,106.9,306.2,106.4,307.6
				z M125.1,303.5c0.7,1.4,2.8,4,3.4,4.4c0-0.8,0-1.5,0-2.2c0-0.2-0.1-0.5-0.3-0.6C127.3,304.5,126.3,303.9,125.1,303.5z
				 M109.9,290.8c0.1-0.1,0.1-0.1,0.2-0.2c-0.5-0.7-1.1-1.5-1.6-2.2c-0.5-0.7-0.9-1.5-1.6-2.1c-0.1,0.7-0.2,1.3-0.1,1.9
				c0,0.3,0.2,0.7,0.4,0.9C108.1,289.7,109,290.3,109.9,290.8z M122,303.6c-0.1,0-0.1,0.1-0.2,0.1c0,0.3,0,0.5-0.1,0.8
				c-0.1,0.8,0.1,1.5,0.8,2c0.7,0.5,1.3,0.9,2,1.4c0.2,0.2,0.5,0.3,0.8,0.4c0,0,0-0.1,0.1-0.1C124.3,306.7,123.1,305.1,122,303.6z
				 M121,293.8c-0.8,0.1-1.4,0.2-2.2,0.3c0,0.6,0,1.1,0.1,1.7c0.8,0,1.5-0.1,2.2-0.1C121.1,295,121,294.4,121,293.8z M111.9,305
				c-1.1,0.9-2.8,3.2-3,3.9C111.5,307.6,111.6,307.5,111.9,305z M116.5,295.7c0-0.7,0-1.2,0-1.8c-0.6-0.1-1.1-0.2-1.7-0.2
				c-0.1,0.8-0.1,1.4-0.2,2.1C115.2,295.8,115.8,295.8,116.5,295.7z M112.5,290.1c0.1,0,0.1,0,0.2-0.1c0-0.6,0-1.1-0.1-1.7
				c0-0.2-0.1-0.5-0.3-0.6c-0.7-0.4-1.4-0.8-2.4-1.1C110.9,288,111.7,289.1,112.5,290.1z M127.4,287.9c0,0.1,0.1,0.1,0.1,0.2
				c0.6-0.2,1.2-0.3,1.7-0.6c0.2-0.1,0.4-0.2,0.5-0.4c0.2-0.6,0.3-1.2,0.4-1.7c-0.1,0-0.1-0.1-0.2-0.1
				C129.1,286.2,128.3,287,127.4,287.9z M114.1,299.6c0.6-0.1,1.1-0.1,1.6-0.3c0.6-0.1,0.7-0.3,0.6-1.1c-0.6,0-1.3,0-2-0.1
				C114.3,298.6,114.2,299,114.1,299.6z M119,298.1c-0.2,1.3-0.2,1.3,1.2,1.5c0.1-0.4,0.3-0.9,0.5-1.5
				C120.1,298.1,119.5,298.1,119,298.1z"/>
			<path class="st20" d="M119,317.3c0.3,0.1,0.8,0.3,1.2,0.6c1.1,0.9,2.1,1.8,3.2,2.8c0.5,0.4,0.5,0.8,0.2,1.1
				c-0.3,0.3-0.7,0.4-1.2,0c-1-0.7-2-1.5-3-2.2c-0.9-0.7-1-0.7-1.7,0.1c-0.4,0.4-0.7,0.8-1.1,1.2c-0.2,0.2-0.3,0.3-0.5,0.5
				c-0.5,0.4-0.8,0.4-1.1,0.1c-0.4-0.4-0.2-0.7,0.1-1.1c0.7-0.8,1.3-1.6,2-2.4C117.4,317.6,118.1,317.3,119,317.3z"/>
			<path class="st20" d="M138.7,295.5c0.2-0.3,0.3-0.6,0.4-0.8c0.6-0.8,1.2-1.5,1.8-2.2c0.1-0.1,0.2-0.2,0.4-0.3
				c0.3-0.2,0.7-0.3,1,0c0.3,0.3,0.3,0.6,0.1,0.9c-0.4,0.6-0.8,1.1-1.2,1.7c-0.7,0.9-0.7,0.7-0.1,1.8c0.4,0.7,0.8,1.4,1.3,2.1
				c0.1,0.2,0.2,0.3,0.3,0.5c0.1,0.4,0.1,0.7-0.3,1c-0.4,0.2-0.7,0.1-1-0.1c-0.1-0.1-0.2-0.1-0.2-0.2c-0.7-1.1-1.5-2.1-2.1-3.2
				C138.9,296.3,138.8,295.9,138.7,295.5z"/>
			<path class="st20" d="M116.2,277.8c-0.1,0-0.3-0.1-0.4-0.1c-1-0.6-2-1.3-3-1.9c-0.3-0.2-0.4-0.5-0.2-0.9c0.2-0.4,0.6-0.5,0.9-0.4
				c0.5,0.2,1.1,0.5,1.6,0.8c1.3,0.8,1.3,0.8,2.4-0.2c0.4-0.3,0.9-0.7,1.3-1c0.2-0.2,0.5-0.4,0.8-0.4c0.3,0,0.6,0.1,0.8,0.3
				c0.1,0.2,0.2,0.6,0.1,0.8c-1.1,1.3-2.2,2.4-3.9,2.9C116.5,277.8,116.4,277.8,116.2,277.8z"/>
			<path class="st20" d="M99.1,295.6c-0.1,0.3-0.2,0.7-0.3,1c-0.4,0.9-0.8,1.8-1.3,2.7c-0.2,0.5-0.7,0.6-1,0.5
				c-0.4-0.2-0.7-0.6-0.5-1.1c0.3-0.8,0.5-1.6,1-2.3c0.5-0.8,0.4-1.5-0.1-2.2c-0.3-0.4-0.4-0.8-0.5-1.2c0-0.2,0.1-0.6,0.3-0.7
				c0.2-0.2,0.6-0.1,0.8,0.1c0.6,0.8,1.1,1.7,1.7,2.5C99.1,295,99,295.3,99.1,295.6z"/>
			<path class="st20" d="M118.8,323.6c-0.6,0-1.1-0.5-1.1-1.1c0-0.5,0.6-1,1.1-0.9c0.6,0,1,0.6,0.9,1.3
				C119.7,323.4,119.4,323.6,118.8,323.6z"/>
			<path class="st20" d="M143.6,296.4c-0.4-0.1-0.8-0.6-0.7-1c0.1-0.5,0.6-0.9,1.1-0.9c0.5,0.1,0.8,0.5,0.8,1
				C144.7,295.9,144,296.5,143.6,296.4z"/>
			<path class="st20" d="M117.4,272.6c-0.1,0.5-0.3,0.8-0.8,0.8c-0.6,0-1-0.6-1-1.2c0.1-0.5,0.5-0.8,1-0.7
				C117.1,271.4,117.4,272,117.4,272.6z"/>
			<path class="st20" d="M94.8,294.8c0.4,0.1,0.8,0.4,0.7,0.8c0,0.4-0.6,0.9-1.1,0.8c-0.4,0-0.6-0.4-0.6-0.9
				C94,295.1,94.4,294.8,94.8,294.8z"/>
		</g>
		<g>
			<path class="st20" d="M319.2,274.4c-0.1-1.1-0.1-2-0.2-3c0-0.2-0.1-0.3-0.3-0.5c-0.4-0.2-0.7-0.5-1.1-0.8
				c-0.1-0.1-0.2-0.2-0.3-0.3c-0.2-0.3-0.2-0.6,0-0.9c0.2-0.2,0.5-0.3,0.9-0.1c0.3,0.2,0.5,0.3,0.8,0.5c0.5,0.3,0.6,0.3,1-0.1
				c0.4-0.4,0.8-0.8,1.2-1.3c0.2-0.2,0.4-0.3,0.7-0.2c0.3,0.1,0.4,0.4,0.3,0.7c-0.1,0.2-0.1,0.4-0.3,0.5c-0.2,0.3-0.4,0.5-0.6,0.7
				c-0.3,0.3-0.8,0.6-0.9,1c-0.1,0.4,0,0.9,0.1,1.4c0.1,0.8,0.1,1.5,0.2,2.4c0.8-0.5,1.6-0.8,2.3-1.3c0.3-0.2,0.5-0.3,0.7-0.1
				c0.3,0.2,0.4,0.5,0.2,0.8c-0.2,0.3-0.5,0.6-0.8,0.8c-0.6,0.4-1.3,0.7-1.9,1.1c-0.1,0.1-0.2,0.1-0.4,0.2c0,0.8,0.1,1.6,0.1,2.3
				c0,0.7,0.1,1.5,0.1,2.2c0,0.3,0,0.6-0.1,0.9c-0.1,0.3-0.4,0.5-0.7,0.5c-0.3,0-0.5-0.3-0.5-0.7c-0.1-1.6-0.2-3.2-0.3-4.8
				c0-0.4-0.1-0.7-0.5-1c-0.5-0.3-0.9-0.7-1.3-1.1c-0.3-0.3-0.4-0.6-0.2-0.8c0.2-0.2,0.5-0.3,0.8-0.2
				C318.4,274,318.7,274.2,319.2,274.4z"/>
			<path class="st20" d="M319.6,301.1c0-0.9-0.1-1.7-0.1-2.5c0-0.4,0-0.9,0.1-1.3c0.1-0.4,0.4-0.6,0.7-0.6c0.3,0,0.5,0.3,0.5,0.7
				c0.1,1.1,0.2,2.2,0.2,3.3c0,0.5,0.2,0.8,0.7,1.1c0.8,0.4,1.5,1,2.3,1.5c0.4,0.3,0.5,0.7,0.3,1c-0.2,0.3-0.6,0.4-1,0.2
				c-0.1-0.1-0.2-0.1-0.3-0.2c-0.4-0.3-0.8-0.5-1.3-0.8c-0.1-0.1-0.2-0.1-0.4-0.2c0,0.4,0,0.7,0,1c0,0.8,0,1.6,0,2.4
				c0,0.9,0.6,1.4,1.3,1.9c0.2,0.1,0.4,0.3,0.5,0.6c0.2,0.3,0.1,0.7-0.2,0.9c-0.3,0.2-0.5,0.2-0.8,0c-0.2-0.1-0.4-0.3-0.6-0.5
				c-0.4-0.3-0.7-0.6-1.1-1c-0.4,0.3-0.7,0.6-1.1,0.8c-0.5,0.3-0.8,0.4-1,0.1c-0.2-0.2-0.2-0.5,0.2-1c0.4-0.4,0.8-0.8,1.1-1.2
				c0.1-0.1,0.2-0.3,0.2-0.5c0-1.3-0.1-2.7-0.2-4.1c-0.3,0.2-0.5,0.3-0.8,0.4c-0.3,0.1-0.6,0.3-1,0.4c-0.4,0.1-0.7,0-0.8-0.3
				c-0.1-0.3,0-0.5,0.4-0.8C318.2,302,318.9,301.6,319.6,301.1z"/>
			<path class="st20" d="M309,290.5c-0.5,0.9-0.9,1.7-1.4,2.4c-0.2,0.3-0.4,0.4-0.7,0.3c-0.3-0.1-0.4-0.4-0.3-0.8
				c0.1-0.3,0.2-0.7,0.4-1c0.1-0.3,0.2-0.5,0.4-0.8c-0.9,0.1-1.8,0.1-2.7,0.2c-0.1,0.2-0.3,0.5-0.4,0.8c-0.1,0.2-0.2,0.4-0.4,0.6
				c-0.2,0.2-0.4,0.4-0.7,0.2c-0.3-0.1-0.3-0.4-0.3-0.7c0.1-0.4,0.3-0.9,0.5-1.3c0.2-0.4,0.1-0.7-0.1-1c-0.2-0.3-0.4-0.7-0.7-1
				c-0.1-0.2-0.2-0.3-0.2-0.5c0-0.2,0.1-0.5,0.3-0.6c0.1-0.1,0.4,0,0.6,0c0.1,0,0.1,0.1,0.2,0.2c0.5,0.6,1,1.3,1.6,2
				c0.5-0.1,1-0.2,1.7-0.3c-0.2-0.4-0.4-0.8-0.6-1.2c-0.1-0.2-0.2-0.4-0.3-0.6c-0.1-0.4,0-0.7,0.3-0.8c0.3-0.2,0.6-0.1,0.9,0.2
				c0.4,0.6,0.8,1.2,1.1,1.8c0.2,0.4,0.5,0.6,1,0.5c1.3-0.1,2.6-0.2,3.9-0.3c0.1,0,0.2,0,0.3,0c0.3,0,0.5,0.1,0.6,0.4
				c0.1,0.3,0,0.6-0.2,0.7c-0.2,0.1-0.5,0.3-0.8,0.3c-0.9,0.1-1.7,0.2-2.6,0.3C309.8,290.5,309.4,290.5,309,290.5z"/>
			<path class="st20" d="M332.5,288.9c0.4,0.6,0.7,1,1,1.4c0.1,0.1,0.2,0.2,0.3,0.4c0.1,0.3,0.1,0.5-0.2,0.7c-0.2,0.2-0.5,0.2-0.7,0
				c-0.2-0.1-0.3-0.3-0.4-0.4c-0.4-0.6-0.9-1.1-1.3-1.8c-1,0.1-2,0.2-2.9,0.3c-0.2,0-0.5,0.1-0.7,0c-0.2,0-0.4-0.2-0.5-0.4
				c-0.1-0.2,0-0.5,0.2-0.6c0.3-0.1,0.6-0.3,0.9-0.3c0.9-0.2,1.7-0.3,2.6-0.4c0.4,0,0.6-0.1,0.8-0.4c0.4-0.6,0.9-1.1,1.4-1.7
				c0.2-0.2,0.3-0.4,0.6-0.5c0.2-0.1,0.5-0.1,0.6,0c0.1,0.1,0.1,0.4,0.1,0.6c-0.1,0.2-0.2,0.4-0.4,0.6c-0.2,0.3-0.5,0.7-0.8,1.1
				c0.6,0,1.2,0,1.7-0.1c0.1,0,0.3-0.2,0.4-0.3c0.6-0.6,1.2-1.3,1.8-1.9c0.4-0.4,0.7-0.4,0.9-0.2c0.2,0.2,0.2,0.6-0.2,1
				c-0.6,0.6-1.1,1.2-1.7,1.8c-0.1,0.1-0.2,0.2-0.3,0.4c0.5,0.5,0.9,0.9,1.4,1.4c0.1,0.1,0.2,0.2,0.3,0.3c0.1,0.1,0.1,0.3,0,0.4
				c-0.1,0.1-0.2,0.2-0.4,0.2c-0.1,0-0.3,0-0.4-0.1c-0.6-0.4-1.3-0.7-1.9-1.3c-0.1-0.1-0.3-0.2-0.4-0.2
				C333.9,288.7,333.3,288.8,332.5,288.9z"/>
			<path class="st20" d="M332.2,276.1c0.8,0.2,1.5,0.5,2.2,0.7c0.2,0.1,0.4,0.1,0.6,0.2c0.3,0.1,0.4,0.4,0.4,0.6
				c0,0.3-0.2,0.5-0.6,0.6c-0.2,0-0.4,0-0.7,0c-0.7-0.1-1.4-0.3-2.2-0.5c-0.1,0.1-0.2,0.2-0.3,0.4c-0.5,0.7-1.1,1.5-1.6,2.2
				c-0.4,0.5-0.8,0.7-1.1,0.4c-0.3-0.2-0.3-0.7,0-1.2c0.5-0.8,1.1-1.5,1.7-2.3c0.2-0.2,0.2-0.5,0.2-0.8c0-0.7,0.1-1.5,0.1-2.2
				c0-0.3,0.2-0.5,0.5-0.5c0.3,0,0.5,0.1,0.6,0.4c0.1,0.2,0.1,0.5,0.1,0.8C332.3,275.2,332.2,275.6,332.2,276.1z"/>
			<path class="st20" d="M305.5,300.2c0.1,0,0.4-0.1,0.6-0.1c0.6,0.1,1.1,0.1,1.7,0.3c0.3,0.1,0.5,0,0.8-0.3
				c0.5-0.6,1.1-1.1,1.6-1.6c0.2-0.2,0.4-0.3,0.6-0.4c0.2,0,0.5,0,0.6,0.1c0.1,0.1,0.2,0.4,0.1,0.6c-0.1,0.3-0.4,0.5-0.6,0.8
				c-0.5,0.6-1,1.1-1.5,1.7c-0.1,0.1-0.2,0.4-0.1,0.5c0.1,0.6,0.2,1.1,0.3,1.7c0,0.2,0.1,0.4,0.1,0.6c0,0.4-0.2,0.6-0.5,0.7
				c-0.3,0.1-0.5-0.1-0.7-0.4c-0.1-0.3-0.2-0.6-0.3-0.8c-0.1-0.4-0.2-0.8-0.3-1.2c-0.1-0.4-0.3-0.6-0.7-0.7c-0.5-0.1-1-0.3-1.5-0.5
				C305.2,301,305.2,300.6,305.5,300.2z"/>
			<path class="st20" d="M306.3,278c0.2-0.7,0.3-1.3,0.5-1.9c0.1-0.2,0.1-0.4,0.2-0.6c0.2-0.4,0.6-0.7,0.9-0.5
				c0.4,0.1,0.5,0.4,0.5,0.9c-0.1,0.4-0.2,0.7-0.3,1c-0.1,0.3-0.2,0.6-0.3,1c1,0.6,1.8,1.3,2.6,2.1c0.4,0.5,0.5,0.8,0.2,1.1
				c-0.3,0.3-0.6,0.3-1.1-0.2c-0.5-0.5-1.1-1-1.6-1.4c-0.2-0.2-0.4-0.3-0.6-0.5c-0.7,0.5-1.4,0.4-2.1,0.3c-0.4-0.1-0.6-0.3-0.7-0.5
				c0-0.3,0.2-0.6,0.6-0.6C305.6,278.1,305.9,278.1,306.3,278z"/>
			<path class="st20" d="M330.1,300.7c-0.3-0.3-0.8-0.6-1.2-1c-0.3-0.3-0.5-0.5-0.8-0.9c-0.3-0.4-0.3-0.8,0-1
				c0.3-0.2,0.6-0.2,0.9,0.2c0.4,0.4,0.8,0.7,1.1,1.2c0.6,0.8,1.2,1.1,2.2,0.7c0.4-0.1,0.8-0.2,1.2-0.3c0.2,0,0.3-0.1,0.5,0
				c0.3,0,0.5,0.2,0.6,0.5c0.1,0.3-0.1,0.5-0.3,0.6c-0.3,0.1-0.5,0.2-0.8,0.3c-0.7,0.2-1.4,0.3-2.1,0.5c0,0.4,0,0.8,0,1.3
				c0,0.3-0.1,0.7-0.1,1c-0.1,0.2-0.2,0.4-0.5,0.3c-0.3,0-0.3-0.2-0.3-0.4C330.3,302.7,330.2,301.8,330.1,300.7z"/>
			<path class="st20" d="M327.3,297.2c-0.3,0.2-0.6,0.4-0.8,0.4c-0.7,0.2-1.5,0.4-2.2,0.6c-0.1,0-0.2,0-0.3,0c-0.3,0-0.5,0-0.6-0.3
				c-0.1-0.3,0-0.5,0.2-0.7c0.2-0.2,0.4-0.3,0.6-0.3c0.5-0.2,1-0.4,1.5-0.5c0.3-0.1,0.5-0.3,0.6-0.6c0.2-0.7,0.4-1.4,0.6-2.1
				c0.1-0.2,0.1-0.5,0.3-0.7c0.2-0.3,0.5-0.4,0.8-0.3c0.3,0.1,0.5,0.3,0.5,0.7c0,0.2,0,0.4-0.1,0.6c-0.2,0.8-0.3,1.5-0.6,2.3
				C327.7,296.5,327.5,296.8,327.3,297.2z"/>
			<path class="st20" d="M313,282.6c0,0.6,0,1.2,0,1.7c0,0.3,0,0.6,0,0.9c0,0.3-0.2,0.5-0.6,0.6c-0.3,0-0.5-0.2-0.6-0.5
				c-0.3-1-0.4-2-0.3-3c0-0.5,0.4-0.9,0.9-1.1c1.1-0.3,2.3-0.5,3.4-0.5c0.1,0,0.2,0,0.3,0.1c0.4,0.1,0.6,0.4,0.5,0.8
				c-0.1,0.4-0.3,0.5-0.8,0.5c-0.2,0-0.3,0-0.5,0C314.6,282.3,313.8,282.5,313,282.6z"/>
			<path class="st20" d="M324.6,294.3c0.1-0.7,0.2-1.3,0.3-2c0.1-0.4,0.1-0.8,0.1-1.3c0.1-0.4,0.4-0.7,0.8-0.7
				c0.3,0,0.6,0.3,0.6,0.7c0,0.1,0,0.2,0,0.3c-0.1,0.8-0.1,1.5-0.2,2.3c-0.1,0.4-0.2,0.8-0.3,1.2c-0.2,0.5-0.5,0.7-1,0.8
				c-0.7,0.1-1.3,0.1-2,0.1c-0.3,0-0.5-0.1-0.6-0.4c0-0.3,0.1-0.6,0.4-0.7c0.2-0.1,0.5-0.1,0.7-0.2
				C323.8,294.5,324.2,294.4,324.6,294.3z"/>
			<path class="st20" d="M316.3,294.2c0.6,0,1,0.1,1.5,0.1c0.6,0.1,0.8,0.3,0.8,0.6c0,0.4-0.3,0.6-0.9,0.6c-0.5,0-1,0-1.5,0
				c-0.7,0-1.1-0.3-1.2-0.9c-0.3-1.2-0.2-2.4-0.1-3.5c0-0.4,0.4-0.6,0.7-0.6c0.3,0,0.5,0.2,0.6,0.6c0.1,0.8,0.1,1.6,0.2,2.3
				C316.2,293.7,316.2,293.9,316.3,294.2z"/>
			<path class="st20" d="M313.5,295.7c0.9,0.3,1.8,0.6,2.6,0.9c0.2,0.1,0.5,0.2,0.7,0.3c0.3,0.2,0.3,0.4,0.3,0.7
				c-0.1,0.3-0.4,0.5-0.7,0.5c-0.1,0-0.1,0-0.2,0c-1-0.3-2-0.6-3-0.9c-0.8-0.3-1.1-0.7-0.9-1.6c0.1-0.5,0.2-1,0.3-1.5
				c0-0.2,0-0.3,0.1-0.4c0.1-0.1,0.4-0.3,0.5-0.3c0.2,0,0.4,0.2,0.4,0.4c0,0.3,0,0.5,0,0.8C313.6,294.9,313.5,295.3,313.5,295.7z"/>
			<path class="st20" d="M328.3,281.5c0.3,0.6,0.7,1.3,1,2c0.2,0.3,0,0.7-0.3,0.8c-0.3,0.1-0.6,0.1-0.8-0.2
				c-0.3-0.3-0.6-0.7-0.8-1.1c-0.2-0.4-0.6-0.6-1-0.6c-0.4,0-0.9-0.1-1.3-0.2c-0.3,0-0.6-0.2-0.8-0.3c-0.3-0.1-0.4-0.3-0.3-0.6
				c0-0.3,0.2-0.5,0.5-0.5c1.1,0.1,2.3,0.2,3.4,0.3C328,281.2,328.1,281.4,328.3,281.5z"/>
			<path class="st20" d="M315.5,284.4c-0.2,0.6-0.1,1.1-0.1,1.7c0,0.3,0.1,0.6,0.1,0.9c0,0.3-0.2,0.5-0.5,0.6
				c-0.3,0-0.4-0.2-0.5-0.4c-0.3-0.8-0.4-1.7-0.4-2.6c0-1,0.5-1.5,1.5-1.6c0.7-0.1,1.4,0,2.1,0c0.4,0,0.6,0.2,0.6,0.5
				c0,0.3-0.2,0.5-0.6,0.6c-0.5,0.1-1,0.1-1.5,0.2C316,284.4,315.8,284.4,315.5,284.4z"/>
			<path class="st20" d="M324.8,284.2c-0.5,0-1.1,0-1.6,0c-0.5,0-0.7-0.1-0.8-0.5c0-0.3,0.2-0.7,0.6-0.7c0.7-0.1,1.3-0.2,2-0.2
				c0.6,0,1,0.3,1.1,0.8c0.2,0.8,0.3,1.7,0.4,2.5c0,0.3-0.1,0.6-0.5,0.6c-0.3,0.1-0.5-0.1-0.6-0.4c-0.1-0.3-0.2-0.7-0.3-1
				C325,284.9,324.9,284.6,324.8,284.2z"/>
			<path class="st20" d="M322.4,291.1c-0.3,0.3-0.8,0.3-1.1,0c-0.2-0.2-0.2-0.7,0.1-0.9c0.3-0.3,0.8-0.2,1.1,0
				C322.7,290.5,322.7,290.8,322.4,291.1z"/>
			<path class="st20" d="M323.9,292.9c-0.3,0.3-0.7,0.3-0.9,0c-0.2-0.3-0.2-0.7,0.1-1c0.3-0.3,0.6-0.3,0.8,0
				C324.2,292.2,324.2,292.7,323.9,292.9z"/>
			<path class="st20" d="M316.9,286c0.2-0.2,0.7-0.3,0.9,0c0.2,0.2,0.2,0.6,0,0.8c-0.3,0.3-0.7,0.3-0.9,0
				C316.6,286.7,316.6,286.3,316.9,286z"/>
			<path class="st20" d="M319.3,288.4c-0.3,0.2-0.6,0.2-0.9,0c-0.2-0.3-0.2-0.6,0.1-0.9c0.3-0.2,0.6-0.2,0.8,0.1
				C319.6,287.8,319.6,288.2,319.3,288.4z"/>
			<path class="st20" d="M320.6,288.9c0.2,0.2,0.2,0.6-0.1,0.8c-0.2,0.2-0.6,0.2-0.8,0c-0.2-0.2-0.2-0.6,0.1-0.8
				C320.1,288.6,320.5,288.6,320.6,288.9z"/>
			<path class="st20" d="M323.7,287c-0.2,0.2-0.6,0.2-0.8,0c-0.2-0.2-0.2-0.6,0-0.8c0.2-0.2,0.6-0.2,0.8,0
				C324,286.4,324,286.8,323.7,287z"/>
			<path class="st20" d="M318.2,291.9c0.2,0.2,0.1,0.6-0.1,0.8c-0.2,0.2-0.6,0.2-0.8,0c-0.2-0.2-0.1-0.5,0.1-0.7
				C317.6,291.8,318,291.7,318.2,291.9z"/>
			<path class="st20" d="M319.6,290.2c0.2,0.2,0.2,0.5,0,0.8c-0.2,0.2-0.5,0.2-0.7,0.1c-0.2-0.2-0.2-0.5,0-0.8
				C319.1,290.1,319.4,290,319.6,290.2z"/>
			<path class="st20" d="M321.6,287.5c0.2-0.2,0.5-0.2,0.7,0c0.2,0.2,0.1,0.5-0.1,0.7c-0.2,0.2-0.6,0.2-0.7,0
				C321.4,288,321.4,287.6,321.6,287.5z"/>
		</g>
		<g>
			<path class="st20" d="M181.9,125.8c0.5,0.7,0.8,1.3,1.2,1.9c0.2,0.3,0.4,0.4,0.8,0.5c1.7,0.2,3.4,0.5,5,0.7
				c0.2,0,0.5,0.1,0.7,0.2c0.4,0.1,0.6,0.4,0.6,0.9c0,0.4-0.3,0.8-0.7,0.9c-0.3,0.1-0.6,0.1-0.9,0.1c-1.1-0.1-2.1-0.2-3.3-0.2
				c0,0.3,0.3,0.5,0.4,0.7c0.3,0.5,0.6,0.9,0.8,1.4c0.3,0.7,0.1,1.3-0.5,1.7c-0.6,0.4-1.2,0.3-1.8-0.2c-0.4-0.4-0.8-0.8-1.3-1.3
				c0,0.6,0,1-0.1,1.4c-0.1,0.5-0.1,1-0.2,1.4c-0.1,0.5-0.6,0.7-1,0.7c-0.4-0.1-0.7-0.4-0.7-1c0-1.8,0-3.6-0.1-5.3
				c0-0.2,0-0.3-0.1-0.5c-0.7-1-1.5-2-2.3-3.1c-0.1,0.3-0.2,0.5-0.2,0.6c-0.2,1.3-0.5,2.7-0.7,4c-0.1,0.3-0.2,0.6-0.3,0.9
				c-0.2,0.3-0.5,0.5-0.9,0.4c-0.4-0.1-0.6-0.3-0.6-0.7c0-0.3-0.1-0.7,0-1c0.3-2.1,0.5-4.1,0.8-6.2c0.1-0.3,0-0.6-0.2-0.8
				c-0.6-0.7-1.2-1.5-1.7-2.1c-1.1,0.1-2.2,0.3-3.4,0.4c0,0.1-0.1,0.2-0.2,0.4c-0.4,1.5-0.8,2.9-1.1,4.4c-0.1,0.4,0,0.6,0.3,0.9
				c1.1,1,2.1,2,3.1,3c0.2,0.2,0.3,0.3,0.4,0.5c0.2,0.4,0.2,0.9-0.1,1.2c-0.3,0.3-0.8,0.4-1.3,0.2c-0.2-0.1-0.3-0.2-0.5-0.3
				c-0.7-0.7-1.5-1.3-2.2-2c-0.1-0.1-0.2-0.2-0.4-0.4c-0.1,0.2-0.2,0.3-0.2,0.4c-0.2,0.8-0.4,1.6-0.6,2.4c-0.1,0.3,0,0.6,0.2,0.9
				c1,1,2,2,3,3.1c0.4,0.4,0.5,0.9,0.2,1.3c-0.3,0.4-0.9,0.5-1.4,0.2c-0.6-0.4-1.1-0.9-1.7-1.4c-0.3-0.3-0.7-0.5-1.1-0.9
				c-0.2,0.7-0.4,1.2-0.5,1.8c-0.1,0.6-0.5,1-1.1,1.2c-0.8,0.3-1.4-0.1-1.5-0.9c0-0.4,0-0.8,0.1-1.1c0-0.4,0.1-0.8,0.2-1.2
				c0.1-0.4,0.1-0.7,0.3-1.3c-0.4,0.3-0.6,0.4-0.9,0.6c-0.6,0.4-1.1,0.8-1.8,1.2c-0.4,0.2-0.8,0.3-1.2,0.4c-0.3,0.1-0.7-0.1-0.8-0.4
				c-0.2-0.3-0.1-0.6,0.2-0.9c0.1-0.1,0.2-0.2,0.3-0.3c0.9-0.7,1.8-1.4,2.8-2.1c0.6-0.5,1.2-0.9,2.1-0.9c0.2-0.9,0.5-1.8,0.7-2.6
				c0,0-0.1-0.1-0.1-0.1c-0.8,0.4-1.6,0.9-2.3,1.3c-0.4,0.2-0.8,0.4-1.2,0.6c-0.6,0.2-1.1,0-1.3-0.4c-0.2-0.4,0-1,0.5-1.3
				c1.5-0.9,3.1-1.9,4.7-2.7c0.3-0.2,0.5-0.4,0.6-0.8c0.3-1.7,0.6-3.4,1-5.2c0.1-0.5-0.4-1.2-0.9-1.2c-0.1,0-0.2,0-0.2,0
				c-2.3-0.2-4.6-0.3-6.9-0.5c-0.1,0-0.2,0-0.2,0c-0.9,1.4-1.7,2.8-2.6,4.1c-0.2,0.2-0.3,0.5-0.6,0.7c-0.4,0.3-0.9,0.4-1.2,0.1
				c-0.3-0.3-0.4-0.6-0.1-1.1c0.5-1.1,1.1-2.2,1.6-3.2c0.1-0.2,0.2-0.5,0.4-0.8c-0.6-0.1-1-0.2-1.5-0.2c-0.4-0.1-0.8-0.1-1.1-0.2
				c-0.6-0.2-0.9,0.1-1.2,0.5c-0.6,0.8-1.3,1.5-2,2.2c-0.6,0.6-1.1,0.6-1.4,0.2c-0.4-0.3-0.3-0.7,0.1-1.4c0.4-0.6,0.8-1.2,1.2-1.8
				c-0.7,0-1.3,0-1.8-0.1c-0.4,0-0.9-0.1-1.3-0.3c-0.5-0.2-0.7-0.6-0.7-1.1c0.1-0.5,0.4-0.8,0.9-0.9c0.7-0.1,1.4-0.1,2.1-0.2
				c0.3,0,0.5,0,0.9-0.1c-0.5-0.7-1-1.2-1.5-1.8c-0.2-0.3-0.5-0.6-0.6-0.9c-0.3-0.5-0.1-1,0.3-1.3c0.4-0.3,0.8-0.3,1.2,0.2
				c0.5,0.5,1,1,1.5,1.6c0.7,0.8,1.4,1.5,2,2.3c0.1,0.1,0.3,0.2,0.4,0.2c0.6,0,1.3,0.1,2.1,0.1c-0.2-0.3-0.3-0.6-0.5-0.8
				c-0.5-0.7-0.9-1.5-1.4-2.2c-0.1-0.2-0.3-0.5-0.3-0.8c-0.1-0.4,0.2-0.8,0.5-1c0.4-0.2,0.8-0.2,1.1,0.1c0.3,0.2,0.5,0.5,0.7,0.8
				c0.8,1.2,1.6,2.4,2.4,3.5c0.2,0.3,0.5,0.5,0.9,0.5c2,0,4,0,5.9,0c0.4-1.2,0.8-2.4,1.2-3.7c-1-1.2-2-2.5-3-3.9
				c-0.2-0.3-0.5-0.3-0.8-0.3c-1.3,0-2.6-0.1-3.9-0.2c-0.4,0-0.9-0.1-1.3-0.2c-0.4-0.1-0.6-0.3-0.6-0.7c0-0.4,0.2-0.7,0.5-0.8
				c0.3-0.1,0.7-0.2,1.1-0.2c0.9,0,1.9,0,2.9-0.1c0-0.4-0.3-0.6-0.4-0.8c-0.4-0.5-0.7-1.1-1.1-1.4c-0.5-0.3-1.1-0.3-1.7-0.4
				c-0.6-0.1-1.2-0.2-1.8-0.4c-0.3-0.1-0.6-0.1-0.9-0.2c-0.5-0.2-0.7-0.5-0.7-0.9c0-0.4,0.3-0.8,0.7-0.9c0.3-0.1,0.6-0.1,1,0
				c0.4,0,0.8,0.1,1.5,0.2c-0.3-0.4-0.4-0.6-0.6-0.8c-0.4-0.6-0.4-1-0.1-1.4c0.4-0.4,1.1-0.6,1.6-0.3c0.3,0.2,0.6,0.5,0.9,0.8
				c0.1,0.1,0.2,0.1,0.3,0.3c0.1-0.3,0.1-0.5,0.2-0.7c0.1-0.7,0.2-1.4,0.4-2.1c0.1-0.3,0.3-0.7,0.5-0.9c0.4-0.4,1-0.2,1.2,0.3
				c0.1,0.3,0.1,0.6,0.1,0.9c-0.1,1.4,0,2.8-0.4,4.2c0,0.2,0,0.4,0.1,0.5c0.6,0.7,1.2,1.4,1.8,2.2c0.1-0.3,0.2-0.6,0.2-0.8
				c0.2-1,0.4-2,0.6-2.9c0.1-0.3,0.2-0.7,0.4-0.9c0.2-0.3,0.6-0.4,0.9-0.3c0.3,0.1,0.5,0.4,0.6,0.7c0,0.2,0,0.5,0,0.7
				c-0.2,1.7-0.5,3.4-0.8,5c-0.1,0.4,0,0.8,0.3,1.1c1,1.2,2,2.4,3.1,3.6c1.4-0.5,2.8-0.6,4.3-0.2c0.6-2.3,1.1-4.6,1.6-6.8
				c-1-1.3-2-2.5-3-3.8c-0.3-0.3-0.5-0.7-0.6-1.1c-0.2-0.4-0.1-0.8,0.2-1c0.3-0.3,0.7-0.3,1.1,0c0.3,0.2,0.7,0.5,1,0.9
				c0.7,0.8,1.4,1.6,2.1,2.5c0.1-0.5,0.3-0.8,0.4-1.2c0.1-0.4,0.2-0.7,0.3-1c-0.7-0.9-1.4-1.8-2.1-2.7c-0.1-0.1-0.2-0.3-0.3-0.5
				c-0.3-0.5-0.2-0.9,0.1-1.3c0.4-0.3,0.8-0.4,1.3-0.1c0.2,0.1,0.4,0.3,0.6,0.5c0.4,0.4,0.8,0.9,1.2,1.4c0.1-0.4,0.2-0.6,0.3-0.9
				c0.2-0.5,0.4-1.1,0.6-1.6c0.1-0.3,0.4-0.6,0.6-0.7c0.6-0.4,1.4,0.1,1.4,0.9c0,0.5-0.2,1-0.3,1.5c-0.1,0.3-0.1,0.6-0.2,1
				c0.9-0.3,1.8-0.5,2.7-0.8c0.1-0.1,0.3-0.2,0.4-0.2c0.4-0.1,0.7,0.1,0.9,0.4c0.2,0.3,0.2,0.8-0.1,1.1c-0.2,0.2-0.5,0.4-0.8,0.5
				c-1.2,0.5-2.3,1-3.6,1.5c-0.2,1-0.4,2.1-0.6,3.3c0.3-0.1,0.6-0.1,0.8-0.1c1.3-0.3,2.7-0.5,4-0.8c0.2,0,0.4-0.1,0.6-0.1
				c0.5,0,0.9,0.3,1,0.7c0.1,0.4-0.1,0.9-0.5,1.1c-0.2,0.1-0.5,0.3-0.8,0.3c-1.8,0.4-3.6,0.8-5.5,1.3c-0.6,2.4-1.2,4.9-1.8,7.5
				c0.3,0.3,0.6,0.7,0.9,1.1c0.3,0.4,0.4,0.9,0.7,1.4c0.4,0,0.8,0,1.3,0c1.6,0,3.2,0,4.9,0.1c0.5,0,0.7-0.1,1-0.5
				c1.2-1.7,2.6-3.3,4.1-4.7c0.3-0.3,0.6-0.5,0.9-0.7c0.3-0.2,0.6-0.2,0.9,0.1c0.3,0.2,0.4,0.6,0.3,0.9c-0.2,0.4-0.4,0.7-0.6,1
				c-0.9,1.1-1.9,2.2-2.8,3.3c-0.1,0.2-0.3,0.3-0.5,0.6c1.2,0,2.3,0,3.4,0c0.2,0,0.4-0.2,0.5-0.3c1.2-1.1,2.3-2.2,3.5-3.4
				c0.2-0.1,0.3-0.3,0.5-0.4c0.4-0.2,0.9-0.2,1.2,0.1c0.3,0.3,0.3,0.7,0.1,1.1c-0.1,0.2-0.2,0.4-0.4,0.5c-0.7,0.7-1.4,1.5-2.1,2.2
				c0.6,0.1,1.1,0.2,1.6,0.4c0.6,0.2,0.9,0.6,0.9,1.3c0,0.6-0.3,1-0.9,1.2c-0.5,0.1-0.9,0.2-1.4,0.2c-0.5,0.1-0.9,0.1-1.4,0.1
				c0,0,0,0-0.1,0.1c0.4,0.7,0.8,1.4,1.2,2.1c0.2,0.3,0.3,0.6,0.4,0.9c0.2,0.5,0,0.9-0.4,1.1c-0.4,0.2-0.8,0.1-1.1-0.3
				c-0.5-0.7-0.9-1.4-1.4-2.1c-0.3-0.5-0.7-0.9-1-1.4c-0.2-0.3-0.4-0.4-0.8-0.4c-0.6,0-1.1,0-1.8,0.1c0.4,0.8,0.8,1.4,1.2,2.1
				c0.1,0.2,0.2,0.4,0.3,0.7c0.1,0.4,0,0.7-0.3,0.9c-0.3,0.2-0.7,0.3-1.1,0c-0.3-0.2-0.5-0.5-0.7-0.8c-0.6-0.8-1.2-1.7-1.7-2.5
				c-0.2-0.3-0.4-0.5-0.8-0.5c-2.4-0.1-4.7-0.2-7.1-0.4c-0.5,0.9-0.9,1.6-1.4,2.5c0.1,0.1,0.1,0.3,0.2,0.4c0.5,0.7,1.1,1.3,1.5,2
				c0.5,0.9,1.1,1.2,2.1,1.3c1.4,0.1,2.7,0.4,4.1,0.6c0.4,0.1,0.9,0.2,1.3,0.3c0.5,0.1,0.7,0.5,0.7,0.9c0,0.4-0.3,0.8-0.8,0.8
				c-0.4,0.1-0.8,0.1-1.2,0.1C184.4,126,183.2,125.9,181.9,125.8z M171.6,113.7c-1.4,1-1.7,2.8-0.8,4.1c0.7,1.1,2.1,1.4,3.2,0.6
				c1-0.7,1.7-1.7,1.9-2.9c0.1-0.5,0-0.9-0.3-1.3C174.9,113.1,172.8,112.7,171.6,113.7z"/>
			<path class="st20" d="M164.9,124.1c-0.7,0.5-1.6,0.4-2.1-0.3c-0.5-0.6-0.3-1.6,0.3-2.1c0.7-0.5,1.7-0.4,2.2,0.2
				C165.8,122.6,165.6,123.6,164.9,124.1z"/>
			<path class="st20" d="M182.1,111.6c-0.7,0.5-1.6,0.4-2.1-0.3c-0.5-0.7-0.4-1.5,0.3-2c0.7-0.5,1.8-0.4,2.2,0.3
				C183,110.2,182.8,111.1,182.1,111.6z"/>
			<path class="st20" d="M172.5,124.6c0.4-0.3,1-0.2,1.2,0.1c0.3,0.3,0.2,0.9-0.2,1.2c-0.4,0.3-0.9,0.2-1.2-0.1
				C172.1,125.4,172.2,124.8,172.5,124.6z"/>
			<path class="st20" d="M181.5,120.6c-0.4,0.3-0.9,0.2-1.1-0.1c-0.3-0.3-0.2-0.9,0.2-1.1c0.4-0.3,0.9-0.2,1.2,0.1
				C182,119.8,181.9,120.4,181.5,120.6z"/>
			<path class="st20" d="M164.3,113.4c-0.4,0.3-0.7,0.2-1-0.1c-0.3-0.4-0.2-0.9,0.1-1.1c0.3-0.2,0.9-0.2,1.1,0.2
				C164.9,112.6,164.7,113.1,164.3,113.4z"/>
			<path class="st20" d="M171.5,106.5c0.3,0.3,0.2,0.8-0.2,1.1c-0.3,0.2-0.8,0.2-1-0.1c-0.3-0.3-0.2-0.8,0.1-1.1
				C170.7,106.2,171.2,106.2,171.5,106.5z"/>
			<path class="st20" d="M174.3,115c0.4,0.5,0.3,1.4-0.3,1.9c-0.7,0.6-1.6,0.5-2.1-0.1c-0.5-0.6-0.3-1.6,0.3-2
				C172.8,114.2,173.8,114.4,174.3,115z"/>
		</g>
	</g>
</g>
</svg>
