<?xml version="1.0" encoding="iso-8859-1"?>
<!-- Generator: Adobe Illustrator 21.1.0, SVG Export Plug-In . SVG Version: 6.00 Build 0)  -->
<svg version="1.1" id="Calque_1" xmlns="http://www.w3.org/2000/svg" xmlns:xlink="http://www.w3.org/1999/xlink" x="0px" y="0px"
	 width="432px" height="432px" viewBox="0 0 432 432" enable-background="new 0 0 432 432" xml:space="preserve">
<g>
	<path fill="#D4B67E" d="M188.781,191.463c-2.634,9.93,13.687,7.399,18.681,5.734C203.393,191.833,191.185,182.399,188.781,191.463z
		"/>
	<g>
		<path fill="#D4B67E" d="M114.073,106.311c0-0.89-0.072-1.787,0.015-2.668c0.197-1.996,1.184-3.551,2.904-4.584
			c2.063-1.238,4.551-0.525,5.718,1.575c0.613,1.102,0.434,2.15-0.226,3.133c-0.676,1.008-1.695,1.378-2.877,1.336
			c-0.179-0.006-0.41-0.037-0.522-0.15c-0.176-0.178-0.367-0.434-0.372-0.661c-0.004-0.175,0.241-0.401,0.428-0.519
			c0.171-0.107,0.426-0.069,0.622-0.149c0.338-0.136,0.706-0.258,0.98-0.485c0.653-0.539,0.695-1.303,0.173-1.964
			c-0.749-0.948-1.902-1.201-2.976-0.604c-1.304,0.725-2.018,1.874-2.208,3.337c-0.313,2.4,0.257,4.593,1.664,6.554
			c2.88,4.016,4.751,8.474,5.823,13.277c0.507,2.272,0.667,4.574,0.288,6.883c-0.109,0.662-0.316,1.318-0.566,1.941
			c-0.129,0.321-0.406,0.637-0.701,0.818c-0.217,0.134-0.603,0.132-0.854,0.035c-0.327-0.127-0.321-0.488-0.25-0.808
			c0.113-0.51,0.268-1.015,0.337-1.531c0.415-3.11,0.01-6.142-0.913-9.12c-2.271-7.321-6.535-13.199-12.807-17.6
			c-2.91-2.042-6.106-3.454-9.627-4.053c-3.539-0.602-6.952-0.256-10.092,1.601c-2.125,1.257-3.672,3.043-4.173,5.51
			c-0.503,2.48,0.033,4.731,2.008,6.465c1.137,0.998,2.455,1.36,3.952,0.88c1.725-0.553,2.81-2.185,2.622-3.988
			c-0.125-1.201-0.918-1.904-2.104-1.866c-1.343,0.044-2.126,0.764-2.181,2.008c-0.011,0.245,0.016,0.502-0.048,0.733
			c-0.107,0.385-0.361,0.644-0.802,0.63c-0.392-0.013-0.655-0.237-0.728-0.595c-0.079-0.387-0.122-0.797-0.088-1.188
			c0.164-1.866,1.452-3.172,3.388-3.482c1.843-0.295,3.552,0.654,4.344,2.412c1.132,2.511,0.042,5.645-2.438,7.007
			c-2.788,1.532-6.146,0.975-8.333-1.472c-2.25-2.519-2.828-5.482-1.995-8.711c0.747-2.894,2.556-5.023,5.079-6.546
			c0.942-0.568,1.969-0.994,3.031-1.521c-0.172-0.068-0.31-0.151-0.458-0.176c-3.202-0.553-6.156-1.76-8.883-3.495
			c-2.429-1.546-4.398-3.571-5.786-6.113c-1.144-2.097-1.627-4.33-1.052-6.689c0.731-2.999,3.374-4.916,6.378-4.605
			c1.899,0.197,3.278,1.223,3.955,3.034c0.583,1.561-0.059,3.793-1.323,4.915c-0.524,0.466-1.129,0.742-1.837,0.768
			c-0.682,0.025-1.118-0.247-1.211-0.748c-0.082-0.444,0.196-0.877,0.826-1.054c0.844-0.237,1.275-0.815,1.528-1.583
			c0.335-1.014,0.07-1.863-0.744-2.565c-1.415-1.221-3.604-0.577-4.6,0.514c-0.667,0.73-1.05,1.6-1.133,2.577
			c-0.176,2.084,0.347,3.967,1.698,5.596c2.913,3.512,6.61,5.746,11.023,6.863c2.274,0.576,4.583,0.924,6.894,1.296
			c2.579,0.415,5.191,0.73,7.612,1.822c4.019,1.814,7.715,4.114,10.864,7.232c0.213,0.211,0.348,0.5,0.519,0.752
			C113.916,106.453,113.995,106.382,114.073,106.311z"/>
		<path fill="#D4B67E" d="M165.437,98.867c0.221-0.313,0.394-0.549,0.558-0.792c1.607-2.386,3.584-4.388,6.099-5.817
			c1.627-0.924,3.353-1.584,5.249-1.586c2.49-0.003,4.568,0.927,6.063,2.966c1.366,1.863,1.363,3.911-0.074,5.718
			c-1.202,1.512-2.685,2.65-4.744,2.661c-1.822,0.009-3.101-1.267-3.1-3.078c0-0.349,0.121-0.729,0.287-1.04
			c0.186-0.347,0.553-0.481,0.958-0.39c0.416,0.093,0.614,0.388,0.664,0.79c0.038,0.305,0.025,0.618,0.089,0.916
			c0.125,0.578,0.411,0.768,0.992,0.714c1.143-0.106,2.931-1.527,3.259-2.616c0.23-0.765,0.046-1.459-0.436-2.085
			c-1.002-1.299-2.384-1.833-3.96-1.829c-0.723,0.002-1.474,0.162-2.164,0.395c-3.121,1.05-5.516,3.072-7.398,5.73
			c-0.73,1.031-1.383,2.115-2.104,3.152c-1.179,1.693-2.341,3.402-3.592,5.042c-2.005,2.629-4.561,4.658-7.308,6.459
			c-0.322,0.211-0.64,0.43-1.094,0.735c0.51,0.165,0.854,0.268,1.192,0.388c1.92,0.681,3.265,1.912,3.84,3.924
			c0.302,1.055,0.151,2.003-0.465,2.898c-0.778,1.132-1.865,1.789-3.198,2.001c-1.701,0.271-2.99-0.92-3.003-2.782
			c-0.002-0.364,0.226-0.76,0.436-1.085c0.182-0.283,0.557-0.351,0.816-0.125c0.176,0.153,0.224,0.458,0.315,0.7
			c0.017,0.045-0.027,0.117-0.052,0.173c-0.243,0.536-0.171,1.037,0.235,1.45c0.416,0.424,0.915,0.246,1.387,0.093
			c0.262-0.085,0.528-0.179,0.765-0.317c1.196-0.698,1.548-1.746,0.926-2.983c-0.886-1.763-2.475-2.418-4.329-2.505
			c-1.251-0.059-2.463,0.249-3.552,0.86c-3.034,1.704-6.062,3.42-9.056,5.194c-3.937,2.334-7.349,5.29-10.126,8.94
			c-0.78,1.025-1.435,2.145-2.145,3.223c-0.084,0.128-0.135,0.283-0.236,0.394c-0.274,0.301-0.691,0.262-0.806-0.127
			c-0.109-0.367-0.132-0.791-0.07-1.17c0.185-1.142,0.693-2.164,1.301-3.138c1.764-2.829,4.024-5.211,6.593-7.315
			c2.994-2.453,6.344-4.356,9.675-6.288c2.158-1.251,4.355-2.437,6.503-3.704c2.819-1.662,5.531-3.475,7.836-5.834
			c1.596-1.633,2.862-3.472,3.583-5.648c0.796-2.402,0.891-4.828,0.123-7.264c-0.294-0.932-0.801-1.73-1.502-2.404
			c-1.523-1.465-3.69-1.561-5.254-0.131c-0.574,0.524-1.057,1.216-1.39,1.922c-0.736,1.561,0.383,3.466,2.097,3.662
			c0.348,0.04,0.726-0.067,1.074-0.163c0.324-0.089,0.621-0.269,0.94-0.382c0.58-0.206,1.015-0.103,1.234,0.266
			c0.21,0.355,0.125,0.74-0.266,1.164c-0.864,0.937-1.915,1.418-3.208,1.339c-3.028-0.185-5.461-3.346-4.639-6.086
			c0.652-2.173,1.937-3.846,4.017-4.814c2.668-1.241,5.292-0.73,7.385,1.344c1.445,1.432,2.133,3.219,2.453,5.169
			C165.271,96.739,165.322,97.744,165.437,98.867z"/>
		<path fill="#D4B67E" d="M68.404,69.14c-0.112-0.821-0.231-1.609-0.322-2.4c-0.042-0.365-0.066-0.74-0.035-1.105
			c0.063-0.739,0.573-1.039,1.225-0.687c0.399,0.215,0.763,0.525,1.081,0.853c0.577,0.594,1.107,1.233,1.73,1.935
			c0.466-0.197,0.946-0.379,1.407-0.599c0.666-0.319,1.305-0.695,1.979-0.995c0.935-0.416,1.584,0.044,1.389,1.046
			c-0.181,0.929-0.483,1.845-0.838,2.724c-0.216,0.535-0.137,0.859,0.294,1.187c0.391,0.298,0.758,0.63,1.126,0.956
			c0.23,0.204,0.465,0.408,0.66,0.644c0.574,0.692,0.351,1.428-0.539,1.559c-0.689,0.101-1.409,0.02-2.113-0.013
			c-0.429-0.02-0.861-0.073-1.281-0.163c-0.507-0.11-0.813,0.081-1.05,0.516c-0.471,0.865-0.963,1.718-1.455,2.571
			c-0.153,0.266-0.311,0.536-0.507,0.77c-0.543,0.648-1.149,0.566-1.494-0.217c-0.146-0.332-0.232-0.703-0.279-1.065
			c-0.088-0.671-0.133-1.347-0.185-2.022c-0.069-0.881-0.122-0.971-1.012-1.14c-0.664-0.126-1.342-0.178-2.009-0.287
			c-0.539-0.088-1.18-0.09-1.376-0.735c-0.205-0.672,0.264-1.111,0.746-1.457c0.699-0.502,1.435-0.952,2.155-1.423
			C67.93,69.441,68.162,69.295,68.404,69.14z"/>
		<path fill="#D4B67E" d="M167.653,77.559c0.476-0.678,0.925-1.337,1.397-1.979c0.218-0.296,0.455-0.587,0.726-0.834
			c0.549-0.499,1.127-0.372,1.365,0.33c0.146,0.429,0.202,0.904,0.212,1.36c0.019,0.828-0.027,1.657-0.048,2.595
			c0.476,0.173,0.951,0.366,1.439,0.518c0.705,0.219,1.429,0.378,2.127,0.617c0.968,0.331,1.131,1.109,0.307,1.711
			c-0.764,0.558-1.609,1.024-2.468,1.427c-0.522,0.245-0.684,0.537-0.592,1.07c0.084,0.485,0.127,0.977,0.175,1.467
			c0.03,0.306,0.063,0.616,0.046,0.921c-0.05,0.897-0.714,1.285-1.456,0.776c-0.574-0.395-1.046-0.944-1.54-1.447
			c-0.301-0.306-0.582-0.639-0.828-0.991c-0.297-0.425-0.651-0.494-1.121-0.336c-0.933,0.314-1.875,0.604-2.816,0.895
			c-0.293,0.091-0.592,0.181-0.895,0.219c-0.838,0.106-1.227-0.367-0.947-1.176c0.119-0.343,0.308-0.673,0.52-0.971
			c0.392-0.551,0.819-1.078,1.24-1.608c0.549-0.692,0.571-0.795,0.034-1.524c-0.401-0.544-0.862-1.043-1.277-1.577
			c-0.335-0.431-0.804-0.868-0.509-1.475c0.307-0.632,0.949-0.634,1.538-0.56c0.854,0.108,1.699,0.278,2.548,0.423
			C167.101,77.457,167.37,77.508,167.653,77.559z"/>
	</g>
	<path fill="#8C6239" d="M174.209,224.848c-0.195,0.121-0.285,0.155-0.345,0.218c-2.578,2.674-5.793,4.225-9.285,5.301
		c-4.047,1.247-8.156,1.481-12.336,0.87c-3.117-0.456-6.151-1.252-9.169-2.127c-0.233-0.068-0.472-0.118-0.739-0.184
		c-0.205,0.413-0.049,0.803-0.027,1.184c0.096,1.69,0.348,3.387,0.266,5.067c-0.153,3.165-0.426,6.329-0.78,9.478
		c-0.43,3.824-1.058,7.625-1.487,11.449c-0.441,3.934-0.158,7.809,1.344,11.537c1.243,3.084,1.93,6.3,2.028,9.626
		c0.037,1.261-0.024,2.526-0.085,3.787c-0.258,5.323-0.485,10.649-0.82,15.967c-0.194,3.072-0.52,6.138-0.897,9.193
		c-0.138,1.114-0.538,2.209-0.922,3.276c-0.472,1.309-1.484,2.095-2.811,2.457c-1.247,0.34-2.504,0.643-3.755,0.964
		c-1.809,0.464-2.798-0.847-2.596-2.448c0.099-0.787,0.338-1.567,0.601-2.32c1.279-3.657,2.013-7.434,2.402-11.271
		c0.286-2.824,0.163-5.665-0.05-8.495c-0.121-1.596-0.237-3.194-0.41-4.785c-0.44-4.046-1.517-7.913-3.317-11.575
		c-0.801-1.63-1.559-3.283-2.306-4.939c-0.871-1.931-1.302-3.982-1.454-6.082c-0.365-5.026-1.146-9.975-2.743-14.765
		c-0.535-1.604-1.209-3.163-1.862-4.725c-1.39-3.325-2.832-6.627-4.203-9.96c-0.885-2.152-2.163-4.002-3.899-5.544
		c-0.207-0.184-0.402-0.383-0.613-0.563c-3.962-3.395-6.826-7.582-8.914-12.331c-1.656-3.767-2.926-7.648-3.486-11.74
		c-0.657-4.803-0.219-9.522,1.042-14.185c0.662-2.447,1.65-4.769,2.581-7.117c0.964-2.432,1.891-4.881,2.759-7.349
		c0.513-1.457,0.732-2.983,0.705-4.544c-0.027-1.599-0.45-3.061-1.471-4.285c-0.686-0.822-1.453-1.599-2.286-2.27
		c-0.932-0.751-1.966-1.379-2.977-2.027c-1.504-0.964-3.025-1.904-4.543-2.846c-3.241-2.011-5.83-4.725-8.234-7.636
		c-0.595-0.72-1-1.545-1.249-2.452c-0.396-1.444,0.045-2.609,1.149-3.555c0.835-0.716,1.844-1.107,2.873-1.439
		c0.556-0.18,1.126-0.32,1.695-0.453c2.161-0.505,4.139-1.401,5.886-2.776c2.106-1.658,4.174-3.367,6.31-4.986
		c1.396-1.058,2.82-2.11,4.344-2.962c3.063-1.712,6.335-2.147,9.726-1.075c1.407,0.445,2.798,0.95,4.172,1.491
		c1.482,0.583,2.743,1.513,3.849,2.746c0.423-0.275,0.827-0.541,1.235-0.801c2.287-1.452,4.752-2.499,7.419-2.957
		c3.358-0.576,6.559,0.032,9.577,1.6c0.271,0.141,0.527,0.322,0.764,0.516c0.762,0.623,0.928,1.253,0.439,2.117
		c-1.766,3.12-3.701,6.134-6.344,8.597c-2.437,2.271-5.354,3.461-8.713,3.483c-1.015,0.006-2.031,0.001-3.017,0.001
		c-0.094,0.116-0.176,0.177-0.205,0.258c-1.198,3.3-2.438,6.592-3.08,10.058c-0.817,4.408-0.518,8.787,1.301,12.869
		c2.547,5.716,5.935,10.935,10.38,15.401c1.372,1.378,2.849,2.64,4.546,3.617c2.739,1.577,5.736,2.161,8.85,2.322
		c3.299,0.17,6.496-0.5,9.706-1.113c5.278-1.008,10.596-1.598,15.983-1.477c6.285,0.141,12.018,2.032,17.13,5.622
		c4.511,3.168,7.199,7.512,7.664,13.115c0.277,3.334,0.05,6.644-0.311,9.956c-0.449,4.112-1.519,8.109-2.21,12.174
		c-0.386,2.273-0.658,4.568-0.893,6.863c-0.158,1.542,0.092,3.075,0.456,4.579c0.364,1.502,1.151,2.755,2.162,3.921
		c2.221,2.56,4.415,5.144,6.547,7.778c3.184,3.933,4.595,8.53,4.78,13.527c0.117,3.171,0.109,6.347,0.208,9.519
		c0.124,3.973,0.311,7.943,0.446,11.915c0.048,1.416,0.058,2.836,0.02,4.252c-0.034,1.26-0.484,2.408-1.181,3.454
		c-0.187,0.281-0.372,0.586-0.627,0.797c-1.544,1.281-1.975,3.036-2.236,4.911c-0.229,1.644-0.587,3.271-0.907,4.901
		c-0.071,0.36-0.203,0.711-0.339,1.054c-1.025,2.578-2.495,3.378-5.281,3.569c-1.291,0.088-2.241-0.803-2.357-2.112
		c-0.062-0.696-0.061-1.438,0.11-2.109c0.952-3.728,1.934-7.45,2.968-11.156c0.82-2.941,1.613-5.877,1.774-8.949
		c0.259-4.924-0.659-9.679-1.956-14.391c-1.532-5.564-4.145-10.581-7.454-15.285c-2.844-4.043-6.079-7.761-9.22-11.561
		c-1.924-2.327-3.768-4.721-5.589-7.13c-2.225-2.944-3.977-6.151-5.157-9.661C174.941,226.761,174.577,225.846,174.209,224.848z"/>
</g>
<g>
	<path fill="#B78D5C" d="M340.399,244.034c-2.634,9.93,13.687,7.399,18.681,5.734C355.011,244.404,342.804,234.971,340.399,244.034z
		"/>
	<g>
		<path fill="#B78D5C" d="M335.559,125.563c0.233-1.445,0.493-2.886,0.694-4.335c0.435-3.14,0.245-6.272-0.169-9.399
			c-0.048-0.365-0.074-0.738-0.058-1.105c0.017-0.41,0.238-0.702,0.667-0.762c0.387-0.055,0.683,0.137,0.805,0.483
			c0.183,0.52,0.342,1.055,0.443,1.597c0.624,3.335,0.578,6.685,0.123,10.032c-0.407,2.996-1.048,5.943-1.987,8.822
			c-0.073,0.224-0.117,0.458-0.035,0.782c0.326-0.344,0.655-0.684,0.978-1.031c2.726-2.931,5.906-5.206,9.643-6.68
			c1.38-0.544,2.798-0.916,4.267-1.163c1.636-0.275,3.246-0.703,4.867-1.068c0.901-0.203,1.811-0.374,2.697-0.63
			c2.02-0.583,3.768-1.653,5.297-3.09c0.805-0.757,1.363-1.665,1.667-2.726c0.173-0.602,0.09-1.149-0.326-1.644
			c-0.904-1.074-2.409-0.896-3.038,0.366c-0.191,0.384-0.217,0.768-0.011,1.151c0.087,0.162,0.214,0.304,0.296,0.468
			c0.225,0.451,0.179,0.869-0.129,1.089c-0.383,0.273-0.775,0.191-1.109-0.079c-0.694-0.562-1.03-1.32-0.939-2.199
			c0.194-1.87,2.27-3.477,4.004-3.177c1.64,0.284,3.574,2.256,2.911,4.51c-0.443,1.503-1.267,2.723-2.414,3.755
			c-2.071,1.864-4.499,2.986-7.226,3.492c-0.263,0.049-0.524,0.113-0.997,0.217c0.407,0.206,0.631,0.326,0.861,0.435
			c2.994,1.42,5.183,3.603,6.408,6.716c0.729,1.853,0.82,3.724,0.18,5.605c-0.679,1.996-2.096,3.221-4.129,3.73
			c-0.638,0.16-1.282,0.196-1.886-0.157c-0.354-0.207-0.556-0.498-0.457-0.917c0.103-0.434,0.435-0.55,0.841-0.561
			c2.272-0.065,3.633-1.333,3.932-3.581c0.213-1.606-0.205-3.059-0.97-4.432c-1.609-2.892-4.033-4.717-7.307-5.258
			c-2.009-0.332-3.991,0.03-5.91,0.692c-2.676,0.923-5.124,2.27-7.317,4.056c-2.111,1.718-4.049,3.622-5.614,5.858
			c-1.147,1.638-2.255,3.312-3.258,5.041c-2.537,4.374-5.585,8.344-9.146,11.925c-0.195,0.197-0.393,0.391-0.585,0.591
			c-0.04,0.042-0.057,0.107-0.161,0.315c0.416-0.186,0.714-0.317,1.01-0.452c4.322-1.972,8.84-3.244,13.562-3.766
			c2.001-0.221,4.003-0.173,5.979,0.248c3.964,0.846,6.745,3.323,8.853,6.621c1.307,2.045,2.065,4.339,2.417,6.741
			c0.356,2.435-0.149,4.666-1.84,6.531c-0.324,0.357-0.755,0.623-1.152,0.908c-0.282,0.202-0.595,0.199-0.84-0.062
			c-0.282-0.299-0.196-0.627,0.018-0.927c0.107-0.149,0.239-0.281,0.372-0.409c1.324-1.273,1.948-2.857,1.876-4.66
			c-0.101-2.502-0.915-4.815-2.118-7.125c-0.105,0.188-0.188,0.272-0.199,0.366c-0.386,3.175-2.414,4.847-5.272,5.746
			c-0.982,0.309-1.99,0.425-3.009,0.188c-1.726-0.401-2.802-1.499-3.257-3.18c-0.274-1.012,0.034-1.969,0.594-2.813
			c0.879-1.324,2.162-1.975,3.736-2.066c0.152-0.009,0.313-0.005,0.457,0.038c0.385,0.113,0.654,0.351,0.668,0.782
			c0.013,0.38-0.171,0.667-0.519,0.794c-0.315,0.116-0.651,0.187-0.984,0.237c-0.669,0.1-1.228,0.402-1.683,0.889
			c-0.954,1.02-0.785,2.415,0.386,3.168c0.204,0.131,0.435,0.235,0.668,0.304c2.995,0.881,6.559-2.058,6.228-5.131
			c-0.099-0.923-0.52-1.701-1.105-2.398c-0.943-1.122-2.173-1.795-3.543-2.248c-2.335-0.773-4.732-0.776-7.135-0.507
			c-5.703,0.639-11.069,2.402-16.096,5.132c-2.702,1.467-5.324,3.095-7.912,4.76c-3.998,2.572-8.199,4.762-12.452,6.864
			c-1.104,0.546-2.213,1.081-3.319,1.623c-0.183,0.09-0.358,0.194-0.681,0.37c1.022,0.104,1.876,0.138,2.708,0.286
			c2.234,0.397,4.199,1.391,5.93,2.842c0.86,0.721,1.52,1.613,2.023,2.617c1.266,2.527,0.593,5.437-1.707,7.076
			c-0.718,0.511-1.53,0.935-2.359,1.235c-1.378,0.499-2.875-0.022-3.808-1.181c-0.917-1.14-1.012-2.566-0.258-3.891
			c0.346-0.609,0.844-1.048,1.478-1.347c0.3-0.142,0.585-0.316,0.868-0.49c0.389-0.239,0.711-0.153,0.896,0.254
			c0.179,0.394,0.082,0.852-0.293,1.167c-0.209,0.175-0.467,0.294-0.704,0.435c-0.948,0.562-1.4,1.709-0.987,2.506
			c0.483,0.932,1.539,1.297,2.622,0.808c0.637-0.288,1.266-0.657,1.793-1.112c1.31-1.13,1.646-2.996,0.898-4.557
			c-0.418-0.872-0.984-1.648-1.734-2.257c-2.044-1.658-4.348-2.719-7.023-2.656c-1.378,0.033-2.762,0.235-4.123,0.476
			c-0.678,0.12-1.35,0.432-1.957,0.776c-3.707,2.107-7.193,4.529-10.374,7.379c-2.448,2.193-4.575,4.659-6.328,7.444
			c-0.164,0.26-0.311,0.559-0.544,0.737c-0.186,0.142-0.513,0.219-0.737,0.163c-0.336-0.084-0.466-0.423-0.363-0.747
			c0.148-0.467,0.292-0.961,0.563-1.358c0.971-1.423,1.904-2.887,3.016-4.194c2.878-3.382,6.378-6.043,10.021-8.558
			c3.199-2.209,6.159-4.727,8.583-7.813c2.266-2.884,3.623-6.141,4.013-9.787c0.209-1.954,0.017-3.877-0.615-5.746
			c-0.346-1.023-0.908-1.888-1.872-2.435c-1.128-0.64-2.256-0.607-3.306,0.14c-1.315,0.935-1.828,2.282-1.761,3.857
			c0.031,0.717,0.403,1.288,0.964,1.721c0.434,0.335,0.908,0.529,1.456,0.237c0.107-0.057,0.228-0.097,0.347-0.12
			c0.358-0.07,0.688-0.028,0.868,0.34c0.171,0.348,0.081,0.673-0.187,0.928c-0.732,0.695-1.575,0.908-2.552,0.577
			c-1.625-0.55-2.833-2.274-2.755-4.09c0.07-1.62,0.631-3.074,1.771-4.259c1.799-1.868,4.453-2.098,6.549-0.57
			c0.419,0.305,0.797,0.665,1.292,1.082c0.018-0.336,0.05-0.593,0.044-0.848c-0.04-1.758-0.037-3.513,0.31-5.248
			c0.373-1.865,1.051-3.608,2.116-5.186c1.118-1.656,2.581-2.885,4.518-3.493c2.287-0.717,4.736,0.416,5.65,2.616
			c0.441,1.06,0.402,2.099-0.124,3.122c-0.607,1.18-1.56,1.976-2.778,2.453c-1.069,0.419-2.254,0.119-2.835-0.711
			c-0.17-0.243-0.336-0.559-0.327-0.836c0.009-0.257,0.2-0.597,0.415-0.726c0.157-0.094,0.51,0.048,0.729,0.17
			c0.28,0.155,0.518,0.567,0.766,0.561c0.432-0.011,0.897-0.192,1.281-0.417c1.094-0.642,1.537-1.626,1.256-2.618
			c-0.304-1.071-1.404-1.961-2.546-1.933c-0.569,0.014-1.161,0.163-1.693,0.376c-1.329,0.532-2.331,1.482-3.092,2.681
			c-1.321,2.081-2.002,4.375-2.032,6.824c-0.038,3.142,0.003,6.286,0.062,9.428c0.086,4.563-1.4,8.59-4.093,12.206
			c-0.734,0.985-1.572,1.893-2.427,2.915c0.219-0.067,0.375-0.092,0.511-0.16c3.635-1.818,7.304-3.57,10.892-5.478
			c7.359-3.912,13.87-8.941,19.395-15.197c3.158-3.576,5.722-7.557,7.833-11.841c1.086-2.204,1.564-4.53,1.725-6.945
			c0.178-2.672-0.112-5.296-0.952-7.844c-0.981-2.975-2.715-5.455-5.129-7.431c-1.762-1.442-3.836-2.219-6.097-2.418
			c-1.853-0.162-3.55,0.325-4.987,1.546c-2.475,2.102-2.634,5.794-0.317,7.821c1.115,0.975,2.391,1.511,3.917,1.048
			c1.484-0.45,2.404-1.71,2.364-3.26c-0.032-1.235-1.445-2.154-2.603-1.686c-0.17,0.069-0.316,0.195-0.485,0.268
			c-0.461,0.2-0.828,0.104-1.045-0.264c-0.23-0.39-0.099-0.739,0.204-0.991c0.634-0.527,1.356-0.824,2.212-0.76
			c2.456,0.182,3.947,2.17,3.48,4.666c-0.507,2.713-3.284,4.608-6.006,4.098c-4.076-0.764-6.513-4.755-5.323-8.717
			c1.097-3.654,4.785-6.084,8.709-5.75c4.156,0.354,7.4,2.32,9.912,5.588c2.075,2.698,3.346,5.729,3.782,9.108
			c0.045,0.352,0.105,0.701,0.158,1.052C335.405,125.564,335.482,125.564,335.559,125.563z"/>
		<path fill="#B78D5C" d="M235.238,162.009c-1.14,0.229-2.125,0.778-3.075,1.404c-1.415,0.933-2.808,1.902-4.252,2.789
			c-3.428,2.107-7.131,3.499-11.131,4.012c-2.654,0.34-5.226-0.019-7.649-1.208c-1.898-0.931-3.31-2.348-4.126-4.31
			c-1.327-3.19,0.386-6.744,3.621-7.562c1.104-0.279,2.143-0.156,3.09,0.501c1.296,0.899,1.448,2.506,0.457,3.825
			c-0.225,0.3-0.561,0.493-0.874,0.264c-0.205-0.149-0.329-0.5-0.357-0.774c-0.027-0.258,0.132-0.531,0.187-0.802
			c0.15-0.742-0.085-1.119-0.818-1.28c-1.02-0.225-1.89,0.129-2.645,0.781c-1.289,1.111-1.642,2.949-0.894,4.561
			c0.691,1.489,1.817,2.549,3.297,3.229c2.161,0.993,4.434,1.259,6.772,0.918c3.494-0.51,6.719-1.778,9.738-3.581
			c1.164-0.695,2.276-1.475,3.437-2.175c1.106-0.666,2.245-1.276,3.367-1.915c0.07-0.04,0.122-0.113,0.241-0.225
			c-1.053-0.3-2.046-0.579-3.037-0.864c-3.775-1.087-7.167-2.934-10.349-5.203c-8.469-6.039-14.316-14.069-17.988-23.737
			c-0.608-1.601-1.549-2.941-2.801-4.067c-2.25-2.023-5.743-1.93-7.785,0.188c-1.037,1.076-1.56,2.37-1.378,3.873
			c0.292,2.41,1.324,4.279,3.832,5.015c0.182,0.053,0.329,0.223,0.502,0.345c-0.26,0.612-0.746,0.595-1.197,0.559
			c-0.884-0.072-1.656-0.437-2.346-0.992c-2.304-1.851-3.387-5.791-1.897-8.65c1.531-2.937,4.912-4.537,8.107-3.647
			c1.078,0.3,2.083,0.863,3.143,1.316c-0.036-0.217-0.073-0.513-0.137-0.804c-0.586-2.657-0.962-5.342-0.888-8.064
			c0.033-1.192,0.283-2.378,0.445-3.565c0.025-0.18,0.072-0.382,0.178-0.518c0.138-0.177,0.335-0.399,0.529-0.423
			c0.349-0.044,0.453,0.285,0.47,0.565c0.047,0.768,0.111,1.54,0.079,2.306c-0.527,12.822,7.405,30.579,22.338,40.102
			c0.949,0.605,1.936,1.152,2.998,1.579c-0.309-0.222-0.612-0.451-0.927-0.664c-2.927-1.982-5.334-4.46-7.165-7.491
			c-1.255-2.078-2-4.335-2.609-6.682c-0.816-3.144-0.893-6.288-0.355-9.438c0.75-4.395,2.498-8.381,5.461-11.753
			c2.075-2.363,4.668-3.902,7.808-4.416c1.698-0.278,3.315-0.039,4.803,0.871c0.962,0.589,1.636,1.408,1.891,2.516
			c0.08,0.346,0.095,0.747,0.003,1.085c-0.166,0.61-0.816,0.711-1.208,0.212c-0.148-0.188-0.253-0.426-0.322-0.658
			c-0.316-1.047-1.083-1.604-2.055-1.959c-0.985-0.36-1.992-0.38-3.007-0.196c-2.68,0.487-4.899,1.814-6.697,3.825
			c-2.258,2.526-3.728,5.494-4.653,8.735c-0.32,1.119-0.543,2.265-0.811,3.399c0.066,0.025,0.132,0.05,0.198,0.075
			c0.164-0.276,0.33-0.55,0.491-0.827c2.044-3.505,5.007-5.798,8.969-6.741c2.085-0.496,4.025-0.187,5.788,1.114
			c2.186,1.612,3.77,5.458,1.378,8.635c-0.891,1.184-2.046,1.948-3.534,2.148c-0.99,0.134-1.845-0.199-2.494-0.927
			c-0.291-0.327-0.449-0.793-0.596-1.22c-0.124-0.362,0.044-0.677,0.413-0.814c0.339-0.125,0.595,0.038,0.781,0.326
			c0.017,0.026,0.025,0.056,0.042,0.082c0.678,1.057,1.45,1.238,2.545,0.598c2.582-1.509,2.743-5.332,0.308-7.136
			c-1.137-0.842-2.422-1.035-3.776-0.861c-3.704,0.476-8.659,4.037-9.376,9.591c-0.331,2.567,0.148,4.969,1.205,7.283
			c1.448,3.17,3.553,5.828,6.313,7.963c3.198,2.475,6.778,4.258,10.532,5.687c3.395,1.293,6.852,2.421,10.254,3.695
			c6.371,2.387,12.064,5.859,16.865,10.726c2.904,2.943,5.066,6.346,6.403,10.266c0.494,1.449,0.726,2.93,0.532,4.457
			c-0.046,0.361-0.155,0.724-0.298,1.059c-0.055,0.13-0.292,0.265-0.433,0.252c-0.143-0.013-0.347-0.183-0.387-0.324
			c-0.092-0.322-0.129-0.666-0.136-1.003c-0.034-1.531-0.403-2.98-0.976-4.394c-1.409-3.477-3.442-6.526-6.11-9.167
			c-4.157-4.115-9.026-7.127-14.409-9.334c-1.822-0.747-3.701-1.354-5.535-2.073c-1.011-0.396-1.987-0.323-2.976,0
			c-1.914,0.625-3.454,1.801-4.602,3.416c-1.526,2.145-2.315,4.551-2.053,7.22c0.44,4.483,4.517,6.779,7.706,6.633
			c2.279-0.105,4.254-1.794,4.874-4.141c0.24-0.91,0.309-1.822,0.081-2.74c-0.237-0.953-0.797-1.657-1.684-2.083
			c-1.128-0.54-2.255-0.279-2.905,0.785c-0.326,0.534-0.467,1.189-0.641,1.804c-0.162,0.573-0.453,0.886-0.914,0.857
			c-0.452-0.028-0.787-0.392-0.81-0.961c-0.109-2.724,2.408-5.493,5.621-4.391c1.722,0.59,2.813,1.838,3.253,3.619
			c0.937,3.791-1.521,8.002-5.244,8.984c-1.371,0.362-2.744,0.354-4.107-0.047c-5.832-1.717-8.586-7.242-6.514-12.997
			C231.554,165.714,233.001,163.597,235.238,162.009z"/>
		<path fill="#B78D5C" d="M328.228,99.345c0.275-0.839,0.472-1.58,0.759-2.284c0.445-1.094,1.207-1.946,2.21-2.569
			c1.603-0.996,3.275-0.563,4.206,1.087c0.471,0.834,0.726,1.737,0.741,2.697c0.052,3.365-0.674,6.538-2.365,9.469
			c-0.044,0.076-0.095,0.149-0.139,0.226c-0.531,0.938-1.372,1.3-2.386,1.116c-0.892-0.162-1.785-0.398-2.63-0.725
			c-2.228-0.862-4.154-2.197-5.79-3.941c-0.653-0.696-1.122-1.512-1.442-2.408c-0.803-2.246,0.44-4.064,2.832-4.118
			c1.212-0.028,2.312,0.373,3.328,1.018C327.768,99.051,327.984,99.189,328.228,99.345z"/>
		<path fill="#B78D5C" d="M214.63,105.613c-0.237-0.851-0.4-1.6-0.655-2.316c-0.395-1.113-1.118-1.999-2.091-2.666
			c-1.556-1.067-3.246-0.71-4.25,0.896c-0.508,0.812-0.804,1.703-0.862,2.661c-0.204,3.359,0.378,6.562,1.934,9.566
			c0.041,0.078,0.088,0.153,0.128,0.232c0.488,0.961,1.311,1.361,2.333,1.223c0.898-0.121,1.801-0.317,2.66-0.605
			c2.265-0.76,4.249-2.007,5.962-3.675c0.684-0.666,1.189-1.46,1.55-2.34c0.904-2.207-0.256-4.08-2.643-4.242
			c-1.21-0.082-2.326,0.268-3.37,0.867C215.103,105.34,214.881,105.468,214.63,105.613z"/>
	</g>
	<path fill="#754C24" d="M277.277,187.797c0.7-0.476,1.338-0.962,2.023-1.369c5.26-3.121,10.754-3.679,16.474-1.417
		c0.589,0.233,1.155,0.593,1.643,1.001c0.684,0.573,0.761,1.295,0.343,2.083c-0.115,0.217-0.252,0.426-0.407,0.616
		c-1.5,1.838-2.983,3.691-4.515,5.503c-2.745,3.245-6.308,5.047-10.443,5.809c-0.484,0.089-0.967,0.193-1.455,0.258
		c-0.554,0.074-0.786,0.398-0.842,0.923c-0.091,0.857-0.145,1.724-0.318,2.566c-0.533,2.592-1.111,5.175-1.678,7.76
		c-0.536,2.442-0.997,4.889-0.819,7.411c0.247,3.513,1.122,6.856,2.663,10.025c2.072,4.26,4.859,8.01,8.27,11.27
		c2.621,2.505,5.894,3.767,9.427,4.34c2.323,0.377,4.677,0.311,7.008,0.07c5.728-0.59,11.447-1.275,17.174-1.866
		c3.215-0.332,6.43-0.734,9.677-0.59c3.224,0.143,6.394,0.633,9.363,1.92c5.859,2.54,9.478,7.003,10.931,13.208
		c0.709,3.029,0.668,6.101,0.485,9.191c-0.356,5.995-1.802,11.798-2.963,17.653c-0.504,2.541-0.864,5.094-0.812,7.7
		c0.037,1.862,0.438,3.592,1.399,5.194c1.355,2.257,3.008,4.283,4.776,6.221c1.391,1.525,2.785,3.048,4.176,4.574
		c1.906,2.09,2.986,4.594,3.487,7.332c0.315,1.719,0.478,3.475,0.593,5.221c0.432,6.585,0.368,13.181,0.301,19.774
		c-0.017,1.716-0.263,3.434-0.484,5.141c-0.176,1.359-0.836,2.514-1.875,3.412c-0.76,0.657-1.029,1.462-1.086,2.441
		c-0.153,2.642-0.347,5.282-0.578,7.919c-0.097,1.107-0.395,2.182-0.93,3.173c-0.926,1.715-3.315,2.781-5.207,2.33
		c-1.533-0.365-2.602-1.737-2.76-3.545c-0.135-1.548,0.018-3.084,0.299-4.599c0.774-4.177,1.597-8.345,2.398-12.516
		c0.828-4.307,0.876-8.62,0.186-12.955c-0.738-4.639-1.922-9.154-3.576-13.549c-1.056-2.806-2.602-5.309-4.657-7.485
		c-2.306-2.442-4.624-4.875-6.977-7.271c-5.646-5.748-9.998-12.331-12.896-19.858c-0.441-1.145-0.798-2.321-1.221-3.56
		c-0.216,0.154-0.388,0.257-0.538,0.386c-4.422,3.798-9.535,5.941-15.349,6.355c-4.722,0.337-9.265-0.456-13.623-2.312
		c-0.702-0.299-1.422-0.559-2.226-0.873c-0.039,0.297-0.078,0.492-0.088,0.689c-0.192,3.844-0.363,7.688-0.576,11.531
		c-0.16,2.889-0.394,5.773-0.556,8.662c-0.181,3.227-0.398,6.455-0.45,9.685c-0.043,2.719,0.34,5.391,1.386,7.953
		c1.15,2.816,1.391,5.778,1.208,8.799c-0.192,3.166-0.33,6.335-0.453,9.504c-0.148,3.786-0.225,7.574-0.389,11.36
		c-0.122,2.83-0.298,5.659-0.522,8.482c-0.087,1.098-0.313,2.196-0.586,3.266c-0.431,1.685-1.45,2.918-3.125,3.505
		c-0.984,0.345-1.985,0.655-3.001,0.883c-0.492,0.11-1.052,0.074-1.552-0.034c-1.326-0.286-2.154-1.31-2.082-2.665
		c0.05-0.946,0.217-1.899,0.454-2.818c0.4-1.549,0.853-3.087,1.36-4.605c1.182-3.535,1.766-7.174,1.895-10.882
		c0.105-3.016,0.175-6.037,0.118-9.054c-0.034-1.808-0.24-3.63-0.565-5.409c-0.212-1.161-0.707-2.29-1.207-3.372
		c-0.437-0.945-1.024-1.827-1.604-2.698c-2.126-3.196-3.272-6.735-3.794-10.51c-0.321-2.317-0.657-4.633-1.039-6.94
		c-0.526-3.18-1.587-6.194-2.895-9.132c-1.201-2.7-2.397-5.405-3.508-8.143c-0.624-1.537-1.108-3.135-1.589-4.726
		c-0.757-2.506-2.111-4.634-3.897-6.522c-1.271-1.343-2.529-2.7-3.745-4.092c-1.711-1.96-3.127-4.12-4.218-6.488
		c-1.599-3.47-3.146-6.96-4.138-10.666c-0.982-3.67-1.151-7.389-0.96-11.174c0.319-6.327,2.324-12.184,4.652-17.975
		c0.816-2.029,1.631-4.061,2.004-6.233c0.287-1.67,0.18-3.315-0.34-4.929c-0.28-0.87-0.808-1.587-1.428-2.242
		c-1.027-1.085-2.236-1.933-3.525-2.669c-1.525-0.87-3.101-1.657-4.581-2.597c-1.583-1.005-3.107-2.11-4.608-3.237
		c-2.077-1.559-3.357-3.748-4.513-6.007c-0.595-1.162-0.686-2.405-0.378-3.69c0.258-1.078,0.866-1.843,1.891-2.221
		c0.806-0.297,1.637-0.555,2.477-0.727c2.401-0.491,4.576-1.44,6.45-3.034c1.126-0.958,2.236-1.937,3.367-2.889
		c1.273-1.071,2.517-2.181,3.852-3.17c3.433-2.543,7.232-3.259,11.378-2.144C271.858,184.284,274.7,185.691,277.277,187.797z"/>
</g>
</svg>
