<?xml version="1.0" encoding="utf-8"?>
<!-- Generator: Adobe Illustrator 22.0.0, SVG Export Plug-In . SVG Version: 6.00 Build 0)  -->
<svg version="1.1" id="Calque_1" xmlns="http://www.w3.org/2000/svg" xmlns:xlink="http://www.w3.org/1999/xlink" x="0px" y="0px"
	 viewBox="0 0 432 432" style="enable-background:new 0 0 432 432;" xml:space="preserve">
<style type="text/css">
	.st0{fill:#066938;}
	.st1{fill:#9F1E29;}
	.st2{fill:#571419;}
	.st3{fill:none;}
	.st4{fill:#C68448;}
	.st5{fill:#8C633A;}
	.st6{fill:#D79A5D;}
	.st7{fill:#A5C0DF;}
	.st8{fill:#36502D;}
	.st9{fill:#C8261D;}
	.st10{fill:#808181;}
	.st11{fill:#519C37;}
	.st12{fill:#FCEE69;}
	.st13{fill:#EC8C37;}
	.st14{fill:#5877B1;}
	.st15{fill:#7B1523;}
	.st16{fill:#4F0D1C;}
	.st17{fill:#BF333D;}
	.st18{fill:#E7373D;}
	.st19{fill:#972021;}
	.st20{fill:#F2F2F2;}
	.st21{fill:#F3D4AA;}
	.st22{fill:#A67D52;}
	.st23{fill:#B59063;}
	.st24{fill:#020203;}
	.st25{fill:#FFFFFF;}
	.st26{fill:#E7E6E6;}
	.st27{fill:#9A9999;}
	.st28{fill:#B4B4B4;}
	.st29{fill:#C9913E;}
	.st30{fill:#D6A14D;}
	.st31{fill:#E2A1BC;}
	.st32{fill:#C1292E;}
	.st33{fill:#82171C;}
	.st34{fill:#CDCCCC;}
	.st35{fill:#D06C5D;}
	.st36{fill:#79986F;}
	.st37{fill:#DAA405;}
	.st38{fill:#EDCBA9;}
	.st39{fill:#405045;}
	.st40{fill:#8B2F2F;}
	.st41{fill:#1D2E1C;}
	.st42{fill:#D4BB78;}
	.st43{fill:#3C1014;}
	.st44{fill:#731633;}
	.st45{fill:#3F0D26;}
	.st46{fill:#E3EBF8;}
	.st47{fill:#D2DFEF;}
	.st48{fill:#B88E5C;}
	.st49{fill:#A81735;}
	.st50{fill:#4AA8A8;}
	.st51{fill:#94B947;}
	.st52{fill:#A8C4D3;}
	.st53{fill:#9F1A18;}
	.st54{fill:#4F6325;}
	.st55{fill:#BAC463;}
	.st56{fill:#8C694B;}
	.st57{fill:#8A9A66;}
	.st58{fill:#DDDDC3;}
	.st59{fill:#3F668A;}
	.st60{fill:#1B1B1B;}
	.st61{fill:#FFF0BA;}
	.st62{fill:#C69C6C;}
	.st63{fill:#603914;}
	.st64{fill:#114923;}
	.st65{fill:#961F27;}
	.st66{fill:#BB870E;}
	.st67{fill:#C51720;}
	.st68{fill:#449494;}
	.st69{fill:#417675;}
	.st70{fill:#ABCFAF;}
	.st71{fill:#66B2B0;}
	.st72{fill:#F9B03D;}
	.st73{fill:#754D24;}
	.st74{fill:#F6F6F6;}
	.st75{fill:#BA181A;}
	.st76{fill:#AD191C;}
	.st77{fill:#161515;}
	.st78{fill:#1E1E1C;}
	.st79{fill:#0E472B;}
	.st80{fill:#D3C29D;}
	.st81{fill:#CC2717;}
	.st82{fill:#A81916;}
	.st83{fill:#805129;}
	.st84{fill:#F39323;}
	.st85{fill:#B56B20;}
	.st86{fill:#E52629;}
	.st87{fill:#7B9EC7;}
	.st88{fill:#48515A;}
	.st89{fill:#DED3C6;}
	.st90{fill:#3B444E;}
	.st91{fill:#6189B1;}
	.st92{fill:#97B8D7;}
	.st93{fill:#715038;}
	.st94{fill:#A3282E;}
	.st95{fill:#110506;}
	.st96{fill:#F3E4D4;}
	.st97{fill:#F4DCC9;}
	.st98{fill:#676767;}
	.st99{fill:#E0EDF3;}
	.st100{fill:#90443F;}
	.st101{fill:#989389;}
	.st102{fill:#F0DABE;}
	.st103{fill:#4F382A;}
	.st104{fill:#009245;}
	.st105{fill:#064928;}
</style>
<g>
	<g>
		<path class="st2" d="M109,274.6c-0.2-0.1-0.5-0.2-0.7-0.3c-0.3-0.2-0.5-0.5-0.7-0.8c-3.1-3.6-6.9-3.6-10,0
			c-1.5,1.8-2.4,3.9-2.4,6.2c0,3.3,1.6,5.6,4.6,7c2.1,1,4.4,1.2,7,1.4c-0.3-0.6-0.5-0.9-0.8-1.3c-2.1-3.5-1-7,2.8-8.6
			c2.7-1.1,5.3-0.9,7.9,0.5c0.8,0.4,1.6,0.9,2.5,1.4c0.1-0.9,0.1-1.7,0.3-2.4c0.9-3.6,4.8-6.1,8.4-5.6c2,0.3,3.5,1.4,4.4,3.2
			c0.8,1.6,0.6,3.2-0.5,4.7c-1,1.4-2.3,2-4,1.8c-1.3-0.1-2.2-1-2.1-2.2c0-0.3,0.1-0.8,0.4-0.9c0.2-0.1,0.7,0,0.9,0.1
			c0.5,0.2,1,0.6,1.5,0.7c0.3,0,0.7-0.4,1-0.7c0.9-1,0.8-2.2-0.1-3.2c-1-1.1-2.4-1.3-3.8-1c-3.6,0.8-5,4.9-2.7,7.8
			c2,2.5,4.7,3.1,7.6,3c5-0.1,8.9-2.3,12.1-6.2c1.7-2.1,3.3-4.2,4.3-6.8c-0.4,0.2-0.7,0.5-1.2,0.6c-1.4,0.5-2.8,1.1-4.2,1.3
			c-2.4,0.3-4.4-0.7-5.7-2.8c-1.2-2.1-1.3-4.1,0.4-6.1c0.1-0.1,0.1-0.2,0.1-0.6c-1.8,0.2-3.5,0.4-5.2,0.6c-4.2,0.5-8.5,1-12.7,0.6
			c-6.9-0.7-12.6-3.6-16.8-9.1c-3.9-5.1-6.7-10.9-8.8-16.9c-1.6-4.5-2.9-9-4.3-13.5c-1.1-3.5-2.4-7-4.6-9.9
			c-1.1-1.4-2.3-2.9-3.8-3.9c-3.9-2.8-8.6-0.6-9.3,4.1c-0.4,3,2.2,5.6,4.9,4.8c1.5-0.4,2.4-1.9,2.2-3.4c-0.1-0.8-0.5-1.3-1.3-1.5
			c-0.8-0.2-1.3,0.1-1.6,0.8c-0.1,0.2-0.2,0.4-0.3,0.4c-0.4,0.2-0.9,0.4-1.2,0.3c-0.3-0.2-0.6-0.8-0.5-1.2c0.1-1.4,1.2-2.5,2.7-2.6
			c2.3-0.3,4.3,1.4,4.6,3.7c0.4,3.9-3.5,6.9-7.4,5.7c-2.7-0.9-4.7-3.6-4.5-6.5c0.4-5.8,2.9-10.6,7.7-14c4.6-3.3,9.6-3.5,14.5-0.7
			c2.6,1.4,4.6,3.5,6.7,5.6c0.5,0.5,1,1.1,1.9,1.9c0-1.1,0-1.8,0-2.5c0-2.6,0.5-3.2,3-3.8c2.8-0.6,5.7-1.2,8.5-1.8
			c0.3-0.1,0.5-0.1,1.1-0.3c-0.9-0.7-1.6-1.2-2.3-1.8c-0.6-0.5-1.2-1-1.7-1.5c-0.5-0.5-0.8-1.2-0.3-1.8c0.4-0.5,1-1,1.5-1
			c0.9,0.1,1.8,0.4,2.6,0.8c0.8,0.5,1.5,1.2,2.1,1.8c0.9-1,1.7-2,2.6-2.9c0.6-0.6,1.4-0.9,2.1-1.3c0.9-0.4,1.8-0.3,2.4,0.4
			c0.7,0.8,0.6,1.7,0.1,2.5c-0.4,0.7-1,1.3-1.6,1.9c-0.6,0.6-1.2,1.1-1.6,1.9c1.2-0.1,2.4-0.4,3.7-0.4c1.7,0,3.4,0,5.1,0.3
			c2.3,0.5,3.2,1.8,3.4,4.1c0.2,2.4,0.4,4.8,0.6,7.3c2.5-0.6,4.5-2.4,4.7-4.7c0.4-3.5,0.7-7.1,1-10.6c0.1-1.6-0.3-2.7-1.9-3.6
			c-1.4-0.8-2.5-2.1-3.6-3.4c-0.9-1.1-1.7-1.7-3.3-1.6c-1.3,0.1-2.7-0.3-4-0.8c-3.4-1.5-7-2.6-10.6-3.6c-0.9-0.3-1.8-0.6-2.7-1
			c-0.8,0.7-1.5,1.4-2.3,2.1c-1.3,1.1-2.7,1.4-4.3,0.7c-1.6-0.7-2.2-2.1-2.2-3.7c0-0.9,0.2-1.9,0.6-2.7c0.7-1.7,2.1-2.2,3.8-1.7
			c1.6,0.5,3.1,1.3,3.9,2.8c4.1-1.1,7.7-2.9,11.2-5c2.9-1.8,5.7-3.6,8.5-5.5c3.8-2.5,8-4.1,12.6-4.3c4.1-0.2,7.9,0.6,11.1,3.5
			c1,0.9,2,2.1,2.6,3.3c1,1.9,2.2,3.6,3.9,5c0.5,0.4,0.9,1,1.1,1.6c0.1,0.5,0,1.2-0.4,1.6c-0.8,1-0.9,2-0.7,3.2
			c0.1,0.6,0.1,1.2,0.2,2.2c0.5-0.5,0.8-0.8,1-1.1c2.4-3.3,3.4-7.1,3.8-11.1c0.3-3.1,0.6-6.2,0.8-9.4c0-0.5-0.2-1-0.4-1.4
			c-0.5-1.1-1.2-2.2-1.5-3.4c-0.7-2.3-0.2-3.2,2.2-4c0.1-0.6,0.1-1.2,0.2-1.9c0.3-1.7,1.5-2.8,3.3-3c1.6-0.2,3.1,0.7,3.7,2.2
			c0.3,0.8,0.5,1.6,0.6,2.4c0.1,0.3,0,0.7,0.1,1.1c0,2.9-0.4,5.7,0.3,8.6c0.8,3.6-0.1,7.3-0.5,10.9c-0.1,0.7-0.1,1.4-0.2,2.2
			c1.7-0.8,3.3-1.5,4.8-2.2c0.2-0.1,0.4-0.4,0.5-0.7c2.2-3.5,5.5-5.2,9.5-6c4.1-0.8,8.1-0.3,12.2,0.5c7.1,1.4,13.9,3.7,20.8,6
			c11.1,3.7,22.1,7.8,33.5,10.6c7.7,2,15.6,3.5,23.4,5.2c6.5,1.4,13,2.6,19.5,3.9c0.3,0.1,0.6,0.1,1,0.1c0.1-0.6,0.2-1.2,0.3-1.7
			c0.5-2,2.2-3,4.2-2.5c0.6,0.2,1.2,0.4,1.8,0.7c0.5,0.3,1.1,0.5,1.5,0.9c2.6,2.1,5.6,3,8.9,3.2c4.3,0.3,8.6,0.9,12.9,1.3
			c1.8,0.1,3.6,0.1,5.3-0.2c3.2-0.5,4.6-2.1,4.5-5.3c-0.1-3.8-1.1-7.5-3-10.8c-2.1-3.6-4.5-7-6.9-10.3c-0.9-1.2-2.1-2.3-3.2-3.3
			c-1.6-1.4-3.4-2-5.6-0.9c-1,0.5-2.1,0.7-3.2,0.8c-1.9,0.1-3.8-1.9-2.2-4.3c0.6-0.9,1.2-1.9,1.8-2.8c0.6-0.9,1.2-1.9,2-3.2
			c-0.8,0.1-1.4,0-1.9,0.2c-2.4,0.7-4.6,1.7-6.3,3.5c-1.7,1.8-3.2,3.7-4.6,5.6c-2.9,3.8-6.4,7-10.8,9.1c-2.7,1.3-5.5,2.2-8.5,2.3
			c-4.5,0.2-8.3-2.5-9.2-6.5c-0.5-2.2,0.1-4.1,1.8-5.6c1.6-1.5,3.6-1.8,5.6-1c1.6,0.6,2.7,1.7,3.2,3.3c0.8,2.6-1.4,5.6-4.1,5.4
			c-0.3,0-0.8-0.4-0.9-0.7c-0.1-0.3,0.1-0.8,0.4-1c0.4-0.4,0.9-0.5,1.4-0.8c1.1-0.7,1.3-1.8,0.6-2.9c-0.7-1-2-1.5-3.3-1.2
			c-1.2,0.3-2.2,1.4-2.4,2.8c-0.3,2.3,1.4,4.7,3.8,5.7c1.5,0.6,3,0.6,4.6,0.3c6.3-1.2,11.3-4.5,15.6-9.9c-0.8,0.3-1.2,0.5-1.6,0.6
			c-2.3,1-4.7,1.5-7.3,1.2c-2.7-0.3-4.6-1.7-5.9-4.1c-1-1.8-0.5-3.9,1-5.6c1.4-1.5,3.5-2.1,5.3-1.3c1.9,0.8,2.6,2.8,1.6,4.5
			c-0.2,0.3-0.6,0.6-0.8,0.5c-0.3-0.1-0.7-0.4-0.9-0.7c-0.1-0.2-0.1-0.6-0.1-0.9c-0.2-1.2-0.6-1.5-1.8-1.4c-1.9,0.2-3.1,2.5-2.2,4.2
			c0.9,1.5,2.1,2.5,4,2.7c3.9,0.3,7.2-1.1,10-3.7c0.8-0.8,1.5-1.7,2.3-2.5c3.3-3.8,4.2-4.5,8.9-6.5c-0.3-0.8-0.5-1.6-0.9-2.4
			c-1.2-2.5-2.2-5-3.6-7.3c-1.4-2.4-3.9-2.7-6.3-2.9c-0.3,0-0.7,0.2-0.9,0.4c-1.1,1.2-0.5,3,1.5,3.5c-0.2-0.7-0.4-1.2-0.4-1.7
			c0-0.4,0.1-1,0.4-1.2c0.5-0.4,1,0,1.4,0.4c1,1.2,1.2,2.9,0.3,3.9c-0.9,1.1-2.6,1.2-3.9,0.4c-0.9-0.6-1.6-1.4-1.9-2.5
			c-0.1-0.6-0.2-1.3-0.4-2.1c-0.5,0.2-1,0.3-1.4,0.5c-2.2,1.1-4.5,2.2-6.7,3.2c-3.3,1.5-6.7,2.6-10.4,2.7c-9.9,0.3-13.8-8.3-13-14.4
			c0.2-1.8,0.8-3.5,2-4.9c1.4-1.8,3.3-2.5,5.5-2c2.1,0.4,3.3,1.9,3.9,3.9c0.4,1.4,0.5,2.8-0.1,4.2c-1,2.5-3.8,3.3-5.8,1.7
			c-0.5-0.3-0.9-0.7-0.6-1.3c0.3-0.6,0.8-0.7,1.3-0.5c0.8,0.3,1.6,0.6,2.3-0.1c0.8-0.8,0.8-1.7,0.7-2.6c-0.1-0.4-0.1-0.8-0.3-1.2
			c-0.9-2.3-3.3-2.7-5-0.9c-1.4,1.6-1.9,3.6-1.7,5.6c0.1,2.4,0.9,4.6,2.4,6.6c1.6,2.1,3.7,3.2,6.3,3.5c3.3,0.3,6.4-0.3,9.4-1.5
			c2.1-0.8,4.1-1.8,6.1-3c-1-0.1-1.9-0.1-2.9-0.2c-4.2-0.5-7.3-3.9-7.2-8.1c0-2.4,1.2-4.3,3.4-5.1c2.3-0.9,4.5-0.5,6.3,1.1
			c1.4,1.3,1.4,3.3,0.1,4.6c-1.3,1.3-3.3,1.5-4.6,0.3c-0.4-0.3-0.7-0.8-0.8-1.3c-0.1-0.7,0.6-1.2,1.3-0.8c0.2,0.1,0.4,0.4,0.7,0.6
			c0.7,0.5,1.4,0.3,1.9-0.3c0.5-0.7,0.2-1.3-0.4-1.7c-1.1-0.8-2.4-1-3.7-0.5c-1.3,0.5-1.9,1.5-2,2.9c-0.3,2.9,1.8,5.6,4.8,6.2
			c1.7,0.3,3.3,0.2,4.9-0.2c1.4-0.3,2.8-0.7,4.2-0.9c7-1.4,11.5,1.2,14.4,5.9c0.2,0.3,0.4,0.5,0.6,0.9c0.6-0.8,1.1-1.5,1.7-2.1
			c1.2-1.3,2.7-1.9,4.5-1.7c1.4,0.2,2.4,0.9,2.8,2.4c0.4,1.6,0,3-1.1,3.8c-1.1,0.8-2.4,0.8-3.4-0.2c-0.4-0.4-0.8-0.9-0.4-1.5
			c0.4-0.5,0.9-0.5,1.4-0.2c0.3,0.1,0.5,0.3,0.7,0.4c0.8-0.6,0.7-1.3,0.2-1.9c-0.5-0.6-1.2-0.6-1.8-0.3c-1.2,0.7-2.1,1.8-2,3.3
			c0,3,1.4,5.3,3.7,7.2c0.3,0.3,1,0.4,1.4,0.2c2.4-0.8,4.8-0.9,7.4-0.6c1.9,0.2,3.8,0.2,5.7,0.2c0.7,0,1.4-0.3,2-0.5
			c0.6-0.2,1.2-0.6,1.8-0.8c1.5-0.4,2.7,0.4,3.1,1.9c0.6,2.7,0,5.7-2.7,7.5c-0.9,0.6-1.9,1.2-2.8,1.9c-1.2,0.9-1.3,1.5-0.2,2.6
			c0.9,0.9,1.9,1.6,3,2.2c4.7,2.8,8.7,6.5,12.4,10.5c4.1,4.6,6.8,9.9,8,16c0.1,0.4,0.2,0.8,0.4,1.3c0.9-0.4,1.7-0.7,2.5-1
			c2.4-1.1,4.9-2.2,7.3-3.3c0.4-0.2,0.9-0.4,1.3-0.5c1.6-0.4,2.6,0.3,2.7,1.9c0.1,1.2-0.1,2.3-0.2,3.5c0.1,0.1,0.2,0.2,0.3,0.2
			c1.9,0.2,2.7,1,2.4,3.3c-0.2,1.7-0.6,3.4-1.2,5c-1.5,4-3.2,7.9-4.8,11.8c-0.9,2.3-2.6,3.9-4.9,4.8c-1.6,0.6-3.2,1.3-4.8,1.8
			c-1.1,0.3-2.2,0.5-3.3-0.1c-1.8-1-2.1-2.8-0.6-4.2c1-1,2.2-1.9,3.4-2.5c2.5-1.1,3.5-3,4.1-5.4c0.8-3.3,0.2-4.5-3.1-6
			c-0.5,0.8-1,1.6-1.5,2.5c-1.4,2.4-2.9,4.6-4.8,6.6c-3.9,4-8.7,6-14.2,6.5c-4.1,0.4-8.2-0.1-12.1-1.2c-1.1-0.3-2.3-0.6-3.4-0.9
			c-2.9-0.8-5.7-0.4-8.4,1.1c-3,1.7-6.2,2.9-9.6,3.6c-1.3,0.3-2.6,0.7-3.9,1.1c-2.3,0.8-4.1,2.2-5.4,4.4c-1.1,2-2.2,3.9-3.3,5.9
			c-3.4,6.5-8.3,11.7-14.3,15.8c-0.8,0.5-1.6,1-2.5,1.4c-0.8,0.3-1.7,0.3-2.3-0.3c-0.7-0.6-0.8-1.5-0.4-2.3c0.3-0.8,0.6-1.7,1.1-2.4
			c1.3-1.9,2.7-3.8,4.2-5.5c2.6-3.1,5-6.4,7-10c0.2-0.3,0.3-0.6,0.3-1c-0.4,0.3-0.9,0.7-1.3,1c-3.5,3-7.1,5.9-11,8.4
			c-2,1.3-3.6,3-5.5,4.5c-1.2,0.9-2.5,1.6-3.7,2.4c-0.8,0.4-1.6,0.5-2.3-0.2c-0.7-0.7-0.6-1.6-0.1-2.3c0.6-1.1,1.3-2.3,2.1-3.3
			c4.2-4.9,8.4-9.8,12.8-14.5c2.9-3.2,6.1-6.1,9.3-9.1c1.9-1.8,4.1-3,6.4-4.1c1.6-0.8,3.1-1.7,4.6-2.7c1.2-0.8,1.6-2,1.5-3.4
			c-0.1-1.1-0.3-2.1-0.4-3.3c-0.6,0-1.1,0-1.6,0c-7,0.2-14,0.5-20.9,0.5c-10.6,0.1-21.1-0.8-31.4-2.8c-8.9-1.7-17.4-4.5-25.7-8.1
			c-5.7-2.5-11.4-5-17-7.7c-5.9-2.8-12.1-4.3-18.6-5.2c-0.5-0.1-0.9,0-1.4,0c-1.9,2.4-4.3,4-6.8,5.6c-2.5,1.5-4.9,3.1-7.4,4.6
			c-3.6,2.1-4,5.8-3.1,9.3c1.1,4.3,2.2,8.6,2.3,13.1c0,0.1,0.1,0.2,0.2,0.5c1.2,0,2.5,0.1,3.8,0c2.2-0.1,3.9,0.7,5.1,2.6
			c2,3.1,3.9,6.2,5.9,9.3c0.3,0.5,0.6,0.9,1.3,1.3c-0.3-1.6-0.6-3.3-1-4.9c-1.2-5.2-2-10.4-2.3-15.8c-0.2-3.7-0.3-7.3,0.5-11
			c0.5-2.6,1.6-4.9,3.2-7.1c1.3-1.8,3.1-2.8,5.3-3.3c1.2-0.3,2.2-0.1,3.3,0.4c4.4,1.9,5.7,8,2.5,11.5c-0.8,0.9-1.8,1.5-3.1,1.6
			c-1.5,0.1-2.8-0.8-3.2-2.3c-0.4-1.4,0.1-2.4,1.5-3.1c0.8,0.4,0.6,1,0.5,1.7c-0.1,0.6-0.2,1.4,0.5,1.7c0.8,0.4,1.5,0,2.1-0.6
			c1.9-1.8,1.7-5.5-0.5-7.1c-1.1-0.8-2.3-1-3.5-0.4c-2.3,1.1-3.8,2.8-4.5,5.2c-0.3,1.1-0.2,2.2,0.4,3.1c0.9,1.4,1.9,2.8,3.1,3.9
			c2.1,1.9,4.3,3.5,6.5,5.2c2.8,2.1,5.3,4.5,7.5,7.3c2.6,3.4,4.2,7.3,4.8,11.5c0.5,3.4,0.7,6.9-0.1,10.2c-1.5,5.9-4.8,10.5-10,13.7
			c-3.6,2.3-7.6,3.9-11.5,5.5c-0.5,0.2-1,0.4-1.6,0.6c2.9,2.1,3.4,4.9,2.2,8c-1.3,3.5-3.9,5.2-7.8,5.3c0.6,0.3,1.2,0.5,1.9,0.8
			c3.5,1.2,7.1,1.9,10.7,2.4c2.4,0.3,4.9,0.2,7.2-0.6c3.7-1.2,6-4.7,5.9-8.6c-0.1-2.8-2.6-5.6-5.3-6.1c-2-0.4-4.1,1.2-4.3,3.2
			c-0.1,1.4,1,2.6,2.5,2.5c0.5,0,0.9-0.2,1.4-0.2c0.6-0.1,1.1,0.2,1.2,0.8c0,0.4-0.2,1-0.5,1.2c-0.9,0.4-1.9,0.8-2.9,0.7
			c-3.4-0.3-5.3-3.7-3.9-6.8c1.5-3.4,5.2-4.9,8.6-3.4c3.1,1.4,5.2,3.7,5.7,7.2c0,0.2,0.1,0.3,0.1,0.5c0,0,0.1,0.1,0.3,0.2
			c0.3-0.4,0.6-0.8,0.9-1.2c1.3-1.4,2.5-2.9,3.9-4.1c1.7-1.4,3.7-2.1,5.9-2.2c4.2-0.1,6.9,2.4,7.3,6.8c2.2-2.3,3.4-5,4.1-8
			c0.9-3.7,0-6.9-2.4-9.8c-1.6-2-3.7-3.4-5.9-4.7c-2-1.2-4-2.4-5.9-3.7c-1.8-1.2-3.1-2.9-3.9-4.9c-0.8-2.2-0.6-4.2,1-6
			c1.5-1.8,3.5-2.5,5.9-2.1c3.3,0.6,5.4,4.3,4.1,7.1c-0.3,0.7-0.8,1.3-1.4,1.7c-1.7,1.2-3.7,0.4-4.2-1.5c-0.1-0.4,0-1,0.3-1.3
			c0.4-0.5,0.9-0.4,1.4,0c0.3,0.2,0.5,0.5,0.8,0.7c0.9-1.1,0.9-1.7,0.3-2.7c-0.7-1.2-1.9-1.7-3.2-1.5c-2.1,0.5-3.2,2.6-2.4,4.7
			c0.6,1.6,1.7,2.9,3.1,3.8c1.9,1.2,3.8,2.4,5.7,3.5c2.1,1.2,4.1,2.6,5.7,4.4c2.2,2.3,3.6,5,3.9,8.2c0.1,1.5,0,3-0.3,4.4
			c-1.5,6.9-5.8,11.6-12.1,14.6c-4,1.9-8.2,3.1-12.4,4.2c-12.3,3.4-24.8,6-37.4,8.6c-8.3,1.7-16.7,3.5-25,5.1
			c-10.2,2-20.5,3.7-30.9,4.7c-4.5,0.4-9,0.6-13.5-0.2c-1-0.2-2.1-0.4-3.1-0.8c-6-2.2-8.8-8.3-5.5-14.7c1.3-2.6,3.3-4.5,6.1-5.3
			c3.2-1,7.2,0.8,8.5,3.8c0.2,0.4,0.2,1,0.3,1.5C109.3,274.5,109.1,274.5,109,274.6z M188,178.8c0.5,0.1,0.9,0.2,1.4,0.3
			c4.8,0.6,9.5,1.8,14,3.8c4.7,2.1,9.4,4.2,14.1,6.3c16.5,7.6,33.8,11.6,52,12.3c10.4,0.4,20.7,0,31.1-0.4c0.2,0,0.4-0.1,0.6-0.2
			c-0.1-2.1-0.2-2.3-2.1-2.7c-7.8-1.5-15.5-3.2-23.3-4.6c-14.4-2.6-28.4-6.5-42.3-11.2c-9.2-3.1-18.4-6.2-27.6-9.2
			c-5-1.6-10.2-2.7-15.5-2.4c-2.2,0.1-4.2,0.6-6.1,1.6c-0.5,0.3-1,0.7-1.5,1C186.5,172.4,189.8,174.7,188,178.8z M158.7,270.4
			c-0.1-0.4-0.4-1-0.5-1.7c-0.5-2,0.1-3.7,1.6-5.1c0.8-0.7,1.7-1,2.8-0.9c1.5,0.1,2.6,1.2,2.7,2.6c0.1,1.3-1.1,3.2-2.3,3.4
			c-0.3,0.1-0.8-0.2-1-0.4c-0.1-0.1,0.1-0.6,0.2-0.9c0.2-0.3,0.5-0.5,0.8-0.7c0.4-0.5,0.7-1.2,0.2-1.8c-0.5-0.6-1.2-0.4-1.8,0
			c-1,0.6-1.5,1.6-1.3,2.7c0.1,0.8,0.4,1.7,0.9,2.4c1.2,1.7,2.9,1.8,4.3,0.2c1.7-2,2.6-4.4,2.3-7.1c-0.1-1.3-0.4-2.6-1.4-3.6
			c-3.8,0.7-7.6,1.4-11.4,2.2c-0.4,0.1-0.9,0.6-1.1,1c-1.2,3.5-1.8,7.1-0.9,10.8c0.5,2.1,1.4,3.9,3.2,5.2c1.5,1.1,3.1,1,4.4-0.2
			c1.3-1.2,1.7-3,0.8-4.5c-0.5-0.9-1.3-1.4-2-1.2c-1,0.4-1.1,1.1-0.8,2c0,0.1,0,0.1,0,0.2c-0.1,0.4-0.2,1-0.4,1
			c-0.4,0.1-1-0.1-1.2-0.4c-0.8-0.9-0.9-2-0.2-3C157,272,157.8,271.3,158.7,270.4z M221.7,264.8c-2-0.5-3.2-1.2-3.8-2.7
			c-0.5-1.2-0.3-2.2,0.5-3.1c0.2-0.2,0.7-0.4,0.9-0.3c0.2,0.1,0.4,0.5,0.5,0.8c0.1,0.2-0.1,0.5-0.1,0.7c-0.3,1.8,1,3,2.7,2.3
			c1.3-0.5,2.4-1.5,2.6-2.9c0.1-1.4-0.8-2.3-1.9-3c-0.3-0.2-0.7-0.4-1.1-0.5c-1.8-0.6-3.6-0.4-5.3,0.5c-1.7,0.9-3.2,2.1-4.2,3.7
			c-1.4,2-2.7,4.2-4,6.3c-0.6,1-1.1,2-1.9,3.3C211.9,268.4,216.8,267.1,221.7,264.8z M181.3,255.9c-3.9,1-7.6,2-11.5,3
			c0.4,0.5,0.6,0.9,0.9,1.2c2.3,2.3,4.9,3.9,8,4.8c1,0.3,2,0.5,3,0.4c3.5-0.1,6.2-4.1,5.1-7.4c-0.3-0.8-0.7-1.7-1.8-1.8
			c-0.9-0.1-1.8,0.5-2.2,1.5c-0.2,0.5-0.3,1.2-0.1,1.7c0.1,0.2,0.8,0.2,1.2,0.4c0.3,0.1,0.7,0.4,0.7,0.6c0,0.3-0.2,0.7-0.4,0.9
			c-0.9,0.7-2.5,0.5-3-0.7c-0.4-0.7-0.4-1.7-0.4-2.5C180.7,257.3,181.1,256.7,181.3,255.9z M123.9,286.8c-1.8-1.6-3.2-3-4.6-4.2
			c-1.6-1.4-3.3-2.6-5.3-3.1c-2.2-0.6-4.3-0.3-6,1.2c-1.9,1.7-1.4,5.2,0.9,6.3c1.1,0.5,2.4,0,2.7-1.1c0.3-0.8-0.4-1.1-0.7-1.7
			c-0.1-0.3-0.2-0.9,0-1.1c0.2-0.2,0.8-0.2,1.1-0.1c1.3,0.5,1.9,1.9,1.5,3.4c-0.1,0.5-0.4,0.9-0.6,1.7
			C116.6,287.7,120.1,287.3,123.9,286.8z M141.2,264.1c0.5,0.7,0.9,1,1.2,1.5c1,1.6,0.3,3.8-1.4,4.5c-0.3,0.1-0.9,0.1-1.1-0.1
			c-0.2-0.2-0.1-0.7,0.1-1c0.1-0.3,0.4-0.4,0.6-0.6c0.4-0.5,0.5-1,0.2-1.6c-0.4-0.6-0.9-0.7-1.5-0.6c-1.5,0.2-2.6,1.8-2.3,3.2
			c0.4,2.3,2.4,3.7,4.8,3.4c4.3-0.6,8-4.9,8.5-9.9C147.2,263.2,144.3,263.6,141.2,264.1z M169.9,262.9c-0.7,3.3-1,6.3-0.3,9.4
			c0.4,1.6,1.1,3,2.6,3.9c1.7,1,3.3,0.8,4.5-0.6c1.4-1.5,1.6-4.1,0.5-5.4c-0.8-1-1.8-1.1-2.8-0.2c-0.6,0.5-1,1.2-0.8,2
			c0.1,0.5,0,1.1-0.6,1.1c-0.4,0-0.8-0.4-1-0.8c-0.5-0.9-0.2-1.8,0.3-2.7c0.8-1.2,2-1.9,3.4-2.3
			C173.7,265.8,171.9,264.4,169.9,262.9z M141.3,283.9c4.9-0.9,9.5-1.7,14.2-2.9c-3.5-2.4-4.7-5.7-5.3-9.5
			C148.1,276.1,145.2,280.1,141.3,283.9z M178.9,269.2c1.2,2.5,0.8,4.6-0.2,7.1c4.9-1.1,9.5-2.1,14-3.1
			C188.1,272.1,183.6,271.2,178.9,269.2z M163.3,273.8c0.8,1.9,0.4,3.8-1.1,5.9c3.2-0.7,6-1.3,9.1-2c-2.7-1.8-3.3-4.4-3.8-6.8
			C166.1,271.9,164.8,272.8,163.3,273.8z"/>
	</g>
	<g>
		<path class="st101" d="M244.3,232.9c-0.1-7.3,2.2-13.7,7.5-18.9c1.9-1.9,4.1-3.3,6.9-3.8c3.1-0.6,5.9,0.2,8.3,2.1
			c2.7,2.2,3.4,5.6,1.6,8.6c-1.4,2.5-3.7,3.9-6.6,4.2c-1.1,0.1-2.2-0.2-3.2-0.9c-0.8-0.6-1.2-1.5-1-2.5c0.1-0.3,0.4-0.6,0.7-0.7
			c0.1-0.1,0.5,0.2,0.6,0.5c1,1.7,1.5,1.9,3.4,1.6c1.3-0.2,2.3-0.9,3.2-1.8c2.6-2.7,2.1-6.4-1.2-8.2c-2.4-1.3-5-1.4-7.5-0.2
			c-1.8,0.9-3.3,2.2-4.6,3.6c-4.4,5-6.3,11-5.7,17.6c1,12,6.2,21.8,16.3,28.6c7.8,5.1,16.2,5.5,24.8,2c3.6-1.5,6.9-3.5,9.8-6.1
			c2.8-2.5,5.5-5,8.2-7.7c5.2-5.1,10.5-10.1,16.3-14.6c4-3,8.2-5.7,12.8-7.5c2.8-1.1,5.7-1.9,8.7-2.2c2.8-0.3,5.6,0.1,8.1,1.3
			c4.2,2,5.7,6.7,3.5,10.8c-2.3,4.1-7.8,6.5-12,5.2c-0.3-0.1-0.6-0.2-0.8-0.3c-1.9-0.8-3.4-2-3.6-4.2c-0.3-2.4,1-4.1,2.7-5.5
			c0.5-0.5,1.2-0.6,1.8-0.1c0.7,0.5,0.4,1.2,0,1.7c-0.4,0.6-0.9,1.1-1.2,1.7c-0.9,1.4-0.5,2.8,0.9,3.6c1.2,0.6,2.4,0.9,3.8,0.6
			c2.5-0.6,4.7-1.7,6-4c1.6-2.8,0.6-6.1-2.4-7.4c-2.7-1.1-5.4-1.1-8.2-0.7c-4.8,0.8-9.1,2.8-13.2,5.4c-4.9,3.1-9.3,6.7-13.5,10.7
			c-3.5,3.3-6.9,6.7-10.4,10c-2.6,2.5-5.3,4.9-8.2,7.1c-4.6,3.5-9.8,5.7-15.5,6.6c-7.6,1.1-14.6-0.7-20.8-5.1
			c-9.4-6.8-14.3-16.3-16.1-27.6c-0.1-0.4-0.1-0.8-0.1-1.2C244.3,234.5,244.3,233.7,244.3,232.9z"/>
		<path class="st101" d="M156.4,160.2c-0.4-0.1-0.8,0-1-0.2c-3.5-2.5-7.5-3.1-11.6-3.4c-8-0.6-15.6,1.2-22.9,4.4
			c-9.8,4.4-19.2,9.4-28.1,15.4c-4,2.7-8,5.2-12.2,7.6c-3.3,1.9-6.7,3.5-10.5,4.3c-3.4,0.7-6.7,0.2-9.7-1.6
			c-6.3-3.7-6.5-11.5-3.9-15.9c2.9-4.8,9.3-5.5,12.8-1.3c1.5,1.8,1.9,3.8,1.1,6c-0.6,1.9-2,2.8-3.9,3.2c-0.7,0.1-1.3,0-1.4-0.7
			c-0.1-0.4,0.4-0.9,0.7-1.3c0.1-0.2,0.4-0.2,0.6-0.3c2-1.1,2.5-3.5,0.9-5.2c-2.3-2.7-6.5-2.3-8.5,0.8c-2.4,3.8-1.8,9.2,2.1,12.1
			c2.8,2.1,6,2.5,9.3,1.6c2.4-0.7,4.8-1.6,7-2.8c4-2.2,7.9-4.5,11.7-7c9.9-6.6,20.3-12.4,31.3-17c4.2-1.8,8.5-3.3,13-3.9
			c6.1-0.8,12.2-0.8,18.1,1.2c1.2,0.4,2.3,1,3.3,1.6C155.5,158.3,156.3,159,156.4,160.2z"/>
		<path class="st101" d="M214.9,153.8c6.4,0.1,12.9,0.2,19.3,1.4c4.7,0.9,9.1,2.7,13.1,5.3c2.1,1.3,3.8,3,5,5.2
			c0.3,0.5,0.9,1.3,0.2,1.7c-0.8,0.6-1.1-0.4-1.4-0.9c-1.7-2.1-3.7-3.8-6-5.2c-4.9-2.8-10.2-4.3-15.8-4.8
			c-7.1-0.7-14.3-0.6-21.5-0.5c-3.3,0-6.5-0.1-9.7-0.9c-4.6-1.2-8.3-3.5-11-7.6c-5.3-8.1,0-18,8.8-19.7c3.5-0.7,6.4,0.6,8.5,3.6
			c1.8,2.5,1.2,6.3-1.2,8.2c-1.7,1.4-3.6,1.4-5.2,0.1c-0.5-0.4-1.1-0.9-0.6-1.6c0.4-0.6,1-0.6,1.6-0.3c1.1,0.6,2,0.6,2.8-0.4
			c1-1.1,1.3-2.8,0.6-4.1c-1-1.9-3.3-3.2-5.4-3c-6.1,0.6-12.1,7.8-8.2,15.1c2.5,4.7,6.7,7,11.8,7.8c1.7,0.3,3.4,0.4,5.1,0.4
			C208.7,153.9,211.8,153.8,214.9,153.8z"/>
		<path class="st101" d="M275.6,274.9c-0.2,1.3-1,1.6-1.6,1.9c-2.3,1.1-4.7,1.5-7.2,1.7c-6.7,0.6-13.5,0.3-20.2-0.2
			c-3.9-0.3-7.8-0.5-11.7-0.5c-5.5,0.1-10.8,1.5-15.4,4.7c-2.4,1.7-4.5,3.7-5.9,6.3c-1.7,2.9-2.3,6-0.9,9.2c2,4.6,8.2,6.8,12.6,4.5
			c1.9-1,3.3-2.5,3.5-4.8c0.1-1.3-0.4-2.3-1.6-2.9c-0.1,0-0.1,0-0.2-0.1c-0.7-0.3-1.3-0.6-1-1.5c0.2-0.7,1.1-1,2.1-0.6
			c2.5,0.8,3.9,3.3,3.3,6.1c-0.5,2.5-2,4.4-4.1,5.7c-2.5,1.5-5.1,2-8,1.5c-5.5-1-9.6-5.5-9.9-11c-0.1-2.4,0.6-4.7,1.8-6.8
			c2.9-5.1,7.3-8.3,12.7-10.3c4-1.5,8.2-2.2,12.5-2.1c3.3,0.1,6.5,0.2,9.7,0.5c6.6,0.6,13.2,0.8,19.9,0.6c2.8-0.1,5.5-0.4,8.2-1.5
			C274.5,275,274.9,275,275.6,274.9z"/>
		<path class="st101" d="M92.1,262.6c-1.4-0.3-1.6-1.2-2-1.9c-1.9-3.3-3.6-6.8-5.7-10c-2.9-4.5-6.8-8.2-11.2-11.3
			c-2.1-1.4-4.2-2.6-6.8-3c-2.4-0.3-4.6,0.2-6.6,1.5c-3.7,2.5-4.7,7.2-2.2,10.9c0.5,0.8,1.3,1.5,2.2,2c1.1,0.7,2.3,0.5,3.3-0.2
			c1.1-0.7,1.2-1.7,0.4-2.7c-0.2-0.3-0.6-0.6-0.8-1c-0.1-0.4-0.2-1,0-1.2c0.2-0.3,0.9-0.4,1.2-0.2c2,1.2,3,3.3,1.8,5.4
			c-1.1,2.1-3.9,3.1-6.1,2.4c-3.2-1-4.8-3.5-5.5-6.6c-1.5-6.6,3.3-11.2,8.4-12.3c2.3-0.5,4.5-0.3,6.6,0.6c1.6,0.7,3.2,1.4,4.6,2.3
			c8.5,5.8,14.3,13.7,17.8,23.3C91.8,261.2,91.9,261.7,92.1,262.6z"/>
		<path class="st101" d="M362.5,171.6c0.1-1.1,0.1-2,0.2-2.9c0.6-5.3-0.3-10.4-2-15.4c-1.9-5.6-4.8-10.6-8.8-14.9
			c-1.3-1.4-2.9-2.6-4.5-3.7c-1.3-0.9-2.8-1.2-4.4-1c-2,0.3-3.5,1.6-4,3.5c-0.3,1.1,0,2.1,0.7,3c0.9,1.1,1.7,1.1,2.8,0.2
			c0.5-0.4,1-0.8,1.6-0.9c0.3-0.1,0.9,0.3,1.1,0.6c0.1,0.2-0.2,0.7-0.4,1c-0.1,0.2-0.4,0.3-0.5,0.5c-1.1,1.5-2.4,2.2-4.3,1.5
			c-2-0.8-3.1-2.2-3.4-4.4c-0.4-4.1,3.3-7.8,8-7.3c2.4,0.3,4.4,1.4,6.2,2.9c2.5,2,4.4,4.4,6.2,7c4.2,6.2,6.9,12.9,7.6,20.4
			c0.2,2.7,0.2,5.4-0.5,8.1C363.9,170.7,363.8,171.5,362.5,171.6z"/>
	</g>
</g>
</svg>
