<?xml version="1.0" encoding="utf-8"?>
<!-- Generator: Adobe Illustrator 20.1.0, SVG Export Plug-In . SVG Version: 6.00 Build 0)  -->
<svg version="1.1" id="Calque_1" xmlns="http://www.w3.org/2000/svg" xmlns:xlink="http://www.w3.org/1999/xlink" x="0px" y="0px"
	 viewBox="0 0 432 432" style="enable-background:new 0 0 432 432;" xml:space="preserve">
<style type="text/css">
	.st0{fill:#E20D18;}
	.st1{fill:#C9973C;}
	.st2{fill:#CB9A3E;}
	.st3{fill:#CC7B26;}
	.st4{fill:#E30613;}
	.st5{fill:#D82116;}
	.st6{fill:#008D36;}
	.st7{fill:#432918;}
	.st8{fill-rule:evenodd;clip-rule:evenodd;fill:#CC7B26;}
</style>
<g>
	<g>
		<path class="st4" d="M280.2,62.1c-1.2-0.5-2.4-0.9-3.6-1.1c-2.3-0.4-4.9,0-7.2-0.1c-4.8-0.1-9.6-0.2-14.5-0.3
			c-9.7-0.3-19.4-0.6-29.1-0.8c-19.3-0.5-38.6-0.5-57.8,1.2c-30,2.8-48.9,34.1-70.2,55.4c-8.8,8.8-28.8,22-33.8,33.8
			c-4,9.3-1,25.9-1,36.2c0,27.1-8.6,72,3.3,95.6c7.5,15,29.9,29.9,41.8,41.8c12.2,12.2,27.2,35,42.7,42.7
			c24.2,12,73.6,2.4,101.2,2.4c8.8,0,21.8,2.4,29.8-1c13.6-5.7,28.6-28.6,39-38.9c21.6-21.6,49-37,50.3-67.5
			c1.4-30.6,10.1-87-3.3-113.6c-8.5-16.9-33.7-33.7-47-47c-7.6-7.6-15.2-15.2-22.8-22.8C292.7,73,287.2,65.2,280.2,62.1z
			 M359.7,274.1c-2.9,7.2-8.6,12-14.1,17.9c-6.3,6.8-12.6,13.7-19,20.5C314,326,301,339.2,286.5,350.4c-21.8,16.9-52.7,9.5-80.8,9.5
			c-37.8,0-45.1,3.8-70.9-22c-18.4-18.4-55.7-43.6-62.9-68.1c-4.5-15.4,0-38.8,0-54.9c0-15.8-5.5-42.8,0-57.7
			c8.5-22.8,45.5-47.8,62.9-65.3c26.4-26.4,35.9-22,74.6-22c30.3,0,59.1-8.5,80.8,13.3c19.9,19.9,63.2,49.1,71.7,75.4
			c5.6,17.4,0,45.6,0,63.8c0,8.3,0,16.5,0,24.8c0,7.8,0.8,15.9-1.1,23.5C360.5,271.9,360.1,273,359.7,274.1z"/>
	</g>
	<g>
		<g>
			<path d="M159.9,137.8c2.1,3,2.5,6.2,1.5,9.7c-0.9,3.1-2.7,5.5-5.1,7.4c-0.4,0.4-0.8,0.6-1.2,0.9c-2.1,1.5-4.5,1.8-6.9,1.3
				c-2.1-0.3-3.9-1.3-5.4-2.6c-1.2-1-2.3-2.1-3.4-3.2c-0.2-0.1-0.4-0.4-0.6-0.6c-3.3-5-2.2-5.5-1.7-6.5c0.3-0.5,0.5-0.8,0.8-1.1
				c0.4-0.4,0.8-0.5,1.2-0.7c0.5-0.3,1.1-0.4,1.6-0.2c0.8,0.3,1.3,0.7,1.6,1.5c0.1,0.1,0.1,0.2,0.2,0.4c0.3,1.1,1,2.1,1.6,3.1
				c0.8,1.5,2.2,2.7,3.6,3.5c0.1,0.1,0.4,0.1,0.5,0.3c4.3,3,6.2-4.5,3.4-8.4c-1.1-1.4-2.5-2.9-3.9-4.1c-2.1-1.8-3.8-3.9-5.3-6.1
				l-0.6-0.9c-0.6-0.8-1.1-1.7-1.8-2.5l-0.3-0.5c-0.4-1-0.8-2-1.1-2.9c-0.1-0.2-0.2-0.4-0.2-0.6c-0.1-1.1-0.4-2.2-0.4-3.4
				c-0.1-1-0.1-1.9-0.1-2.9c-0.1-4,3.7-7.5,4.1-7.7c0.4-0.4,0.9-0.8,1.3-1.1c3.6-2.8,9.1-1.3,10.7-0.6l2,1c0.8,0.3,1.4,0.8,2,1.4
				c0.5,0.6,0.9,1.1,1.3,1.6c1.1,2.2,1.6,3.8,1.8,5.5c0.1,0.5,0.1,1.1,0.1,1.5c-0.1,0.3-0.2,0.6-0.5,0.7c-0.1,0.1-0.4,0.2-0.4,0.3
				c-0.4,0.2-0.6,0.4-1.1,0.3c-0.5-0.1-1-0.4-1.2-0.8c-4.1-4.7-9.5-9.3-13.1-6.1c-1.5,2-2.4,4.1-1.8,6.2c0.2,0.6,0.4,1.1,0.5,1.6
				c0.4,0.9,0.8,1.8,1.5,2.5c0.1,0.3,0.4,0.6,0.6,0.8c0.3,0.5,0.7,0.9,1.3,1.2c0.6,0.4,1.1,0.8,1.8,1.1c0.6,0.4,1.3,0.8,1.9,1.3
				c0.8,0.5,1.5,0.9,2.2,1.3c0.6,0.3,1.1,0.8,1.7,1.2c1.3,0.9,2.3,2.2,3.2,3.5L159.9,137.8z"/>
			<path d="M191.9,157.4c-0.4,0.7-0.9,0.9-1.5,0.9c-1.1,0.1-1.8-0.4-2.5-1l-0.8-0.8c-0.4-0.4-0.6-0.8-0.6-1.4c0.1-0.4,0-0.9-0.2-1.3
				c-0.8-2.1-1.9-6.1-2.1-7.5c-0.2-1-0.4-2-0.6-3c-0.2-0.8-0.6-1.5-0.6-2.4c0-0.4-0.4-0.7-0.8-0.7c-0.7,0.1-1.5,0.1-2.2,0.3
				c-1.7,0.2-3.4,0.4-5.1,0.4c-0.8-0.1-1.1,0.1-1.3,0.9l-0.2,0.6c-0.5,2.7-1.1,5.4-1.5,8.1l-0.4,1.4c-0.2,0.6-0.4,1.2-0.4,1.8
				c-0.1,0.3-0.2,0.6-0.4,1c-0.1,0.3-0.4,0.6-0.5,0.8c-0.4,0.1-0.7,0.3-1.1,0.4c-1.3,0.3-2.4-0.1-3.3-1.1c-0.1,0-0.1-0.1-0.1-0.1
				c-1.6-2-1.3-1.1-1.5-3.5c0-0.4-0.1-0.8-0.1-1.1c-0.1-0.3-0.1-0.5-0.1-0.8c0.1-1.7,0.1-3.4,0.1-5c0.1-1.1,0.1-2,0.4-3
				c0.1-0.2,0.1-0.4,0.1-0.7l0.8-6.9c0.2-2.7,0.6-5.3,1.2-7.9c0.6-2.5,1.1-5,1.8-7.4c0.8-2.5,1.7-4.9,2.9-7.2
				c0.2-0.3,0.3-0.6,0.4-0.8c0.6-1.3,1.6-2,2.8-2.5c1-0.4,2-0.6,3-0.6c0.8,0.1,1.5,0.2,2.2,0.6c0.7,0.4,1.3,0.7,2,0.8
				c0.8,0.1,1.4,0.7,1.6,1.5c0.2,0.9,0.4,1.8,0.5,2.7c0.1,2.2,0.6,4.3,1,6.4c0.4,2.2,0.9,4.6,1.3,6.8c0.5,3.1,0.8,6.1,1.3,9.1
				c0.3,1.1,1.6,10,2,12.1l0.6,2.7c0.4,1.1,0.8,2.2,1.3,3.2c0.2,0.7,0.6,1.3,0.6,2c-0.1,0.1,0,0.3,0.1,0.4
				C192.6,156.3,192.2,156.9,191.9,157.4z M182.3,135.6c-0.1-0.4-0.2-0.9-0.2-1.3c-0.1-0.6-0.7-4.8-0.8-5.3c-0.3-2.3-0.6-4.6-1-6.9
				c0-0.3-0.1-0.5-0.2-0.8c-0.1-0.1-0.1-0.1-0.3-0.1c-0.1,0-0.1,0-0.2,0.1l-0.2,0.3c-0.5,0.9-0.6,1.9-0.9,2.9
				c-0.4,2.2-1.1,4.6-1.8,6.8c-0.6,2.2-1.2,4.3-1.9,6.4c0,0.2,0.1,0.6,0,1c0.4-0.1,0.6-0.1,0.8-0.2c0.5-0.1,0.9-0.4,1.3-0.5
				c1.4-0.2,2.7-0.7,4.1-0.8c0.3-0.1,0.6-0.1,0.8-0.1c0.4-0.1,0.6-0.4,0.6-0.7C182.4,136,182.3,135.8,182.3,135.6z"/>
			<path d="M231.5,110c-0.4,0.9-0.6,2.1-0.8,3c-0.2,0.8-0.4,1.7-0.6,2.4c-0.2,1.5-0.3,3-0.6,4.5c0,0.6-0.1,1.1-0.1,1.6
				c-0.1,0.6-0.2,1.3-0.2,1.9c-0.3,1.7-0.6,3.2-0.8,4.8c0.1,0.9-0.1,1.8-0.2,2.8c-0.2,1.8-0.3,3.8-0.5,5.6c-0.1,1-0.2,2-0.4,3
				c0,1.5,0,3.2-0.2,4.7c0,0.6-0.1,1.1-0.1,1.7c-0.1,0.6-0.3,1.3-0.1,2c0.1,0.4,0,0.8-0.1,1.2c-0.2,0.8-0.5,1.6-1.4,2.1
				c-1.6,0.8-3.1,0.9-4.9,0.2c-1.1-0.5-1.3-0.8-2.2-1.7c-0.8-1.5-1.8-2.9-2.6-4.7c-0.2-0.4-0.4-0.7-0.7-1c-0.1-0.4-0.2-0.5-0.4-0.6
				c-0.6-1-1.1-2-1.7-2.7c-0.8-2-1.9-3.9-2.6-5.8c-0.7-1.4-1.5-2.5-2.2-3.9c0-0.1-0.1-0.4-0.4-0.5c-0.1,0-0.4,0.2-0.4,0.4l-0.1,1.3
				c-0.1,2-0.3,3.8-0.4,5.7c0,2-0.1,4.1-0.1,6.1c0,2.2,0.2,4.4,0.4,6.5c-0.1,1.1-0.2,2-0.2,3.1c0,0.8-0.6,1.3-1.1,1.8
				c-0.2,0.4-0.6,1-1.3,1.3c-0.6,0.6-1.3,0.9-2.3,1.1c-0.6-0.1-1.4,0.1-2.1-0.1c-3.9,0-2.9-4.4-3.2-4.7l-0.5-3.8l0.4-9.1l-0.1-0.6
				c0-1.4,1-18.5,0.8-19.4c0-0.5,0.1-0.8,0.1-1.1c-0.3-5.7,0.2-6.4,1.1-6.5c0.5-0.1,1.1-0.4,1.6-0.4c0.6-0.3,1.4-0.4,2.2-0.3
				c0.5,0.1,1.1-0.1,1.5,0.1c0.4,0.1,0.8,0.1,1.3,0.1c0.4,0,0.7,0.2,1,0.6c0.4,0.9,3.7,10,4.5,11.3c1.5,3.2,3.1,6,5.1,8.9l1.3,2
				c0.2,0.4,0.7,1,1.1,1.4c0.1-0.1,0.2-0.3,0.2-0.4l-0.2-8.8c0.1-1,0.1-1.9,0.3-2.9v-0.5c0.1-1.1,0.2-2.2,0.5-3.2
				c0.1-0.9,0.2-1.8,0.3-2.6l0.8-6.3c0.1-0.2-0.1-0.4,0.1-0.6c0-1.4,0.8-2.2,1.8-2.6c1.2-0.4,2.3-0.7,3.4-1c1.1-0.1,2-0.1,2.9-0.1
				c0.8,0.1,1.3,0.4,2,0.8c0.2,0.1,0.4,0.2,0.6,0.4c0.1,0.3,0.2,0.6,0.1,0.8C231.5,109.8,231.5,110,231.5,110z"/>
			<path d="M270.5,109.6c-0.4,0.1-0.8,0.2-1.3,0.2c-1.1,0.1-2.2,0.2-3.3,0.5c-2.3,0.4-4.5,0.8-6.9,1.3c-1.1,0.1-2.2,0.4-3.3,0.6
				c-1.5,0.4-1.8,0.6-2,2.2c-0.1,1-0.4,2-0.8,5.1c-0.3,2.4-0.7,4.8-0.8,7.3c-0.1,1.4-0.2,2.8-0.3,4.2c0,0.4,0.1,0.8,0.1,1.1
				c0,0.2,0.1,0.5,0,0.7c-0.2,2,0,3.9-0.1,5.9c0,1.3,0.1,7.7,0.1,9.3c0.1,0.4,0.1,0.9,0.1,1.3c-0.1,0.8-0.1,1.7,0,2.6
				c0.1,0.7,0,1.5-0.2,2.3c-0.2,0.7-0.6,1.2-1.5,1.5c-1.1,0.3-2,0.3-3.1-0.1c-1.6-0.7-3.3-1.3-5-1.9c-0.4,0-0.7-0.1-1.1-0.3
				c-0.1-0.1-0.4-0.1-0.6-0.4c-0.2-0.3-0.4-0.9-0.6-1.5c-0.1-0.1-0.1-0.5,0-0.8l0.5-8.6c0-1.2,0.1-2.4,0.1-3.6
				c0.1-2,0.2-4.1,0.4-6.2c0.1-2.4,0.1-4.8,0.4-7.3c0-1.3,0.1-2.6,0.2-3.9c0.1-0.8,0.3-1.5,0.4-2.2c0.1-1.2,0.2-2.4,0.4-3.6
				c0-0.4-0.1-0.5-0.1-0.9c-0.4,0-0.6-0.1-1,0c-0.6,0-1.4,0.1-2,0.1c-0.4,0.1-0.5,0.1-0.8,0.1c-0.4,0-0.8,0-1.1-0.1
				c-0.4-0.1-0.7-0.1-1-0.3l-0.8-0.8c-0.1-0.4,0.3-0.6,0.5-0.7c2.5-1,12.3-2.6,16.4-3.6c1.3-0.1,2.7-0.4,3.9-0.6c3-0.7,6-1.3,9-1.8
				c1.3-0.1,2.3-0.1,3.5-0.2c0.4-0.1,0.6,0.1,0.8,0.3c0.4,0.3,0.8,0.5,1,0.8C271.2,108.3,271.1,109.1,270.5,109.6z"/>
			<path d="M296.8,157.4c-0.4,0.7-0.9,0.9-1.5,0.9c-1.1,0.1-1.8-0.4-2.5-1l-0.8-0.8c-0.4-0.4-0.6-0.8-0.6-1.4c0.1-0.4,0-0.9-0.2-1.3
				c-0.8-2.1-1.9-6.1-2.1-7.5c-0.2-1-0.4-2-0.6-3c-0.2-0.8-0.6-1.5-0.6-2.4c0-0.4-0.4-0.7-0.8-0.7c-0.7,0.1-1.5,0.1-2.2,0.3
				c-1.7,0.2-3.4,0.4-5.1,0.4c-0.8-0.1-1.1,0.1-1.3,0.9l-0.2,0.6c-0.5,2.7-1.1,5.4-1.5,8.1l-0.4,1.4c-0.2,0.6-0.4,1.2-0.4,1.8
				c-0.1,0.3-0.2,0.6-0.4,1c-0.1,0.3-0.4,0.6-0.5,0.8c-0.4,0.1-0.7,0.3-1.1,0.4c-1.3,0.3-2.4-0.1-3.3-1.1c-0.1,0-0.1-0.1-0.1-0.1
				c-1.6-2-1.3-1.1-1.5-3.5c0-0.4-0.1-0.8-0.1-1.1c-0.1-0.3-0.1-0.5-0.1-0.8c0.1-1.7,0.1-3.4,0.1-5c0.1-1.1,0.1-2,0.4-3
				c0.1-0.2,0.1-0.4,0.1-0.7l0.8-6.9c0.2-2.7,0.6-5.3,1.2-7.9c0.6-2.5,1.1-5,1.8-7.4c0.8-2.5,1.7-4.9,2.9-7.2
				c0.2-0.3,0.3-0.6,0.4-0.8c0.6-1.3,1.6-2,2.8-2.5c1-0.4,2-0.6,3-0.6c0.8,0.1,1.5,0.2,2.2,0.6c0.7,0.4,1.3,0.7,2,0.8
				c0.8,0.1,1.4,0.7,1.6,1.5c0.2,0.9,0.4,1.8,0.5,2.7c0.1,2.2,0.6,4.3,1,6.4c0.4,2.2,0.9,4.6,1.3,6.8c0.5,3.1,0.8,6.1,1.3,9.1
				c0.3,1.1,1.6,10,2,12.1l0.6,2.7c0.4,1.1,0.8,2.2,1.3,3.2c0.2,0.7,0.6,1.3,0.6,2c-0.1,0.1,0,0.3,0.1,0.4
				C297.4,156.3,297.1,156.9,296.8,157.4z M287.1,135.6c-0.1-0.4-0.2-0.9-0.2-1.3c-0.1-0.6-0.7-4.8-0.8-5.3c-0.3-2.3-0.6-4.6-1-6.9
				c0-0.3-0.1-0.5-0.2-0.8c-0.1-0.1-0.1-0.1-0.3-0.1c-0.1,0-0.1,0-0.2,0.1l-0.2,0.3c-0.5,0.9-0.6,1.9-0.9,2.9
				c-0.4,2.2-1.1,4.6-1.8,6.8c-0.6,2.2-1.2,4.3-1.9,6.4c0,0.2,0.1,0.6,0,1c0.4-0.1,0.6-0.1,0.8-0.2c0.5-0.1,0.9-0.4,1.3-0.5
				c1.4-0.2,2.7-0.7,4.1-0.8c0.3-0.1,0.6-0.1,0.8-0.1c0.4-0.1,0.6-0.4,0.6-0.7C287.3,136,287.2,135.8,287.1,135.6z"/>
		</g>
		<g>
			<path class="st4" d="M144.7,227.8c4.2,6.1,5.1,12.6,3.1,19.5c-1.8,6.2-5.4,11-10.3,14.8c-0.8,0.7-1.7,1.1-2.4,1.8
				c-4.2,3-9,3.7-13.8,2.7c-4.2-0.6-7.8-2.5-10.9-5.2c-2.4-2-4.7-4.2-6.8-6.5c-0.4-0.3-0.8-0.8-1.1-1.3c-6.6-10-4.5-11-3.4-13.1
				c0.6-1,1-1.7,1.6-2.1c0.8-0.7,1.7-1,2.4-1.4c1-0.6,2.1-0.7,3.2-0.4c1.6,0.6,2.7,1.4,3.2,3c0.1,0.1,0.3,0.4,0.4,0.8
				c0.6,2.3,2,4.2,3.2,6.2c1.7,3.1,4.4,5.4,7.2,7.1c0.3,0.3,0.7,0.3,1,0.6c8.6,6.1,12.6-9,6.9-16.9c-2.3-2.8-4.9-5.8-7.9-8.3
				c-4.2-3.5-7.6-7.8-10.7-12.3l-1.3-1.8c-1.1-1.7-2.3-3.4-3.5-5.1l-0.6-1c-0.7-2-1.6-4-2.1-5.8c-0.1-0.4-0.4-0.8-0.4-1.1
				c-0.3-2.3-0.7-4.5-0.8-6.8c-0.1-2-0.1-3.8-0.1-5.8c-0.1-8,7.5-15.1,8.2-15.5c0.8-0.8,1.8-1.6,2.7-2.3c7.3-5.6,18.2-2.7,21.4-1.1
				l4.1,2c1.6,0.6,2.8,1.6,4,2.8c1,1.1,1.8,2.1,2.7,3.2c2.3,4.4,3.2,7.6,3.7,11c0.1,1,0.1,2.1,0.1,3.1c-0.1,0.6-0.4,1.1-1,1.4
				c-0.3,0.3-0.7,0.4-0.8,0.6c-0.7,0.4-1.3,0.8-2.1,0.6c-1-0.1-2-0.7-2.4-1.7c-8.3-9.5-19.2-18.8-26.4-12.3
				c-3.1,4.1-4.8,8.2-3.5,12.6c0.4,1.1,0.7,2.1,1,3.2c0.7,1.8,1.7,3.7,3,5.1c0.3,0.6,0.8,1.1,1.1,1.6c0.6,1,1.4,1.8,2.5,2.4
				c1.1,0.8,2.3,1.7,3.5,2.1c1.3,0.8,2.5,1.6,3.8,2.5c1.6,1,3,1.8,4.5,2.5c1.3,0.6,2.3,1.7,3.4,2.4c2.7,1.8,4.7,4.4,6.5,7.1
				L144.7,227.8z"/>
			<path class="st4" d="M227.2,171c-0.8,0.3-1.6,0.4-2.5,0.4c-2.1,0.1-4.4,0.4-6.6,1c-4.7,0.7-9,1.7-13.8,2.5
				c-2.3,0.3-4.5,0.8-6.6,1.3c-3.1,0.8-3.7,1.1-4.1,4.4c-0.1,2-0.8,4-1.6,10.3c-0.6,4.8-1.4,9.7-1.6,14.7c-0.3,2.8-0.4,5.6-0.6,8.5
				c0,0.8,0.1,1.7,0.1,2.3c0,0.4,0.1,1,0,1.4c-0.4,4,0,7.9-0.1,11.9c0,2.7,0.1,15.5,0.3,18.8c0.3,0.8,0.3,1.8,0.3,2.7
				c-0.3,1.7-0.3,3.4,0,5.2c0.3,1.4,0,3.1-0.4,4.7c-0.4,1.4-1.3,2.4-3,3c-2.1,0.6-4.1,0.6-6.2-0.1c-3.2-1.4-6.6-2.5-10-3.8
				c-0.7,0-1.4-0.3-2.3-0.6c-0.3-0.1-0.8-0.3-1.1-0.8c-0.4-0.6-0.8-1.8-1.1-3c-0.3-0.3-0.3-1,0-1.6l1-17.4c0-2.4,0.1-4.8,0.1-7.2
				c0.3-4,0.4-8.3,0.8-12.6c0.1-4.8,0.3-9.7,0.8-14.7c0-2.7,0.1-5.2,0.4-7.9c0.1-1.6,0.6-3,0.7-4.5c0.3-2.4,0.4-4.8,0.8-7.2
				c0-0.7-0.3-1-0.3-1.8c-0.7,0-1.3-0.1-2,0c-1.3,0-2.8,0.1-4.1,0.3c-0.7,0.1-1,0.1-1.7,0.1c-0.7,0-1.6,0-2.3-0.1
				c-0.7-0.1-1.4-0.1-2-0.6l-1.6-1.7c-0.1-0.8,0.6-1.1,1-1.4c5.1-2,24.7-5.2,32.9-7.2c2.7-0.3,5.4-0.7,7.8-1.1
				c6.1-1.4,12.1-2.7,18.1-3.5c2.5-0.3,4.7-0.3,7.1-0.4c0.7-0.3,1.3,0.1,1.7,0.6c0.7,0.6,1.6,1,2,1.7
				C228.6,168.4,228.5,170,227.2,171z"/>
			<path class="st4" d="M266.2,204.8l-0.7,12.8c-0.3,2.4-0.4,4.8-0.7,7.3c-0.1,2.4-0.7,4.8-1.4,7.2c-0.6,1.8-1.3,3.7-2.1,5.6
				c-0.7,2.3-1.6,4.7-2.4,6.6c-1.6,3.8-3.1,7.3-5.5,10.9c-1.1,1.4-2.3,2.8-3.5,4.2c-2,1.7-4.2,3-7.1,3.7c-2.4,0.4-4.5,0.4-6.5-0.7
				c-4.7-1.8-9-4.1-12.7-7.1c-4-3.5-7.1-7.3-9.5-12c-2.7-5.2-4.5-10.7-5.8-16.7c-0.7-3.5-1-7.1-1.1-10.7c0.6-8.6,1.1-12.6,2.3-16.5
				c1.3-4.8,2.7-9.3,4.7-13.8c1.1-2.5,2.5-4.9,4.4-7.1c3.2-3.8,6.5-5.9,11.1-7.9c16.1-7.1,33,9,35.1,18.5c0.4,1.7,0.6,3.2,0.7,4.9
				c0.3,1.1,0.3,2.3,0.4,3.2C265.9,200.2,266.2,202.4,266.2,204.8z M258.7,198.1v-2c0-14.4-12.1-22.2-16.2-21.3
				c-1.4,0.4-2.4,1.1-3.2,2.1c-1.8,2.4-3.4,4.9-4.7,7.5c-2.3,5.8-4,11.7-4.8,17.5c0,1-0.1,1.8-0.1,2.8c-1.1,5.6-1.3,11.3-1.3,16.9
				c0,2.1,0.4,10.3,3,16.9c12.4,30.9,21,4.2,25-16.8C259.9,203.1,258.7,198.9,258.7,198.1z"/>
			<path class="st4" d="M329.6,205c0,0.1-0.3,0.3-0.4,0.4c-2.5,2.5-4.8,5.6-7.9,8c-2.3,1.8-4.5,3.8-6.6,5.5
				c-3.1,2.4-6.5,4.5-10.3,5.8c-1.1,0.3-2.4,0.4-3.7,0.7c-1.4,0.1-2.8,0.6-4,0.8c-1.3,0.3-1.6,0.8-1.6,2c-0.1,0.8,0,1.6,0.1,2.5
				c0.3,3.2,0,6.6,0.4,10.2c0.6,5.2,0.7,10.6,1,16.1l0.4,3.1c0,0.8,0.1,1.6,0,2.4c0,1.3-0.8,2.4-2.3,2.7c-1,0.1-1.8,0.4-3.1,0.3
				c-1.1,0-2.3,0.3-3.7,0.6c-4.1,1.3-5.1,1.6-9-0.3c-1.4-1.4-2.1,0.6-2.7-6.2c-0.1-1.3-0.4-2.4-0.6-3.5c-0.1-3.7-0.7-7.1-0.7-10.7
				c-0.3-4.4-0.3-9-0.3-13.5c0-1.1-0.4-2.4-0.1-3.7c-0.3-4.9,0.3-10.2,0.1-15.4c0-0.6,0.1-1,0-1.7c0.3-3.2,0.4-6.6,0.7-10.2
				c0-2.8,0.1-6.1,0.3-8.9l0.3-11c-0.1-2.1-0.3-10.4,1.1-10.7c0.6-0.4,1.3-0.3,2-0.6c3,0,10.2-0.6,13.7,0.6c1.6,0.4,2.8,1.7,2.7,3
				c-0.1,0.3-0.1,0.4-0.1,0.7c-0.3,3.1-0.1,6.1-0.3,9.2c0,0.7-0.1,1.6-0.1,2.3c-0.1,0.7,0.1,1.1,0.7,1.6c1-0.3,1.4-0.8,2-1.6
				c3.7-3.5,7.9-6.5,12.7-8.6c3.7-1.8,13.4-5.2,19.6-1c2.1,1.7,3.8,3.2,4.9,5.6c1.3,3.8,1.3,9.6,0.1,13.3
				C334,198.3,332,201.6,329.6,205z M327.1,181.4c-1-1.8-3-3-4.9-2.8c-1.8,0.7-3.7,1-5.5,1.8c-3.1,1.6-6.2,3.5-8.9,5.9
				c-0.6,0.4-1.1,1.1-1.8,1.7c-4.1,3.5-7.2,7.3-9.7,12c-1.1,1.7-1.8,4-2,6.2c0.3,1.6,0.1,3.1,0.4,4.7c0,2.7,0.1,5.5,0.3,8.2
				c0,0.4,0.1,0.7,0.1,1.3c0.1,0.4,0.4,0.6,0.8,0.7c0.6,0.1,1,0.1,1.3,0.1c1.7-0.3,3.4-0.6,4.9-1.3c3.1-1.6,5.6-3.5,8.2-5.5
				c1.3-1.3,2.5-2.1,4-3.2c4.4-4,6.5-6.9,8-9.7c3-5.9,5.6-13.1,5.6-15.1C328.2,184.7,328.1,182.8,327.1,181.4z"/>
		</g>
		<g>
			<path d="M185.7,283.9c0.1,2.3-0.1,4.7-0.3,7c-0.1,1.3-0.1,2.5-0.2,3.7c0,1.8,0.1,3.4-0.2,5.2c-0.1,2-0.1,3.9-0.1,5.8
				c0,0.5-0.1,1.1-0.1,1.5c-0.1,2.1-0.1,4-0.1,6.2c-0.1,2,0,4.1,0.1,6.2c-0.2,0.4-0.2,0.8-0.4,1.2c-0.6,0.3-1,0.9-1.7,0.9l-2.2,0.1
				c-0.2-0.1-0.5-0.1-0.6-0.1c-0.6-0.1,0.3-0.3-0.4-0.4c-0.6-0.1-0.9-0.3-1.4-0.5c-0.8,0-1.2-0.2-1.5-0.6c-0.4-0.4-0.6-0.7-0.7-1.2
				c-0.1-1-0.2-1.9-0.2-2.8c-0.2-1.7-0.4-3.4-0.5-5.1l-0.1-0.5c-0.1-0.6-0.4-0.9-0.8-1.1c-0.7,0-1.5-0.1-2.2-0.1
				c-2.1-0.2-7.9,0.3-8.6,0.1c-0.2-0.1-0.4-0.1-0.5-0.1c-0.2,0-0.6,0.1-0.5,0.4v1c0.3,1.5,0.4,2.3,0.5,4c0.1,0.4-0.7,4.1-0.8,4.4
				c-0.1,0.4-0.4,0.7-1.1,0.7c-1.5-0.1-3.2-0.1-4.7-0.3c-0.8-0.1-1.5-0.6-1.8-2.7c-0.3-2-1.2-3.1-1.1-5.1c-0.1-0.2-0.1-0.4-0.1-0.7
				c-0.1-1.8-0.4-3.6-0.5-5.4c0-1.1-0.1-10.6-0.1-12.8c-0.1-2.4-0.4-4.7-0.4-6.9c0-1.5,0-3,0.4-4.6c0-0.4,0-0.8,0.1-1.1
				c-0.1-1.5,0.4-2.9,0.7-4.4c0.2-0.6,0.4-0.7,0.9-0.8c0.9-0.1,1.8,0.1,2.8,0.2c0.9,0.1,1.8,0.4,2.8,0.5c0.1,0,0.2,0,0.4,0.1
				c0.7,0.1,1.3,0.6,1.3,1.2c0,0.4,0.1,0.8,0.1,1.3c-0.1,1.7-0.3,3.2-0.2,4.9c-0.1,2-0.1,4.1-0.1,6.2c0,1.3,0.1,2.6,0.2,3.9
				c0,2.3,0,4.8,0.1,7.1c0.1,1.7,0,3.2,0.2,4.7c0.1,0.5,0.1,1.2,0.2,1.7c0.2,0,0.2,0.1,0.3,0.1c1.9,0.4,7-0.3,7.7,0
				c1.5,0,2.9,0.1,4.4,0.2c0.4,0,0.1-0.1,0.2-0.2c0-0.1,0.2-0.1,0.3-0.4c0-2.1,0.1-8.6,0.1-9.4c0-1.2,0-2.5,0.2-3.6
				c0-0.8,0.1-1.5,0-2.6l0.2-4.5c0.2-2,0.3-3.9,0.5-5.9c0-0.9,0.3-1.9,0.3-2.8c0.1-0.5,0.1-1.3,0.1-1.8c0-0.5,0.1-1,0.4-1.4
				c0.1-0.4,0.4-0.6,0.7-0.4c0.4,0.1,0.8,0.2,1,0.1c1.2,0.1,1.1-0.1,2.2,0c0.8,0.1,1.6,0.1,2.4,0.1c1.2,0,2,1,2.2,2
				c0.1,0.8,0.3,1.5,0.3,2.1C185.8,280.2,185.7,282.1,185.7,283.9z"/>
			<path d="M205.6,281.1c-1,0.1-2.1,0.1-3.2,0.1c-0.3-0.1-0.6-0.1-0.9-0.1c-0.6,0-1.3,0-1.3,0.6L200,283c-0.1,0.6-0.1,1.3-0.3,2
				c-0.2,1.8-0.4,3.7-0.4,5.5c-0.3,2.9-0.4,5.6-0.6,8.5c0,0.4-0.1,0.9-0.1,1.3c-0.1,0.4-0.1,0.8,0.1,1.3c0.6,0.3,1.1,0.2,1.7,0.1
				c1.8,0.1,3.6-0.1,5.4-0.5l1.4-0.1c0.5,0,0.9-0.1,1.5,0c0.4-0.1,0.8,0.1,1.1,0.4c0.6,0.3,0.6,1.1,0.3,1.6
				c-0.3,0.4-0.6,0.9-0.8,1.1c-0.4,0.6-0.9,0.8-1.4,0.7c-0.7,0.1-1.5,0.1-2.2,0.2c-0.6,0.1-1.3,0.2-1.8,0.2
				c-0.7,0.1-1.2,0.2-1.8,0.2c-0.8,0.1-1.6,0.2-2.5-0.1c-0.1-0.1-0.4-0.1-0.6-0.1c-0.4,0-0.6,0.3-0.6,0.7c-0.1,0.5-0.1,0.9-0.1,1.3
				l-0.2,3.9c-0.1,1.8,0,3.7,0,5.5c0,0.2,0.1,0.4,0.1,0.5c0.1,0.1,0.2,0.3,0.4,0.4c0.3,0.1,0.7,0.2,1.1,0.1c1.6-0.1,3.2-0.1,4.6-0.3
				c1.8-0.1,3.6-0.1,5.3,0c0.9,0.1,1.6-0.1,2.4-0.1c0.7-0.1,1.2,0.1,1.8,0.6c0.4,0.4,0.6,1.2,0.2,1.8c-0.4,0.6-0.8,1.1-1.6,1
				c-0.6,0.1-1.3,0.1-2,0.2c-0.5,0-1.1,0-1.7-0.1c-1-0.1-2-0.1-3.1,0.1c-1.3,0.1-2.6,0.2-3.9,0.4c-3.2,0-6.5,1.5-9.1,0.7
				c-0.5-0.1-0.8-0.5-0.9-1c-0.4-1.2-1.1-2.3-1.2-3.5c-0.1-0.6-0.2-1.1-0.1-1.7c-0.2-1.6-0.3-3.3-0.4-4.8c0.1-1.5,0.1-3,0-4.6
				c0.1-2.6,0.1-5.1,0.1-7.7c0-0.9,0.1-1.9,0.1-2.8c0-0.7,0.1-1.3,0.1-2c0-2.2,0-4.5,0.1-6.7c0-1.1,0.1-2.2,0.1-3.4
				c0.1-2,0.3-4.1,0.7-6.2l0.1-1.2c0.1-0.4,0.2-0.8,0.6-0.9c0.9-0.4,1.8-0.6,2.7-0.6c1.3-0.1,10.1-0.2,11.7,0
				c1.5,0.2,2.9,0.1,4.4,0.3c0.6,0,1.2,0,1.8,0.1c0.1,0,0.3,0.1,0.5,0.1c0.7,0.5,0.8,4.4-1.1,4.7C210,280.6,207.8,280.8,205.6,281.1
				z"/>
			<path d="M251.3,315c0.4,0.7,0.3,1.8-0.4,2c-0.4,0.4-0.9,0.6-1.3,0.7c-1.8,0.2-3.2,0.1-4.4-0.4c-2.7-0.8-4.7-2.5-6.6-4.5
				c-1.8-2.2-3.7-4.5-4.9-7.1c-0.8-1.8-2.3-4.4-3.4-4.7c-0.1,0.2-0.2,0.5-0.1,0.8l-0.4,4.7c-0.1,1.8-0.1,3.3-0.1,5.1
				c0.1,0.1,0.1,0.4,0,0.6c-0.2,1.3-0.1,2.8-0.1,4.2c0.1,0.6,0,1.2,0,1.8c-0.2,1.2-0.1,2.2-0.2,3.4v0.3c-0.1,0.9-0.4,1.3-1.3,1.5
				c-0.4,0.1-0.8,0.1-1.2,0c-2-0.4-3.9-0.8-6-1.7c-0.4-0.2-0.6-0.4-1.2-0.6c-0.3-0.2-0.6-0.5-0.9-0.8c-0.4-1.5-0.4-3.2-0.4-10.7
				c-0.1-1.2,0-2.4,0-3.4l0.2-3.1c0-1.8,0.1-3.6,0.2-5.7c0.1-0.1,0.1-0.1,0-0.5c0-1.5,0.2-2.8,0.2-4.2c0.3-2.5,0.4-5.1,0.8-7.7
				c0.1-3.2,0.2-3.9,0.2-4.8c0-0.8,0-1.5,0.4-2.2c0.1-2.5,6.6-2.7,11.1-2.4c1,0.2,1.6,0.8,1.5,1.8c0,0.5-0.1,0.9-0.1,1.4
				c-0.4,2.8-0.9,5.4-1.3,8c-0.1,0.6,0,1.2-0.1,1.7c0,0.2,0.1,0.3,0.1,0.5c0.5,0,0.8-0.4,1-0.7c1.1-1.7,2.2-2.9,3.4-4.2
				c0.6-0.6,1-1.1,1.5-1.5c2.5-2.4,4.3-2.9,5.9-3.6c1-0.5,1.8-0.4,2.7-0.6c1.1,0,2.2,0.2,3.1,0.6c4.8,2.9,4.8,6.2,1.4,12.5
				c-0.5,1.2-1.3,2-2,2.9c-0.7,1.1-1.7,2-2.8,2.7c-1.5,1.1-3.3,2-5,2.6c-1.5,0.6-4.8,1.5-5,1.5c-0.4,0-0.7,0-1,0.1
				c-0.2,0-0.4,0.2-0.2,0.5c0.4,0.6,0.6,1.2,1.2,1.8l1.9,3.4c1.1,2.1,2.7,4.3,4.6,6.1c1.1,0.9,2.2,1.5,3.5,1.9
				c0.3,0.2,0.6,0.1,1,0.1c0.8-0.6,2-0.5,2.9-0.5C250.3,314.3,251,314.7,251.3,315z M234.7,297.7c0.8-0.1,1.8-0.4,2.5-0.6
				c1-0.4,2.1-0.8,3.2-1.1c0.2,0,1.8-1,2.9-1.8v-0.1c4.7-5.1,5.7-8.8,5.7-9.3c0.5-2.4,0-3.7-1.1-3.7c-0.1,0-0.1,0-0.4,0.1
				c-0.6,0.1-1.3,0.2-1.8,0.4c-1.3,0.8-2.4,1.5-3.5,2.5c-0.8,0.7-1.5,1.5-2.5,2.3c-1.7,1.8-3.2,3.9-4.6,6.2
				c-0.8,1.3-2.6,4.6-2.6,4.8C233.3,297.7,234,297.8,234.7,297.7z"/>
			<path d="M272.7,281.1c-1,0.1-2.1,0.1-3.2,0.1c-0.3-0.1-0.6-0.1-0.9-0.1c-0.6,0-1.3,0-1.3,0.6l-0.2,1.3c-0.1,0.6-0.1,1.3-0.3,2
				c-0.2,1.8-0.4,3.7-0.4,5.5c-0.3,2.9-0.4,5.6-0.6,8.5c0,0.4-0.1,0.9-0.1,1.3c-0.1,0.4-0.1,0.8,0.1,1.3c0.6,0.3,1.1,0.2,1.7,0.1
				c1.8,0.1,3.6-0.1,5.4-0.5l1.4-0.1c0.5,0,0.9-0.1,1.5,0c0.4-0.1,0.8,0.1,1.1,0.4c0.6,0.3,0.6,1.1,0.3,1.6
				c-0.3,0.4-0.6,0.9-0.8,1.1c-0.4,0.6-0.9,0.8-1.4,0.7c-0.7,0.1-1.5,0.1-2.2,0.2c-0.6,0.1-1.3,0.2-1.8,0.2
				c-0.7,0.1-1.2,0.2-1.8,0.2c-0.8,0.1-1.6,0.2-2.5-0.1c-0.1-0.1-0.4-0.1-0.6-0.1c-0.4,0-0.6,0.3-0.6,0.7c-0.1,0.5-0.1,0.9-0.1,1.3
				l-0.2,3.9c-0.1,1.8,0,3.7,0,5.5c0,0.2,0.1,0.4,0.1,0.5c0.1,0.1,0.2,0.3,0.4,0.4c0.3,0.1,0.7,0.2,1.1,0.1c1.6-0.1,3.2-0.1,4.6-0.3
				c1.8-0.1,3.6-0.1,5.3,0c0.9,0.1,1.6-0.1,2.4-0.1c0.7-0.1,1.2,0.1,1.8,0.6c0.4,0.4,0.6,1.2,0.2,1.8c-0.4,0.6-0.8,1.1-1.6,1
				c-0.6,0.1-1.3,0.1-2,0.2c-0.5,0-1.1,0-1.7-0.1c-1-0.1-2-0.1-3.1,0.1c-1.3,0.1-2.6,0.2-3.9,0.4c-3.2,0-6.5,1.5-9.1,0.7
				c-0.5-0.1-0.8-0.5-0.9-1c-0.4-1.2-1.1-2.3-1.2-3.5c-0.1-0.6-0.2-1.1-0.1-1.7c-0.2-1.6-0.3-3.3-0.4-4.8c0.1-1.5,0.1-3,0-4.6
				c0.1-2.6,0.1-5.1,0.1-7.7c0-0.9,0.1-1.9,0.1-2.8c0-0.7,0.1-1.3,0.1-2c0-2.2,0-4.5,0.1-6.7c0-1.1,0.1-2.2,0.1-3.4
				c0.1-2,0.3-4.1,0.7-6.2l0.1-1.2c0.1-0.4,0.2-0.8,0.6-0.9c0.9-0.4,1.8-0.6,2.7-0.6c1.3-0.1,10.1-0.2,11.7,0
				c1.5,0.2,2.9,0.1,4.4,0.3c0.6,0,1.2,0,1.8,0.1c0.1,0,0.3,0.1,0.5,0.1c0.7,0.5,0.8,4.4-1.1,4.7
				C277.1,280.6,274.9,280.8,272.7,281.1z"/>
		</g>
	</g>
	<g>
		<path class="st5" d="M309.2,292.9c-0.4-1.9-3.2-2.3-4.5-1.3c-1.3,1-1.9,2.7-1.3,4.4c0.4,1,1.1,1.9,2.2,2.2c1,0.2,2.1-0.2,3-0.8
			c0.6-0.4,1.2-1.5,1.1-2.3C309.7,294.7,309.5,293.4,309.2,292.9C309.1,292.6,309.2,293,309.2,292.9z"/>
		<path class="st5" d="M296.6,297.8c0.7,1.1,1.2,1.4,2.4,1.6c0.7,0.1,1.7,0,2.3-0.5c1.5-1.1,1.1-3.7,0.3-5.1
			c-0.8-1.3-3.4-1.4-4.4-0.6C295.8,294.1,295.7,296.5,296.6,297.8C296.7,297.9,296.5,297.6,296.6,297.8z"/>
		<path class="st5" d="M307.2,301.8c0-0.1,0-0.1,0-0.2c0-0.2,0-0.4-0.1-0.6c-0.4-1.7-2.2-2.4-3.8-2.1c-2,0.4-3.1,2.1-2.5,4.3
			c0.2,0.7,0.4,1.4,0.9,2c0.7,0.8,1.3,0.9,2.4,0.7c0.9-0.1,1.2-0.3,1.9-0.9c0.5-0.4,0.7-0.5,0.9-1.1
			C307.2,303.2,307.2,302.6,307.2,301.8z"/>
		<path class="st6" d="M317.7,296.8c-0.5,0.2-1,0.1-1.5,0.2c-0.1,0-0.1,0-0.2,0c-0.1,0-0.1,0-0.2,0c0,0-0.1,0-0.1,0
			c-0.2,0-0.4,0-0.5-0.1c-0.5-0.1,0.2-0.8,0.4-1.2c0,0,0-0.1,0.1-0.2c0.1-0.2,0.1-0.3,0.2-0.4c0.5-1.1,0-1-0.9-0.9
			c-1.6,0.1-3.2,0.7-4.4,2c-0.7,0.8-1.4,1.6-1.8,2.6c-0.3,0.7-0.9,1.5-0.9,2.5c0,1.1,0.7,2.6,1.2,3.4c0.5,0.7,1,1.2,1.5,1.8
			c0.3,0.4,0.9,1.2,1.5,0.9c0.8-0.5,0.2-2.6,1.1-2.8c0.7-0.1,1.6,1.1,2,1.5c0.4,0.4,0.9,0.9,1.4,1.2c1.3,0.7,1.1,0,1.1-1.1
			c0-1.3,1.2-1.9,2.3-1.9c0.8,0,1.7,0.1,2.6,0.1c0.6,0,2.1,0.5,2.7,0.1c0.5-0.4-0.1-1-0.9-1.6c0,0-0.1,0-0.1-0.1
			c-0.2-0.1-0.3-0.2-0.5-0.3c0,0-0.1-0.1-0.2-0.1c-0.9-0.6-1.8-1.2-2.6-1.7c0,0-0.1-0.1-0.2-0.1c-0.3-0.2-0.5-0.5-0.7-0.8
			c0-0.1-0.1-0.1-0.1-0.1c-0.1-0.3-0.2-0.5-0.1-0.9c0.1-0.6,0.4-1.1,0.7-1.7c0.1-0.2,0.2-0.3,0.2-0.5c0,0,0-0.1,0.1-0.1
			c0-0.2-0.1-0.4-0.3-0.4c0,0-0.1,0-0.2,0c-0.1,0-0.3,0-0.5,0c-0.1,0-0.1,0-0.2,0c-0.3,0-0.6,0.2-0.9,0.2c-0.1,0-0.1,0-0.2,0.1
			C318.5,296.6,318.1,296.7,317.7,296.8C317.8,296.8,317.8,296.8,317.7,296.8z"/>
		<path class="st6" d="M300.2,303.1c-0.1-0.4-0.3-0.7-0.4-1c0-0.1,0-0.1-0.1-0.2c-0.3-0.7-0.8-1.4-1.4-1.9c0,0-0.1-0.1-0.2-0.1
			c-0.4-0.3-0.8-0.5-1.3-0.7c-0.1,0-0.1-0.1-0.2-0.1c-1-0.3-2.2-0.5-3.1-0.4c-0.4,0-2.4-0.1-2.7,0.3c-1,1.2,2.7,2.3,0.9,3.3
			c-0.5,0.3-1,0.3-1.6,0.4c-0.5,0.1-1,0.2-1.5,0.4c-0.3,0.1-0.6,0-1,0.3c-0.9,0.5-0.2,0.8,0.4,1.3c0.7,0.6,0.9,0.9,0.8,1.9
			c0,0.7-0.3,1-0.6,1.6c-0.5,0.8-1.4,1.5-1.9,2.2c-0.3,0.3-1.4,1.1-1.3,1.6c0,0.7,0.7,0.5,1.1,0.3c0.2-0.1,0.3-0.1,0.5-0.1
			c0.1,0,0.1,0,0.2,0c1.4-0.4,2.9-0.6,4.3-1.2c0.1,0,0.1,0,0.2,0c0.2-0.1,0.5-0.2,0.7-0.2c0.6,0,1.4,1.3,1.6,1.9
			c0.3,0.9,0.6,1.6,1.5,0.5c0.4-0.5,0.6-1.2,0.8-1.8c0.3-0.7,0.5-1.6,1-2.2c0.3-0.4,0.2-0.5,0.6-0.1c0.2,0.2,0.5,0.9,0.7,1.3
			c0.1,0.2,0.2,0.9,0.6,0.8c0.2,0,0.4-0.6,0.5-0.8c0.4-0.7,0.6-1.2,0.9-1.9c0.3-0.7,0.4-1.6,0.4-2.5c0-0.1,0-0.1,0-0.2
			c-0.1-0.2-0.1-0.4-0.1-0.7c0-0.1,0-0.1,0-0.2c0-0.4,0-0.9-0.2-1.3C300.3,303.3,300.3,303.3,300.2,303.1z"/>
		<path class="st6" d="M295.4,288.7c0.2,0.3,0.5,0.6,0.7,0.8c0.3,0.3,0.6,0.6,1,0.8c0.4,0.2,0.7,0.3,1.1,0.4c0,0,0.1,0.1,0.2,0.1
			c0.3,0.1,0.7,0.3,1,0.3c1.3,0.4,3.1,0.8,4.3,0.2c1.4-0.6,2.5-1.9,3.2-2.9c0.3-0.5,0.6-0.9,0.9-1.4c0.3-0.5,0.7-0.9-0.2-1.2
			c-0.6-0.2-1.3,0.1-1.9,0.1c-1.2-0.1-0.7-1-0.4-1.6c0.3-0.6,0.6-1.1,0.8-1.7c0.1-0.4,0.2-0.8,0.4-1.2c0.3-0.9-0.2-0.9-1.1-0.7
			c-1.1,0.3-1.6,0.4-2.5-0.5c-0.7-0.8-0.8-2.2-1.1-3.3c-0.2-0.7-0.2-1.5-0.5-2.2c-0.3-0.7-0.7-0.8-1.1-0.1c-0.2,0.4-0.3,0.8-0.4,1.1
			c0,0,0,0.1-0.1,0.2c-0.6,1.1-0.9,2.2-1.2,3.5c0,0.1-0.1,0.1-0.1,0.2c0,0-0.1,0.1-0.1,0.2c0,0,0,0.1,0,0.2
			c-0.1,0.3-0.2,0.6-0.3,0.7c-0.4,0.6-2,0.3-2.6,0.2c-0.3-0.1-0.8-0.4-1-0.2c-0.3,0.3,0,1,0.1,1.3c0.2,0.6,0.8,1.1,1.1,1.7
			c0.2,0.4,1.3,1.8,1.3,2.2c-0.1,0.4-0.8,0.3-1.4,0.1c0,0-0.1,0-0.1,0c-0.3-0.1-0.7-0.2-1,0c-0.3,0.1-0.3,0.6-0.2,0.9
			c0,0.3,0.2,0.5,0.3,0.7C294.8,287.9,295.1,288.3,295.4,288.7z"/>
	</g>
	<g>
		<path class="st5" d="M120.4,142.2c-0.4-1.9-3.2-2.3-4.5-1.3c-1.3,1-1.9,2.7-1.3,4.4c0.4,1,1.1,1.9,2.2,2.2c1,0.2,2.1-0.2,3-0.8
			c0.6-0.4,1.2-1.5,1.1-2.3C120.9,143.9,120.7,142.6,120.4,142.2C120.3,141.9,120.4,142.3,120.4,142.2z"/>
		<path class="st5" d="M107.8,147.1c0.7,1.1,1.2,1.4,2.4,1.6c0.7,0.1,1.7-0.1,2.3-0.5c1.5-1.1,1.1-3.7,0.3-5.1
			c-0.8-1.3-3.4-1.4-4.4-0.6C107,143.4,106.9,145.8,107.8,147.1C107.9,147.1,107.7,146.9,107.8,147.1z"/>
		<path class="st5" d="M118.4,151.1c0-0.1,0-0.1,0-0.2c0-0.2,0-0.4-0.1-0.6c-0.4-1.7-2.2-2.4-3.8-2.1c-2,0.4-3.1,2.1-2.5,4.3
			c0.2,0.7,0.4,1.4,0.9,2c0.7,0.8,1.3,0.9,2.4,0.7c0.9-0.1,1.2-0.3,1.9-0.9c0.5-0.4,0.7-0.5,0.9-1.1
			C118.4,152.5,118.4,151.8,118.4,151.1z"/>
		<path class="st6" d="M128.9,146.1c-0.5,0.2-1,0.1-1.5,0.2c-0.1,0-0.1,0-0.2,0c-0.1,0-0.1,0-0.2,0c0,0-0.1,0-0.1,0
			c-0.2,0-0.4,0-0.5-0.1c-0.5-0.1,0.2-0.8,0.4-1.2c0,0,0-0.1,0.1-0.2c0.1-0.2,0.1-0.3,0.2-0.4c0.5-1.1,0-1-0.9-0.9
			c-1.6,0.1-3.2,0.7-4.4,2c-0.7,0.8-1.4,1.6-1.8,2.6c-0.3,0.7-0.9,1.5-0.9,2.5c0,1.1,0.7,2.6,1.2,3.4c0.5,0.7,1,1.2,1.5,1.8
			c0.3,0.4,0.9,1.2,1.5,0.9c0.8-0.5,0.2-2.6,1.1-2.8c0.7-0.1,1.6,1.1,2,1.5c0.4,0.4,0.9,0.9,1.4,1.2c1.3,0.7,1.1,0,1.1-1.1
			c0-1.3,1.2-1.9,2.3-1.9c0.8,0,1.7,0.1,2.6,0.1c0.6,0,2.1,0.5,2.7,0.1c0.5-0.4-0.1-1-0.9-1.6c0,0-0.1,0-0.1-0.1
			c-0.2-0.1-0.3-0.2-0.5-0.3c0,0-0.1-0.1-0.2-0.1c-0.9-0.6-1.8-1.2-2.6-1.7c0,0-0.1-0.1-0.2-0.1c-0.3-0.2-0.5-0.5-0.7-0.8
			c0-0.1-0.1-0.1-0.1-0.1c-0.1-0.3-0.2-0.5-0.1-0.9c0.1-0.6,0.4-1.1,0.7-1.7c0.1-0.2,0.2-0.3,0.2-0.5c0,0,0-0.1,0.1-0.1
			c0-0.2-0.1-0.4-0.3-0.4c0,0-0.1,0-0.2,0c-0.1,0-0.3,0-0.5,0c-0.1,0-0.1,0-0.2,0c-0.3,0-0.6,0.2-0.9,0.2c-0.1,0-0.1,0-0.2,0.1
			C129.7,145.9,129.3,145.9,128.9,146.1C129,146,129,146.1,128.9,146.1z"/>
		<path class="st6" d="M111.4,152.4c-0.1-0.4-0.3-0.7-0.4-1c0-0.1,0-0.1-0.1-0.2c-0.3-0.7-0.8-1.4-1.4-1.9c0,0-0.1-0.1-0.2-0.1
			c-0.4-0.3-0.8-0.5-1.3-0.7c-0.1,0-0.1-0.1-0.2-0.1c-1-0.3-2.2-0.5-3.1-0.4c-0.4,0-2.4-0.1-2.7,0.3c-1,1.2,2.7,2.3,0.9,3.3
			c-0.5,0.3-1,0.3-1.6,0.4c-0.5,0.1-1,0.2-1.5,0.4c-0.3,0.1-0.6,0-1,0.3c-0.9,0.5-0.2,0.8,0.4,1.3c0.7,0.6,0.9,0.9,0.8,1.9
			c0,0.7-0.3,1-0.6,1.6c-0.5,0.8-1.4,1.5-1.9,2.2c-0.3,0.3-1.4,1.1-1.3,1.6c0,0.7,0.7,0.5,1.1,0.3c0.2-0.1,0.3-0.1,0.5-0.1
			c0.1,0,0.1,0,0.2,0c1.4-0.4,2.9-0.6,4.3-1.2c0.1,0,0.1,0,0.2,0c0.2-0.1,0.5-0.2,0.7-0.2c0.6,0,1.4,1.3,1.6,1.9
			c0.3,0.9,0.6,1.6,1.5,0.5c0.4-0.5,0.6-1.2,0.8-1.8c0.3-0.7,0.5-1.6,1-2.2c0.3-0.4,0.2-0.5,0.6-0.1c0.2,0.2,0.5,0.9,0.7,1.3
			c0.1,0.2,0.2,0.9,0.6,0.8c0.2,0,0.4-0.6,0.5-0.8c0.4-0.7,0.6-1.2,0.9-1.9c0.3-0.7,0.4-1.6,0.4-2.5c0-0.1,0-0.1,0-0.2
			c-0.1-0.2-0.1-0.4-0.1-0.7c0-0.1,0-0.1,0-0.2c0-0.4,0-0.9-0.2-1.3C111.5,152.6,111.5,152.5,111.4,152.4z"/>
		<path class="st6" d="M106.6,138c0.2,0.3,0.5,0.6,0.7,0.8c0.3,0.3,0.6,0.6,1,0.8c0.4,0.2,0.7,0.3,1.1,0.4c0,0,0.1,0.1,0.2,0.1
			c0.3,0.1,0.7,0.3,1,0.3c1.3,0.4,3.1,0.8,4.3,0.2c1.4-0.6,2.5-1.9,3.2-2.9c0.3-0.5,0.6-0.9,0.9-1.4c0.3-0.5,0.7-0.9-0.2-1.2
			c-0.6-0.2-1.3,0.1-1.9,0.1c-1.2-0.1-0.7-1-0.4-1.6c0.3-0.6,0.6-1.1,0.8-1.7c0.1-0.4,0.2-0.8,0.4-1.2c0.3-0.9-0.2-0.9-1.1-0.7
			c-1.1,0.3-1.6,0.4-2.5-0.5c-0.7-0.8-0.8-2.2-1.1-3.3c-0.2-0.7-0.2-1.5-0.5-2.2c-0.3-0.7-0.7-0.8-1.1-0.1c-0.2,0.4-0.3,0.8-0.4,1.1
			c0,0,0,0.1-0.1,0.2c-0.6,1.1-0.9,2.2-1.2,3.5c0,0.1-0.1,0.1-0.1,0.2c0,0-0.1,0.1-0.1,0.2s0,0.1,0,0.2c-0.1,0.3-0.2,0.6-0.3,0.7
			c-0.4,0.6-2,0.3-2.6,0.2c-0.3-0.1-0.8-0.4-1-0.2c-0.3,0.3,0,1,0.1,1.3c0.2,0.6,0.8,1.1,1.1,1.7c0.2,0.4,1.3,1.8,1.3,2.2
			c-0.1,0.4-0.8,0.3-1.4,0.1c0,0-0.1,0-0.1,0c-0.3-0.1-0.7-0.2-1,0c-0.3,0.1-0.3,0.6-0.2,0.9c0,0.3,0.2,0.5,0.3,0.7
			C106,137.1,106.3,137.6,106.6,138z"/>
	</g>
</g>
</svg>
